<svg xmlns="http://www.w3.org/2000/svg" xmlns:xlink="http://www.w3.org/1999/xlink" width="274.438" height="245.034" viewBox="0 0 274.438 245.034">
  <defs>
    <clipPath id="clip-path">
      <rect id="Rectangle_1229" data-name="Rectangle 1229" width="109.404" height="213.506" rx="14.52" fill="#263238" stroke="#263238" stroke-linecap="round" stroke-linejoin="round" stroke-width="1"/>
    </clipPath>
    <clipPath id="clip-path-2">
      <rect id="Rectangle_1244" data-name="Rectangle 1244" width="99.678" height="186.336" fill="#92e3a9" stroke="#263238" stroke-linecap="round" stroke-linejoin="round" stroke-width="1"/>
    </clipPath>
    <clipPath id="clip-path-3">
      <path id="Path_1293" data-name="Path 1293" d="M163.18,253.55s-3.05,48.435,15.421,66.907c0,0,19.486-13.379,19.486-66.326Z" transform="translate(-162.992 -253.55)" fill="#fff" stroke="#263238" stroke-linecap="round" stroke-linejoin="round" stroke-width="1.01"/>
    </clipPath>
  </defs>
  <g id="Online_Doctor-bro" data-name="Online Doctor-bro" transform="translate(-49.43 -70.296)">
    <g id="freepik--background-simple--inject-81" transform="translate(56.854 70.296)">
      <path id="Path_1206" data-name="Path 1206" d="M61.971,161.826s-9.354,41.259,17.681,77.425,73.82,50.465,111.474,63.045,72.711-1.427,85.7-33.048-13.778-48.882-19.926-90.337-1.535-53.353-29.145-85.068-83.871-31.337-121.674.791S61.971,161.826,61.971,161.826Z" transform="translate(-60.407 -70.296)" fill="#81d8b7" opacity="0.157"/>
    </g>
    <g id="freepik--Plants--inject-81" transform="translate(49.43 143.104)">
      <path id="Path_1208" data-name="Path 1208" d="M381.886,115.608s.676-3.5-3.267-9.375-6.547-9.293-6.547-9.293-4.058,7.589-.433,13.392a88.031,88.031,0,0,0,9.023,11.593Z" transform="translate(-172.831 -96.94)" fill="#81d8b7"/>
      <path id="Path_1209" data-name="Path 1209" d="M365.011,145.938s.676-3.5-3.267-9.375-6.561-9.293-6.561-9.293-4.058,7.589-.426,13.386a87.808,87.808,0,0,0,9.023,11.6Z" transform="translate(-167.366 -106.755)" fill="#81d8b7"/>
      <path id="Path_1210" data-name="Path 1210" d="M384.4,127.636s1.055-3.382,7.312-6.723,10.146-5.093,10.146-5.093,0,8.59-5.939,12.006a88.6,88.6,0,0,1-13.433,5.959Z" transform="translate(-176.83 -103.05)" fill="#81d8b7"/>
      <path id="Path_1211" data-name="Path 1211" d="M363.91,164.306s1.407-3.287,7.975-5.918,10.646-4,10.646-4-.927,8.543-7.17,11.316a87.6,87.6,0,0,1-13.981,4.511Z" transform="translate(-169.999 -115.532)" fill="#81d8b7"/>
      <path id="Path_1212" data-name="Path 1212" d="M358.771,204.722s.676-3.51,6.561-7.44,9.571-6.142,9.571-6.142.879,8.549-4.64,12.567a87.4,87.4,0,0,1-12.723,7.345Z" transform="translate(-168.756 -127.425)" fill="#81d8b7"/>
      <path id="Path_1213" data-name="Path 1213" d="M352.363,211.852s1.177-3.382-1.894-9.747S345.3,191.96,345.3,191.96s-5.073,6.933-2.333,13.189a87.611,87.611,0,0,0,7.285,12.757Z" transform="translate(-163.775 -127.69)" fill="#81d8b7"/>
      <path id="Path_1214" data-name="Path 1214" d="M343.611,243.622s.676-3.5,6.554-7.44S359.743,230,359.743,230s.879,8.543-4.64,12.567a88.11,88.11,0,0,1-12.723,7.345Z" transform="translate(-163.85 -140.001)" fill="#81d8b7"/>
      <path id="Path_1215" data-name="Path 1215" d="M343.7,270.207s-.223-3.565,4.457-8.874,7.7-8.333,7.7-8.333,3.017,8.042-1.305,13.331a87.649,87.649,0,0,1-10.45,10.328Z" transform="translate(-164.276 -147.444)" fill="#81d8b7"/>
      <path id="Path_1216" data-name="Path 1216" d="M373.5,123.34a101.7,101.7,0,0,1-3.47,10.633c-3.9,9.652-10.017,15.171-13.73,23.849s-.419,21.441-4.187,32.784-9.557,16.909-9.78,24.945,2.476,30.376,2.476,30.376" transform="translate(-163.831 -105.484)" fill="none" stroke="#263238" stroke-linecap="round" stroke-linejoin="round" stroke-width="0.5"/>
      <line id="Line_53" data-name="Line 53" y1="3.023" x2="6.087" transform="translate(207.073 23.883)" fill="none" stroke="#263238" stroke-linecap="round" stroke-linejoin="round" stroke-width="0.5"/>
      <line id="Line_54" data-name="Line 54" x1="1.441" y1="4.369" transform="translate(206.789 17.911)" fill="none" stroke="#263238" stroke-linecap="round" stroke-linejoin="round" stroke-width="0.5"/>
      <path id="Path_1217" data-name="Path 1217" d="M363.54,171.45s5.086-2.455,10.288-4.89" transform="translate(-170.698 -119.471)" fill="none" stroke="#263238" stroke-linecap="round" stroke-linejoin="round" stroke-width="0.5"/>
      <path id="Path_1218" data-name="Path 1218" d="M366.176,157.715a71.938,71.938,0,0,0-5.526-13.575" transform="translate(-169.762 -112.215)" fill="none" stroke="#263238" stroke-linecap="round" stroke-linejoin="round" stroke-width="0.5"/>
      <path id="Path_1219" data-name="Path 1219" d="M358.18,213.472a55.787,55.787,0,0,1,11.952-10.822" transform="translate(-168.963 -131.15)" fill="none" stroke="#263238" stroke-linecap="round" stroke-linejoin="round" stroke-width="0.5"/>
      <path id="Path_1220" data-name="Path 1220" d="M353.021,218.534a62.9,62.9,0,0,0-3.03-10.051c-1.84-4.315-2.11-4.883-2.11-4.883" transform="translate(-165.63 -131.457)" fill="none" stroke="#263238" stroke-linecap="round" stroke-linejoin="round" stroke-width="0.5"/>
      <path id="Path_1221" data-name="Path 1221" d="M342.34,253.427a59.434,59.434,0,0,1,5.567-7.285,52.759,52.759,0,0,1,6.493-5.763" transform="translate(-163.837 -143.36)" fill="none" stroke="#263238" stroke-linecap="round" stroke-linejoin="round" stroke-width="0.5"/>
      <path id="Path_1222" data-name="Path 1222" d="M344.3,279.956a15.327,15.327,0,0,1,2.848-7.508c2.543-3.213,5.553-7.474,6.764-9.158" transform="translate(-164.471 -150.774)" fill="none" stroke="#263238" stroke-linecap="round" stroke-linejoin="round" stroke-width="0.5"/>
      <path id="Path_1223" data-name="Path 1223" d="M326.388,179.611s.047-2.279,3.3-5.411,5.337-4.89,5.337-4.89,1.481,5.262-1.549,8.38a55.754,55.754,0,0,1-7.176,5.993Z" transform="translate(-158.646 -120.36)" fill="#81d8b7"/>
      <path id="Path_1224" data-name="Path 1224" d="M332.758,200.751s.054-2.273,3.3-5.411,5.343-4.89,5.343-4.89,1.475,5.262-1.549,8.387a55.884,55.884,0,0,1-7.183,5.986Z" transform="translate(-160.707 -127.202)" fill="#81d8b7"/>
      <path id="Path_1225" data-name="Path 1225" d="M322.071,185.62s-.189-2.266-3.632-5.174S312.8,175.9,312.8,175.9s-1.15,5.35,2.07,8.272a56.09,56.09,0,0,0,7.542,5.526Z" transform="translate(-154.214 -122.493)" fill="#81d8b7"/>
      <path id="Path_1226" data-name="Path 1226" d="M329.4,211.094s-.433-2.232-4.16-4.735-6.087-3.93-6.087-3.93-.575,5.411,2.929,8.008a56.186,56.186,0,0,0,8.083,4.735Z" transform="translate(-156.322 -131.079)" fill="#81d8b7"/>
      <path id="Path_1227" data-name="Path 1227" d="M328.025,237.149s.047-2.273-3.064-5.526-5.12-5.113-5.12-5.113-1.7,5.195,1.177,8.441a55.925,55.925,0,0,0,6.919,6.29Z" transform="translate(-156.394 -138.872)" fill="#81d8b7"/>
      <path id="Path_1228" data-name="Path 1228" d="M332.116,243.39s-.277-2.252,2.5-5.8S339.2,232,339.2,232s2.212,5-.338,8.516a55.935,55.935,0,0,1-6.256,6.946Z" transform="translate(-160.526 -140.648)" fill="#81d8b7"/>
      <path id="Path_1229" data-name="Path 1229" d="M335.508,273.307s.676-2.171,4.687-4.241,6.5-3.186,6.5-3.186-.061,5.465-3.842,7.6a55.837,55.837,0,0,1-8.583,3.727Z" transform="translate(-161.225 -151.613)" fill="#81d8b7"/>
      <path id="Path_1230" data-name="Path 1230" d="M332.182,263.409s.047-2.273-3.071-5.526-5.12-5.113-5.12-5.113-1.7,5.195,1.184,8.441a55.923,55.923,0,0,0,6.919,6.29Z" transform="translate(-157.737 -147.37)" fill="#81d8b7"/>
      <path id="Path_1231" data-name="Path 1231" d="M329.512,280.244s.622-2.185-1.562-6.121-3.659-6.243-3.659-6.243-2.969,4.593-.994,8.468a55.891,55.891,0,0,0,5.093,7.846Z" transform="translate(-157.454 -152.26)" fill="#81d8b7"/>
      <path id="Path_1232" data-name="Path 1232" d="M326,183.66a64.937,64.937,0,0,0,.717,7.082c1.123,6.527,4.173,10.822,5.31,16.693s-2.645,13.386-1.84,20.968,3.646,11.816,2.706,16.835-5.641,18.553-5.641,18.553" transform="translate(-158.549 -125.004)" fill="none" stroke="#263238" stroke-linecap="round" stroke-linejoin="round" stroke-width="0.5"/>
      <line id="Line_55" data-name="Line 55" x1="3.375" y1="2.706" transform="translate(164.482 61.929)" fill="none" stroke="#263238" stroke-linecap="round" stroke-linejoin="round" stroke-width="0.5"/>
      <line id="Line_56" data-name="Line 56" y1="2.523" x2="1.488" transform="translate(167.762 59.082)" fill="none" stroke="#263238" stroke-linecap="round" stroke-linejoin="round" stroke-width="0.5"/>
      <path id="Path_1233" data-name="Path 1233" d="M331.909,216.28s-2.821-2.212-5.729-4.43" transform="translate(-158.607 -134.127)" fill="none" stroke="#263238" stroke-linecap="round" stroke-linejoin="round" stroke-width="0.5"/>
      <path id="Path_1234" data-name="Path 1234" d="M332.67,208.047a45.994,45.994,0,0,1,5.276-7.7" transform="translate(-160.707 -130.406)" fill="none" stroke="#263238" stroke-linecap="round" stroke-linejoin="round" stroke-width="0.5"/>
      <path id="Path_1235" data-name="Path 1235" d="M329.056,243.007a35.408,35.408,0,0,0-5.966-8.347" transform="translate(-157.607 -141.509)" fill="none" stroke="#263238" stroke-linecap="round" stroke-linejoin="round" stroke-width="0.5"/>
      <path id="Path_1236" data-name="Path 1236" d="M332.64,247.65a40.178,40.178,0,0,1,3.233-5.837c1.732-2.435,1.975-2.753,1.975-2.753" transform="translate(-160.698 -142.933)" fill="none" stroke="#263238" stroke-linecap="round" stroke-linejoin="round" stroke-width="0.5"/>
      <path id="Path_1237" data-name="Path 1237" d="M334.85,277.784a33.534,33.534,0,0,1,4.863-3.382,21.362,21.362,0,0,0,3.071-1.772" transform="translate(-161.413 -153.797)" fill="none" stroke="#263238" stroke-linecap="round" stroke-linejoin="round" stroke-width="0.5"/>
      <path id="Path_1238" data-name="Path 1238" d="M333.459,270.017a37.876,37.876,0,0,0-2.469-5.289,33.562,33.562,0,0,0-3.26-4.457" transform="translate(-159.109 -149.797)" fill="none" stroke="#263238" stroke-linecap="round" stroke-linejoin="round" stroke-width="0.5"/>
      <path id="Path_1239" data-name="Path 1239" d="M329.37,286.421a9.7,9.7,0,0,0-.751-5.053c-1.143-2.34-2.435-5.411-2.969-6.608" transform="translate(-158.436 -154.486)" fill="none" stroke="#263238" stroke-linecap="round" stroke-linejoin="round" stroke-width="0.5"/>
      <path id="Path_1240" data-name="Path 1240" d="M76.995,249.977s-1.069-3.091-6.886-5.912-9.469-4.336-9.469-4.336.3,7.846,5.8,10.775A80.1,80.1,0,0,0,78.9,255.53Z" transform="translate(-53.058 -197.937)" fill="#81d8b7"/>
      <path id="Path_1241" data-name="Path 1241" d="M77.585,281.677s-1.069-3.084-6.886-5.912-9.469-4.336-9.469-4.336.3,7.846,5.8,10.781a80.486,80.486,0,0,0,12.452,5.019Z" transform="translate(-53.249 -208.195)" fill="#81d8b7"/>
      <path id="Path_1242" data-name="Path 1242" d="M87.078,254.483s-.737-3.186,2.706-8.671,5.7-8.691,5.7-8.691,3.916,6.8.812,12.215a79.963,79.963,0,0,1-7.88,10.869Z" transform="translate(-61.592 -197.092)" fill="#81d8b7"/>
      <path id="Path_1243" data-name="Path 1243" d="M87.545,292.482s-.4-3.247,3.585-8.34,6.581-8.042,6.581-8.042,3.186,7.176-.473,12.229a80.628,80.628,0,0,1-8.976,9.983Z" transform="translate(-61.761 -209.707)" fill="#81d8b7"/>
      <path id="Path_1244" data-name="Path 1244" d="M102.255,327.6s-1.069-3.084,1.759-8.9,4.735-9.246,4.735-9.246,4.62,6.351,2.1,12.06a80.208,80.208,0,0,1-6.683,11.64Z" transform="translate(-66.461 -220.499)" fill="#81d8b7"/>
      <path id="Path_1245" data-name="Path 1245" d="M98.287,339.309s-.622-3.206-5.979-6.831-8.732-5.627-8.732-5.627-.825,7.805,4.214,11.5A80.31,80.31,0,0,0,99.4,345.112Z" transform="translate(-60.464 -226.13)" fill="#81d8b7"/>
      <path id="Path_1246" data-name="Path 1246" d="M108.135,365.314s-1.069-3.091,1.759-8.908,4.735-9.246,4.735-9.246,4.62,6.351,2.1,12.06a80.488,80.488,0,0,1-6.689,11.647Z" transform="translate(-68.364 -232.703)" fill="#92e3a9"/>
      <path id="Path_1247" data-name="Path 1247" d="M120.351,387.392s-1.819-2.706-.555-9.057,2.252-10.146,2.252-10.146,6.087,4.978,5.08,11.133a80.18,80.18,0,0,1-3.517,12.959Z" transform="translate(-72.057 -239.509)" fill="#92e3a9"/>
      <path id="Path_1248" data-name="Path 1248" d="M85,253.51a92.359,92.359,0,0,1,2.137,9.99c1.353,9.415-.96,16.585.095,25.148s9.469,17.133,11.735,27.826.216,17.762,3.713,24.2,15.888,22.875,15.888,22.875" transform="translate(-60.941 -202.396)" fill="none" stroke="#263238" stroke-linecap="round" stroke-linejoin="round" stroke-width="0.5"/>
      <line id="Line_57" data-name="Line 57" y1="5.181" x2="3.422" transform="translate(26.149 54.273)" fill="none" stroke="#263238" stroke-linecap="round" stroke-linejoin="round" stroke-width="0.5"/>
      <line id="Line_58" data-name="Line 58" x1="3.152" y1="2.793" transform="translate(21.793 52.473)" fill="none" stroke="#263238" stroke-linecap="round" stroke-linejoin="round" stroke-width="0.5"/>
      <path id="Path_1249" data-name="Path 1249" d="M88.48,300.683s2.888-4.275,5.884-8.583" transform="translate(-62.067 -214.885)" fill="none" stroke="#263238" stroke-linecap="round" stroke-linejoin="round" stroke-width="0.5"/>
      <path id="Path_1250" data-name="Path 1250" d="M83.182,290.871A64.21,64.21,0,0,0,72.59,282.68" transform="translate(-56.925 -211.836)" fill="none" stroke="#263238" stroke-linecap="round" stroke-linejoin="round" stroke-width="0.5"/>
      <path id="Path_1251" data-name="Path 1251" d="M104.83,335.975a50.9,50.9,0,0,1,4.478-14.035" transform="translate(-67.359 -224.541)" fill="none" stroke="#263238" stroke-linecap="round" stroke-linejoin="round" stroke-width="0.5"/>
      <path id="Path_1252" data-name="Path 1252" d="M100.7,344.962a57.706,57.706,0,0,0-6.994-6.547c-3.436-2.57-3.909-2.895-3.909-2.895" transform="translate(-62.495 -228.936)" fill="none" stroke="#263238" stroke-linecap="round" stroke-linejoin="round" stroke-width="0.5"/>
      <path id="Path_1253" data-name="Path 1253" d="M111.13,374.814a55.4,55.4,0,0,1,1.055-8.313,48.321,48.321,0,0,1,2.489-7.5" transform="translate(-69.397 -236.535)" fill="none" stroke="#263238" stroke-linecap="round" stroke-linejoin="round" stroke-width="0.5"/>
      <path id="Path_1254" data-name="Path 1254" d="M125.043,395.4a14.028,14.028,0,0,1-1.2-7.237c.541-3.707.96-8.455,1.15-10.342" transform="translate(-73.49 -242.625)" fill="none" stroke="#263238" stroke-linecap="round" stroke-linejoin="round" stroke-width="0.5"/>
      <path id="Path_1255" data-name="Path 1255" d="M63.884,324.527s-1.008-1.819.135-5.776,1.975-6.311,1.975-6.311,3.585,3.483,2.624,7.332A51.23,51.23,0,0,1,65.69,327.8Z" transform="translate(-53.975 -221.467)" fill="#81d8b7"/>
      <path id="Path_1256" data-name="Path 1256" d="M78.625,338.307s-1-1.819.135-5.776,1.975-6.311,1.975-6.311,3.585,3.483,2.624,7.332a50.787,50.787,0,0,1-2.922,8.029Z" transform="translate(-58.746 -225.927)" fill="#81d8b7"/>
      <path id="Path_1257" data-name="Path 1257" d="M61.213,333.119s-1.19-1.7-5.249-2.421-6.534-1.008-6.534-1.008,1.549,4.735,5.411,5.587a50.807,50.807,0,0,0,8.5.906Z" transform="translate(-49.43 -227.05)" fill="#81d8b7"/>
      <path id="Path_1258" data-name="Path 1258" d="M78.63,349.964s-1.353-1.569-5.472-1.853-6.608-.311-6.608-.311,2.029,4.559,5.986,4.985a51.5,51.5,0,0,0,8.543,0Z" transform="translate(-54.97 -232.91)" fill="#81d8b7"/>
      <path id="Path_1259" data-name="Path 1259" d="M89.676,371.043s-1.008-1.819-4.958-2.963-6.4-1.691-6.4-1.691,1.042,4.89,4.809,6.128a50.841,50.841,0,0,0,8.353,1.8Z" transform="translate(-58.779 -238.926)" fill="#81d8b7"/>
      <path id="Path_1260" data-name="Path 1260" d="M97.694,372.643s-1.251-1.657-.676-5.729,1.062-6.534,1.062-6.534,4.058,2.935,3.639,6.892a50.729,50.729,0,0,1-1.759,8.36Z" transform="translate(-64.782 -236.981)" fill="#81d8b7"/>
      <path id="Path_1261" data-name="Path 1261" d="M114.072,393.555s-.446-2.029,1.759-5.5,3.673-5.506,3.673-5.506,2.462,4.356.453,7.778a50.633,50.633,0,0,1-5.073,6.879Z" transform="translate(-70.338 -244.156)" fill="#92e3a9"/>
      <path id="Path_1262" data-name="Path 1262" d="M105.01,389.883s-1-1.819-4.958-2.956-6.392-1.7-6.392-1.7,1.035,4.89,4.809,6.135a51.107,51.107,0,0,0,8.353,1.826Z" transform="translate(-63.744 -245.023)" fill="#81d8b7"/>
      <path id="Path_1263" data-name="Path 1263" d="M111.063,404.159s-.507-2.029-4.058-4.119-5.756-3.26-5.756-3.26-.237,4.992,3.1,7.149a51,51,0,0,0,7.623,3.855Z" transform="translate(-66.198 -248.761)" fill="#81d8b7"/>
      <path id="Path_1264" data-name="Path 1264" d="M63.36,329.81a60.2,60.2,0,0,0,3.815,5.262c3.882,4.647,8.252,6.615,11.857,10.754s4.058,11.8,8.157,17.4S95.5,370.893,97.05,375.3s4.058,17.248,4.058,17.248" transform="translate(-53.938 -227.088)" fill="none" stroke="#263238" stroke-linecap="round" stroke-linejoin="round" stroke-width="0.5"/>
      <line id="Line_59" data-name="Line 59" x1="3.909" y1="0.595" transform="translate(8.563 106.672)" fill="none" stroke="#263238" stroke-linecap="round" stroke-linejoin="round" stroke-width="0.5"/>
      <line id="Line_60" data-name="Line 60" y1="2.672" x2="0.02" transform="translate(11.005 102.235)" fill="none" stroke="#263238" stroke-linecap="round" stroke-linejoin="round" stroke-width="0.5"/>
      <path id="Path_1265" data-name="Path 1265" d="M82.981,352.883s-3.247-.453-6.561-.873" transform="translate(-58.165 -234.273)" fill="none" stroke="#263238" stroke-linecap="round" stroke-linejoin="round" stroke-width="0.5"/>
      <path id="Path_1266" data-name="Path 1266" d="M81.492,344.865a41.55,41.55,0,0,1,.636-8.5" transform="translate(-59.801 -229.211)" fill="none" stroke="#263238" stroke-linecap="round" stroke-linejoin="round" stroke-width="0.5"/>
      <path id="Path_1267" data-name="Path 1267" d="M93,375.322a32.553,32.553,0,0,0-8.549-3.862" transform="translate(-60.763 -240.567)" fill="none" stroke="#263238" stroke-linecap="round" stroke-linejoin="round" stroke-width="0.5"/>
      <path id="Path_1268" data-name="Path 1268" d="M99.746,376.195a36.3,36.3,0,0,1-.122-6.087c.25-2.706.3-3.078.3-3.078" transform="translate(-65.65 -239.134)" fill="none" stroke="#263238" stroke-linecap="round" stroke-linejoin="round" stroke-width="0.5"/>
      <path id="Path_1269" data-name="Path 1269" d="M114.66,398.371a30.72,30.72,0,0,1,2.259-4.917,20.557,20.557,0,0,0,1.617-2.814" transform="translate(-70.54 -246.774)" fill="none" stroke="#263238" stroke-linecap="round" stroke-linejoin="round" stroke-width="0.5"/>
      <path id="Path_1270" data-name="Path 1270" d="M108.863,394.633a34.7,34.7,0,0,0-4.376-3.044,31.115,31.115,0,0,0-4.626-2.029" transform="translate(-65.75 -246.425)" fill="none" stroke="#263238" stroke-linecap="round" stroke-linejoin="round" stroke-width="0.5"/>
      <path id="Path_1271" data-name="Path 1271" d="M113.136,409.458a8.922,8.922,0,0,0-2.915-3.652c-1.975-1.319-4.4-3.145-5.411-3.855" transform="translate(-67.352 -250.434)" fill="none" stroke="#263238" stroke-linecap="round" stroke-linejoin="round" stroke-width="0.5"/>
    </g>
    <g id="freepik--Pills--inject-81" transform="translate(177.692 264.825)">
      <rect id="Rectangle_1223" data-name="Rectangle 1223" width="81.348" height="50.005" rx="4.75" transform="translate(0)" fill="#fff" stroke="#263238" stroke-linecap="round" stroke-linejoin="round" stroke-width="1"/>
      <path id="Path_1272" data-name="Path 1272" d="M319.133,383.24h0a3,3,0,0,1-3-3V372.12a3,3,0,0,1,3-3.01h0a3.01,3.01,0,0,1,3.01,3.01v8.117a3,3,0,0,1-3.01,3Z" transform="translate(-311.348 -361.528)" fill="#263238" stroke="#263238" stroke-linecap="round" stroke-linejoin="round" stroke-width="1.01"/>
      <line id="Line_65" data-name="Line 65" y2="5.032" transform="translate(9.821 10.315)" fill="none" stroke="#fff" stroke-linecap="round" stroke-linejoin="round" stroke-width="1.01"/>
      <line id="Line_66" data-name="Line 66" y2="2.76" transform="translate(9.821 16.646)" fill="none" stroke="#fff" stroke-linecap="round" stroke-linejoin="round" stroke-width="1.01"/>
      <path id="Path_1273" data-name="Path 1273" d="M338.563,383.24h0a3,3,0,0,1-3-3V372.12a3,3,0,0,1,3-3.01h0a3,3,0,0,1,3,3.01v8.117A3,3,0,0,1,338.563,383.24Z" transform="translate(-317.636 -361.528)" fill="#263238" stroke="#263238" stroke-linecap="round" stroke-linejoin="round" stroke-width="1.01"/>
      <line id="Line_67" data-name="Line 67" y2="5.032" transform="translate(22.97 10.315)" fill="none" stroke="#fff" stroke-linecap="round" stroke-linejoin="round" stroke-width="1.01"/>
      <line id="Line_68" data-name="Line 68" y2="2.76" transform="translate(22.97 16.646)" fill="none" stroke="#fff" stroke-linecap="round" stroke-linejoin="round" stroke-width="1.01"/>
      <path id="Path_1274" data-name="Path 1274" d="M358.033,383.24h0a3,3,0,0,1-3-3V372.12a3,3,0,0,1,3-3.01h0a3,3,0,0,1,3,3.01v8.117A3,3,0,0,1,358.033,383.24Z" transform="translate(-323.937 -361.528)" fill="#263238" stroke="#263238" stroke-linecap="round" stroke-linejoin="round" stroke-width="1.01"/>
      <line id="Line_69" data-name="Line 69" y2="5.032" transform="translate(36.125 10.315)" fill="none" stroke="#fff" stroke-linecap="round" stroke-linejoin="round" stroke-width="1.01"/>
      <line id="Line_70" data-name="Line 70" y2="2.76" transform="translate(36.125 16.646)" fill="none" stroke="#fff" stroke-linecap="round" stroke-linejoin="round" stroke-width="1.01"/>
      <path id="Path_1275" data-name="Path 1275" d="M377.483,383.24h0a3,3,0,0,1-3-3V372.12a3,3,0,0,1,3-3.01h0a3,3,0,0,1,3,3.01v8.117A3,3,0,0,1,377.483,383.24Z" transform="translate(-330.231 -361.528)" fill="#263238" stroke="#263238" stroke-linecap="round" stroke-linejoin="round" stroke-width="1.01"/>
      <line id="Line_71" data-name="Line 71" y2="5.032" transform="translate(49.281 10.315)" fill="none" stroke="#fff" stroke-linecap="round" stroke-linejoin="round" stroke-width="1.01"/>
      <line id="Line_72" data-name="Line 72" y2="2.76" transform="translate(49.281 16.646)" fill="none" stroke="#fff" stroke-linecap="round" stroke-linejoin="round" stroke-width="1.01"/>
      <path id="Path_1276" data-name="Path 1276" d="M396.93,383.24h0a3,3,0,0,1-3.01-3V372.12a3.01,3.01,0,0,1,3.01-3.01h0a3,3,0,0,1,3,3.01v8.117A3,3,0,0,1,396.93,383.24Z" transform="translate(-336.522 -361.528)" fill="#263238" stroke="#263238" stroke-linecap="round" stroke-linejoin="round" stroke-width="1.01"/>
      <line id="Line_73" data-name="Line 73" y2="5.032" transform="translate(62.437 10.315)" fill="none" stroke="#fff" stroke-linecap="round" stroke-linejoin="round" stroke-width="1.01"/>
      <line id="Line_74" data-name="Line 74" y2="2.76" transform="translate(62.437 16.646)" fill="none" stroke="#fff" stroke-linecap="round" stroke-linejoin="round" stroke-width="1.01"/>
      <path id="Path_1277" data-name="Path 1277" d="M416.373,383.24h0a3,3,0,0,1-3-3V372.12a3,3,0,0,1,3-3.01h0a3,3,0,0,1,3,3.01v8.117A3,3,0,0,1,416.373,383.24Z" transform="translate(-342.817 -361.528)" fill="#263238" stroke="#263238" stroke-linecap="round" stroke-linejoin="round" stroke-width="1.01"/>
      <line id="Line_75" data-name="Line 75" y2="5.032" transform="translate(75.585 10.315)" fill="none" stroke="#fff" stroke-linecap="round" stroke-linejoin="round" stroke-width="1.01"/>
      <line id="Line_76" data-name="Line 76" y2="2.76" transform="translate(75.585 16.646)" fill="none" stroke="#fff" stroke-linecap="round" stroke-linejoin="round" stroke-width="1.01"/>
      <path id="Path_1278" data-name="Path 1278" d="M319.133,415.123h0a3,3,0,0,1-3-3V404a3,3,0,0,1,3-3h0a3,3,0,0,1,3.01,3v8.117a3,3,0,0,1-3.01,3Z" transform="translate(-311.348 -371.848)" fill="#263238" stroke="#263238" stroke-linecap="round" stroke-linejoin="round" stroke-width="1.01"/>
      <line id="Line_77" data-name="Line 77" y2="5.032" transform="translate(9.821 31.912)" fill="none" stroke="#fff" stroke-linecap="round" stroke-linejoin="round" stroke-width="1.01"/>
      <line id="Line_78" data-name="Line 78" y2="2.76" transform="translate(9.821 38.242)" fill="none" stroke="#fff" stroke-linecap="round" stroke-linejoin="round" stroke-width="1.01"/>
      <path id="Path_1279" data-name="Path 1279" d="M338.563,415.123h0a3,3,0,0,1-3-3V404a3,3,0,0,1,3-3h0a3,3,0,0,1,3,3v8.117a3,3,0,0,1-3,3Z" transform="translate(-317.636 -371.848)" fill="#263238" stroke="#263238" stroke-linecap="round" stroke-linejoin="round" stroke-width="1.01"/>
      <line id="Line_79" data-name="Line 79" y2="5.032" transform="translate(22.97 31.912)" fill="none" stroke="#fff" stroke-linecap="round" stroke-linejoin="round" stroke-width="1.01"/>
      <line id="Line_80" data-name="Line 80" y2="2.76" transform="translate(22.97 38.242)" fill="none" stroke="#fff" stroke-linecap="round" stroke-linejoin="round" stroke-width="1.01"/>
      <path id="Path_1280" data-name="Path 1280" d="M358.033,415.123h0a3,3,0,0,1-3-3V404a3,3,0,0,1,3-3h0a3,3,0,0,1,3,3v8.117A3,3,0,0,1,358.033,415.123Z" transform="translate(-323.937 -371.848)" fill="#263238" stroke="#263238" stroke-linecap="round" stroke-linejoin="round" stroke-width="1.01"/>
      <line id="Line_81" data-name="Line 81" y2="5.032" transform="translate(36.125 31.912)" fill="none" stroke="#fff" stroke-linecap="round" stroke-linejoin="round" stroke-width="1.01"/>
      <line id="Line_82" data-name="Line 82" y2="2.76" transform="translate(36.125 38.242)" fill="none" stroke="#fff" stroke-linecap="round" stroke-linejoin="round" stroke-width="1.01"/>
      <path id="Path_1281" data-name="Path 1281" d="M377.483,415.123h0a3,3,0,0,1-3-3V404a3,3,0,0,1,3-3h0a3,3,0,0,1,3,3v8.117A3,3,0,0,1,377.483,415.123Z" transform="translate(-330.231 -371.848)" fill="#263238" stroke="#263238" stroke-linecap="round" stroke-linejoin="round" stroke-width="1.01"/>
      <line id="Line_83" data-name="Line 83" y2="5.032" transform="translate(49.281 31.912)" fill="none" stroke="#fff" stroke-linecap="round" stroke-linejoin="round" stroke-width="1.01"/>
      <line id="Line_84" data-name="Line 84" y2="2.76" transform="translate(49.281 38.242)" fill="none" stroke="#fff" stroke-linecap="round" stroke-linejoin="round" stroke-width="1.01"/>
      <path id="Path_1282" data-name="Path 1282" d="M396.93,415.123h0a3,3,0,0,1-3.01-3V404a3,3,0,0,1,3.01-3h0a3,3,0,0,1,3,3v8.117A3,3,0,0,1,396.93,415.123Z" transform="translate(-336.522 -371.848)" fill="#263238" stroke="#263238" stroke-linecap="round" stroke-linejoin="round" stroke-width="1.01"/>
      <line id="Line_85" data-name="Line 85" y2="5.032" transform="translate(62.437 31.912)" fill="none" stroke="#fff" stroke-linecap="round" stroke-linejoin="round" stroke-width="1.01"/>
      <line id="Line_86" data-name="Line 86" y2="2.76" transform="translate(62.437 38.242)" fill="none" stroke="#fff" stroke-linecap="round" stroke-linejoin="round" stroke-width="1.01"/>
      <path id="Path_1283" data-name="Path 1283" d="M416.373,415.123h0a3,3,0,0,1-3-3V404a3,3,0,0,1,3-3h0a3,3,0,0,1,3,3v8.117a3,3,0,0,1-3,3Z" transform="translate(-342.817 -371.848)" fill="#263238" stroke="#263238" stroke-linecap="round" stroke-linejoin="round" stroke-width="1.01"/>
      <line id="Line_87" data-name="Line 87" y2="5.032" transform="translate(75.585 31.912)" fill="none" stroke="#fff" stroke-linecap="round" stroke-linejoin="round" stroke-width="1.01"/>
      <line id="Line_88" data-name="Line 88" y2="2.76" transform="translate(75.585 38.242)" fill="none" stroke="#fff" stroke-linecap="round" stroke-linejoin="round" stroke-width="1.01"/>
      <line id="Line_89" data-name="Line 89" y2="1.691" transform="translate(14.441 2.597)" fill="none" stroke="#263238" stroke-linecap="round" stroke-linejoin="round" stroke-width="0.5"/>
      <line id="Line_90" data-name="Line 90" y2="36.085" transform="translate(14.441 7.427)" fill="none" stroke="#263238" stroke-linecap="round" stroke-linejoin="round" stroke-width="0.5" stroke-dasharray="4.639 4.639"/>
      <line id="Line_91" data-name="Line 91" y2="1.691" transform="translate(14.441 45.081)" fill="none" stroke="#263238" stroke-linecap="round" stroke-linejoin="round" stroke-width="0.5"/>
      <line id="Line_92" data-name="Line 92" y2="1.691" transform="translate(27.596 2.597)" fill="none" stroke="#263238" stroke-linecap="round" stroke-linejoin="round" stroke-width="0.5"/>
      <line id="Line_93" data-name="Line 93" y2="36.085" transform="translate(27.596 7.427)" fill="none" stroke="#263238" stroke-linecap="round" stroke-linejoin="round" stroke-width="0.5" stroke-dasharray="4.639 4.639"/>
      <line id="Line_94" data-name="Line 94" y2="1.691" transform="translate(27.596 45.081)" fill="none" stroke="#263238" stroke-linecap="round" stroke-linejoin="round" stroke-width="0.5"/>
      <line id="Line_95" data-name="Line 95" y2="1.691" transform="translate(40.752 2.597)" fill="none" stroke="#263238" stroke-linecap="round" stroke-linejoin="round" stroke-width="0.5"/>
      <line id="Line_96" data-name="Line 96" y2="36.085" transform="translate(40.752 7.427)" fill="none" stroke="#263238" stroke-linecap="round" stroke-linejoin="round" stroke-width="0.5" stroke-dasharray="4.639 4.639"/>
      <line id="Line_97" data-name="Line 97" y2="1.691" transform="translate(40.752 45.081)" fill="none" stroke="#263238" stroke-linecap="round" stroke-linejoin="round" stroke-width="0.5"/>
      <line id="Line_98" data-name="Line 98" y2="1.691" transform="translate(53.901 2.597)" fill="none" stroke="#263238" stroke-linecap="round" stroke-linejoin="round" stroke-width="0.5"/>
      <line id="Line_99" data-name="Line 99" y2="36.085" transform="translate(53.901 7.427)" fill="none" stroke="#263238" stroke-linecap="round" stroke-linejoin="round" stroke-width="0.5" stroke-dasharray="4.639 4.639"/>
      <line id="Line_100" data-name="Line 100" y2="1.691" transform="translate(53.901 45.081)" fill="none" stroke="#263238" stroke-linecap="round" stroke-linejoin="round" stroke-width="0.5"/>
      <line id="Line_101" data-name="Line 101" y2="1.691" transform="translate(67.056 2.597)" fill="none" stroke="#263238" stroke-linecap="round" stroke-linejoin="round" stroke-width="0.5"/>
      <line id="Line_102" data-name="Line 102" y2="36.085" transform="translate(67.056 7.427)" fill="none" stroke="#263238" stroke-linecap="round" stroke-linejoin="round" stroke-width="0.5" stroke-dasharray="4.639 4.639"/>
      <line id="Line_103" data-name="Line 103" y2="1.691" transform="translate(67.056 45.081)" fill="none" stroke="#263238" stroke-linecap="round" stroke-linejoin="round" stroke-width="0.5"/>
      <line id="Line_104" data-name="Line 104" x2="76.816" transform="translate(2.097 25.006)" fill="none" stroke="#263238" stroke-linecap="round" stroke-linejoin="round" stroke-width="0.5" stroke-dasharray="5"/>
    </g>
    <g id="freepik--Ampoule--inject-81" transform="translate(230.158 251.284)">
      <path id="Path_1284" data-name="Path 1284" d="M409.7,362.845V351.8H391.838v11.045l-4.281,5.864a4.863,4.863,0,0,0-.927,2.854V405.7h28.252V371.55a4.863,4.863,0,0,0-.927-2.854Z" transform="translate(-386.63 -342.385)" fill="#263238" stroke="#263238" stroke-linecap="round" stroke-linejoin="round" stroke-width="1.01"/>
      <rect id="Rectangle_1224" data-name="Rectangle 1224" width="17.796" height="1.914" transform="translate(5.283 4.349)" fill="#263238" stroke="#263238" stroke-linecap="round" stroke-linejoin="round" stroke-width="1.01"/>
      <rect id="Rectangle_1225" data-name="Rectangle 1225" width="23.051" height="4.904" transform="translate(2.611)" fill="#81d8b7" stroke="#263238" stroke-linecap="round" stroke-linejoin="round" stroke-width="1.01"/>
      <rect id="Rectangle_1226" data-name="Rectangle 1226" width="23.051" height="3.896" rx="1.27" transform="translate(2.611 6.169)" fill="#263238" stroke="#263238" stroke-linecap="round" stroke-linejoin="round" stroke-width="1.01"/>
      <rect id="Rectangle_1227" data-name="Rectangle 1227" width="18.262" height="22.74" transform="translate(0.007 31.269)" fill="#81d8b7" stroke="#263238" stroke-linecap="round" stroke-linejoin="round" stroke-width="1.01"/>
    </g>
    <g id="freepik--Device--inject-81" transform="translate(88.423 100.993)">
      <rect id="Rectangle_1228" data-name="Rectangle 1228" width="109.404" height="213.506" rx="14.52" fill="#263238"/>
      <g id="Group_819" data-name="Group 819" clip-path="url(#clip-path)">
        <path id="Path_1285" data-name="Path 1285" d="M116.489,115.68a9.429,9.429,0,0,0-9.429,9.429V319.757a9.4,9.4,0,0,0,3.382,7.23l63.83-211.307Z" transform="translate(-107.074 -115.68)" fill="#fff" opacity="0.2"/>
      </g>
      <rect id="Rectangle_1230" data-name="Rectangle 1230" width="109.404" height="213.506" rx="14.52" fill="none" stroke="#263238" stroke-linecap="round" stroke-linejoin="round" stroke-width="1"/>
      <rect id="Rectangle_1231" data-name="Rectangle 1231" width="99.678" height="186.336" transform="translate(4.87 14.502)" fill="#81d8b7"/>
      <g id="Group_821" data-name="Group 821" transform="translate(4.87 14.502)" clip-path="url(#clip-path-2)">
        <path id="Path_1287" data-name="Path 1287" d="M186.324,266.228l-15.8-14.278-15.34.264-15.34-.264-15.8,14.278L86.68,290.835v72.6H223.687v-72.6Z" transform="translate(-105.348 -174.281)" fill="#fff" stroke="#263238" stroke-linecap="round" stroke-linejoin="round" stroke-width="1.01"/>
        <path id="Path_1288" data-name="Path 1288" d="M182.811,327.784,176,337.443s8.117-3.68,15.935-6.865,17.647-13.237,19.852-16.909,5.411-9.07,5.411-9.07l-9.821-7.569h10.558s-.25-11.5-3.436-20.839" transform="translate(-134.254 -182.126)" fill="none" stroke="#263238" stroke-linecap="round" stroke-linejoin="round" stroke-width="1.01"/>
        <path id="Path_1289" data-name="Path 1289" d="M167.4,332c-1.143-.48-2.3-.96-3.456-1.427-7.839-3.186-17.647-13.237-19.852-16.909s-5.411-9.07-5.411-9.07l9.828-7.569H138s.25-11.5,3.436-20.839" transform="translate(-121.956 -182.126)" fill="none" stroke="#263238" stroke-linecap="round" stroke-linejoin="round" stroke-width="1.01"/>
        <path id="Path_1290" data-name="Path 1290" d="M163.18,253.55s-3.05,48.435,15.421,66.907c0,0,19.486-13.379,19.486-66.326Z" transform="translate(-130.044 -174.799)" fill="#fff"/>
        <g id="Group_820" data-name="Group 820" transform="translate(32.948 78.751)" clip-path="url(#clip-path-3)">
          <path id="Path_1291" data-name="Path 1291" d="M170.407,172.06h15.712A16.984,16.984,0,0,1,203.1,189.044V224.29A22.8,22.8,0,0,1,180.309,247.1h-4.058a22.8,22.8,0,0,1-22.8-22.8V189.044a16.984,16.984,0,0,1,16.984-16.984Z" transform="translate(-159.904 -227.178)" fill="#81d8b7" opacity="0.169"/>
        </g>
        <path id="Path_1294" data-name="Path 1294" d="M163.18,253.55s-3.05,48.435,15.421,66.907c0,0,19.486-13.379,19.486-66.326Z" transform="translate(-130.044 -174.799)" fill="none" stroke="#263238" stroke-linecap="round" stroke-linejoin="round" stroke-width="1.01"/>
        <path id="Path_1295" data-name="Path 1295" d="M174.71,247.45s-1.691,21.137,8.516,29.2c0,0,10.768-5.837,10.768-28.942Z" transform="translate(-133.802 -172.825)" fill="none" stroke="#263238" stroke-linecap="round" stroke-linejoin="round" stroke-width="1.01"/>
        <path id="Path_1296" data-name="Path 1296" d="M169.72,297.255l11.925-6.635,13.386,9.253" transform="translate(-132.222 -186.796)" fill="none" stroke="#263238" stroke-linecap="round" stroke-linejoin="round" stroke-width="1.01"/>
        <path id="Path_1297" data-name="Path 1297" d="M186.032,301.327l2.327-6.689-5.533-4.018-7.271,4.018,3.781,6.087-5.966,17.917a40.962,40.962,0,0,0,8.59,13.791s5.181-3.558,10.2-14.265Z" transform="translate(-133.403 -186.796)" fill="#81d8b7" stroke="#263238" stroke-linecap="round" stroke-linejoin="round" stroke-width="1.01"/>
        <circle id="Ellipse_38" data-name="Ellipse 38" cx="9.72" cy="9.72" r="9.72" transform="translate(63.742 133.43) rotate(-9.26)" fill="#fff" stroke="#263238" stroke-linecap="round" stroke-linejoin="round" stroke-width="1.01"/>
        <circle id="Ellipse_39" data-name="Ellipse 39" cx="6.987" cy="6.987" r="6.987" transform="translate(65.771 145.257) rotate(-67.65)" fill="#fff" stroke="#263238" stroke-linecap="round" stroke-linejoin="round" stroke-width="1.01"/>
        <path id="Path_1298" data-name="Path 1298" d="M224.288,319.713a1.488,1.488,0,0,1-1.488-1.488V261.118a1.488,1.488,0,0,1,2.976,0v57.107a1.481,1.481,0,0,1-1.488,1.488Z" transform="translate(-149.399 -176.767)" fill="#263238"/>
        <path id="Path_1299" data-name="Path 1299" d="M147.618,366.675h-.142c-1.353-.23-14.332-12.851-15.557-16.233s-.879-8.793-.866-9a.746.746,0,0,1,1.488.095c0,.047-.3,5.31.778,8.414.994,2.834,12.547,14.15,14.373,15.252,1.015-.318,4.735-3.652,6.087-7.068a.745.745,0,0,1,1.387.548C153.76,362.305,149.33,366.675,147.618,366.675ZM147.828,365.221ZM147.645,365.187Z" transform="translate(-119.691 -203.018)" fill="#fff" stroke="#263238" stroke-linecap="round" stroke-linejoin="round" stroke-width="1.01"/>
        <path id="Path_1300" data-name="Path 1300" d="M134.87,366.655c-1.718,0-6.142-4.369-7.575-8.029a.745.745,0,0,1,1.387-.548c1.353,3.416,5.066,6.764,6.087,7.068,1.826-1.1,13.379-12.418,14.373-15.252,1.082-3.1.785-8.367.778-8.414a.746.746,0,1,1,1.488-.095c0,.23.325,5.614-.866,9s-14.143,16.03-15.557,16.233ZM134.661,365.2ZM134.843,365.167Z" transform="translate(-118.475 -202.999)" fill="#fff" stroke="#263238" stroke-linecap="round" stroke-linejoin="round" stroke-width="1.01"/>
        <path id="Path_1301" data-name="Path 1301" d="M146.6,291.107a1.5,1.5,0,0,1-1.488-1.488V264.708a1.488,1.488,0,1,1,2.976,0v24.911a1.488,1.488,0,0,1-1.488,1.488Z" transform="translate(-124.257 -177.929)" fill="#263238"/>
        <path id="Path_1302" data-name="Path 1302" d="M151.376,331.424a1.5,1.5,0,0,1-1.488-1.488V312.012a8.536,8.536,0,0,0-17.072,0v17.911a1.488,1.488,0,1,1-2.976,0V312a11.5,11.5,0,0,1,23,0v17.924A1.5,1.5,0,0,1,151.376,331.424Z" transform="translate(-119.316 -189.993)" fill="#263238"/>
        <rect id="Rectangle_1232" data-name="Rectangle 1232" width="3.781" height="5.255" rx="1.89" transform="translate(5.827 154.115) rotate(-37.84)" fill="#fff" stroke="#263238" stroke-linecap="round" stroke-linejoin="round" stroke-width="1.01"/>
        <rect id="Rectangle_1233" data-name="Rectangle 1233" width="3.781" height="5.255" rx="1.89" transform="translate(35.011 158.255) rotate(-142.16)" fill="#fff" stroke="#263238" stroke-linecap="round" stroke-linejoin="round" stroke-width="1.01"/>
        <rect id="Rectangle_1234" data-name="Rectangle 1234" width="7.69" height="13.399" rx="3.845" transform="translate(21.022 47.448)" fill="#fff" stroke="#263238" stroke-linecap="round" stroke-linejoin="round" stroke-width="1.01"/>
        <rect id="Rectangle_1235" data-name="Rectangle 1235" width="7.69" height="13.399" rx="3.845" transform="translate(72.995 47.448)" fill="#fff" stroke="#263238" stroke-linecap="round" stroke-linejoin="round" stroke-width="1.01"/>
        <path id="Path_1303" data-name="Path 1303" d="M170.4,157.64h15.712A16.984,16.984,0,0,1,203.1,174.624V209.87a22.8,22.8,0,0,1-22.8,22.8h-4.058a22.8,22.8,0,0,1-22.8-22.8V174.624A16.984,16.984,0,0,1,170.4,157.64Z" transform="translate(-126.953 -143.761)" fill="#fff" stroke="#263238" stroke-linecap="round" stroke-linejoin="round" stroke-width="1.01"/>
        <rect id="Rectangle_1236" data-name="Rectangle 1236" width="10.389" height="2.787" rx="1.393" transform="translate(36.355 43.539)" fill="#263238" stroke="#263238" stroke-linecap="round" stroke-linejoin="round" stroke-width="1.01"/>
        <rect id="Rectangle_1237" data-name="Rectangle 1237" width="10.389" height="2.787" rx="1.393" transform="translate(56.883 43.539)" fill="#263238" stroke="#263238" stroke-linecap="round" stroke-linejoin="round" stroke-width="1.01"/>
        <path id="Path_1304" data-name="Path 1304" d="M178.424,212.655c0,1.61-.737,2.908-1.65,2.908s-1.644-1.3-1.644-2.908.737-2.915,1.644-2.915S178.424,211.045,178.424,212.655Z" transform="translate(-133.972 -160.621)" fill="#263238" stroke="#263238" stroke-linecap="round" stroke-linejoin="round" stroke-width="1.01"/>
        <path id="Path_1305" data-name="Path 1305" d="M205.8,212.655c0,1.61-.737,2.908-1.65,2.908s-1.65-1.3-1.65-2.908.737-2.915,1.65-2.915S205.8,211.045,205.8,212.655Z" transform="translate(-142.83 -160.621)" fill="#263238" stroke="#263238" stroke-linecap="round" stroke-linejoin="round" stroke-width="1.01"/>
        <path id="Path_1306" data-name="Path 1306" d="M187.134,157.64H169.366A15.956,15.956,0,0,0,153.41,173.6v37.492a21.583,21.583,0,0,0,21.583,21.583h6.547a21.576,21.576,0,0,0,21.583-21.583V173.6a15.956,15.956,0,0,0-15.99-15.956ZM199.309,205.8s0,4.559-4.559,9.124c0,0-4.816-6.338-6.845-6.845-1.312-.325-6.2-.23-9.51-.122-3.307-.108-8.2-.2-9.469.122-2.029.507-6.845,6.845-6.845,6.845-4.559-4.566-4.559-9.124-4.559-9.124V185.02l2.374-3.125a7.041,7.041,0,0,0,.331-8.211,6.723,6.723,0,0,1,.954-8.5l.047-.041a6.723,6.723,0,0,1,8.286-.839l3.544,2.78a8.793,8.793,0,0,0,10.822,0l3.531-2.78a6.764,6.764,0,0,1,8.333.839l.041.041a6.8,6.8,0,0,1,.893,8.6,7.021,7.021,0,0,0,.4,8.117l2.455,3.125Z" transform="translate(-126.943 -143.761)" fill="#263238" stroke="#263238" stroke-linecap="round" stroke-linejoin="round" stroke-width="1.01"/>
        <path id="Path_1307" data-name="Path 1307" d="M194.669,227.551s3.044-.406,3.044,1.353-1.779,3.037-5.323,1.772" transform="translate(-139.558 -166.372)" fill="#fff" stroke="#263238" stroke-linecap="round" stroke-linejoin="round" stroke-width="1.01"/>
        <path id="Path_1308" data-name="Path 1308" d="M191.241,206.36v14.7a3.044,3.044,0,0,1-3.037,3.044H185.5c-1.934.135-2.611-.338-2.841-1.157a2.029,2.029,0,0,1,.257-1.617h0c0-.758,3.233-.758,3.233-.758" transform="translate(-136.387 -159.528)" fill="#fff" stroke="#263238" stroke-linecap="round" stroke-linejoin="round" stroke-width="1.01"/>
        <path id="Path_1309" data-name="Path 1309" d="M186.579,242.985a16.132,16.132,0,0,1-8.056-2.1,1.116,1.116,0,0,1,1.19-1.887,14.319,14.319,0,0,0,13.852-.068,1.116,1.116,0,1,1,1.048,1.968,16.909,16.909,0,0,1-8.035,2.09Z" transform="translate(-134.91 -170.017)" fill="#fff" stroke="#263238" stroke-linecap="round" stroke-linejoin="round" stroke-width="1.01"/>
        <line id="Line_105" data-name="Line 105" x2="4.911" transform="translate(59.812 56.43)" fill="none" stroke="#263238" stroke-linecap="round" stroke-linejoin="round" stroke-width="1.01"/>
        <line id="Line_106" data-name="Line 106" x2="4.911" transform="translate(40.305 56.43)" fill="none" stroke="#263238" stroke-linecap="round" stroke-linejoin="round" stroke-width="1.01"/>
        <circle id="Ellipse_40" data-name="Ellipse 40" cx="8.779" cy="8.779" r="8.779" transform="translate(12.073 164.468)" fill="none" stroke="#263238" stroke-linecap="round" stroke-linejoin="round" stroke-width="0.724"/>
        <path id="Path_1310" data-name="Path 1310" d="M143.47,388.1h0a1,1,0,0,1-1-1V383.93a1,1,0,0,1,1-1h0a1,1,0,0,1,1,1V387.1a1,1,0,0,1-1,1Z" transform="translate(-122.623 -213.623)" fill="#263238"/>
        <path id="Path_1311" data-name="Path 1311" d="M142.247,392.788a1.771,1.771,0,0,1-1.767-1.767v-1.488a.183.183,0,0,1,.183-.183.179.179,0,0,1,.183.183v1.488a1.4,1.4,0,0,0,2.8,0v-1.488a.179.179,0,0,1,.183-.183.183.183,0,0,1,.183.183v1.488a1.771,1.771,0,0,1-1.771,1.767Z" transform="translate(-121.393 -217.593)" fill="#263238"/>
        <path id="Path_1312" data-name="Path 1312" d="M144.819,399.642a.179.179,0,0,1-.179-.183v-1.908a.191.191,0,0,1,.382,0v1.908a.179.179,0,0,1-.2.183Z" transform="translate(-123.965 -222.546)" fill="#263238"/>
        <path id="Path_1313" data-name="Path 1313" d="M144.062,403.006h-2.439a.187.187,0,0,1-.183-.183.183.183,0,0,1,.183-.183h2.439a.183.183,0,0,1,.183.183.187.187,0,0,1-.183.183Z" transform="translate(-121.986 -225.811)" fill="#263238"/>
        <circle id="Ellipse_41" data-name="Ellipse 41" cx="8.779" cy="8.779" r="8.779" transform="translate(70.208 164.468)" fill="none" stroke="#263238" stroke-linecap="round" stroke-linejoin="round" stroke-width="0.724"/>
        <path id="Path_1314" data-name="Path 1314" d="M231.9,388.926,229.87,390.1v-.965a.831.831,0,0,0-.831-.825h-4.588a.825.825,0,0,0-.831.826v3.7a.825.825,0,0,0,.831.831h4.588a.831.831,0,0,0,.831-.831V391.9l2.031,1.174Z" transform="translate(-148.58 -217.709)" fill="#263238"/>
        <circle id="Ellipse_42" data-name="Ellipse 42" cx="8.779" cy="8.779" r="8.779" transform="translate(41.144 164.468)" fill="#263238" stroke="#263238" stroke-linecap="round" stroke-linejoin="round" stroke-width="0.724"/>
        <path id="Path_1315" data-name="Path 1315" d="M189.6,390.519h-8.888a1.677,1.677,0,0,0-1.65,1.982l.257,1.393a.419.419,0,0,0,.406.338h2.706a.419.419,0,0,0,.419-.419v-1.508h4.667v1.508a.419.419,0,0,0,.419.419h2.706a.419.419,0,0,0,.413-.338l.257-1.393a1.677,1.677,0,0,0-1.711-1.982Z" transform="translate(-135.237 -219.125)" fill="#81d8b7"/>
      </g>
      <rect id="Rectangle_1245" data-name="Rectangle 1245" width="99.678" height="186.336" transform="translate(4.87 14.502)" fill="none" stroke="#263238" stroke-linecap="round" stroke-linejoin="round" stroke-width="1"/>
    </g>
    <g id="freepik--Floor--inject-81" transform="translate(56.458 314.498)">
      <line id="Line_107" data-name="Line 107" x2="253.04" transform="translate(13.866)" fill="none" stroke="#263238" stroke-linecap="round" stroke-linejoin="round" stroke-width="1.01"/>
      <line id="Line_108" data-name="Line 108" x2="6.689" fill="none" stroke="#263238" stroke-linecap="round" stroke-linejoin="round" stroke-width="1.01"/>
    </g>
  </g>
</svg>
