<svg xmlns="http://www.w3.org/2000/svg" xmlns:xlink="http://www.w3.org/1999/xlink" width="960" height="1080" viewBox="0 0 960 1080">
  <defs>
    <clipPath id="clip-path">
      <rect id="Rectangle_218" data-name="Rectangle 218" width="960" height="1080" fill="#56bf98" stroke="#707070" stroke-width="1"/>
    </clipPath>
  </defs>
  <g id="Mask_Group_7" data-name="Mask Group 7" clip-path="url(#clip-path)">
    <g id="Patterns" transform="translate(320 280.772)" opacity="0.248">
      <g id="Whangaehu" transform="translate(-146 -400)">
        <g id="Shape">
          <path id="Path_153" data-name="Path 153" d="M819.164,588.781c.074,19.293,29.5,40.988,42.067,52.173,24.852,22.123,50.7,42.552,76.308,63.308s51.285,41.455,75.7,64.242c15.855,14.792,34.485,31.451,45.238,52.573,22.907,45.011-49.317,38.327-68.026,39.311-47.594,2.515-102.183,1.367-146.795,24.807-26.631,13.993-37.251,37.46-31.531,71.663,1.844,11.123,7.3,23.923,2.678,34.76-4.936,11.573-16.293,18.252-25.719,22.73-34.379,16.316-73.907,18.207-110.282,20.255-39.223,2.251-78.815,1.592-117.762,1.767-16.514.073-33.762,7.314-49.488,13.2-20.616,7.714-40.989,16.378-61.435,24.756-44.98,18.387-91.329,37.753-138.918,42.423-29.8,2.926-62.375-1.03-85.526-26.478-11.624-12.777-17.708-31.772-24.428-48.645-8.135-20.384-15.947-40.966-24.608-61.029-27.9-64.619-67.731-127.763-132.382-130.936-9.78-.478-19.386,1.08-29.12,1.373-6.2.18-11.716-1.648-14.021-9.565-5.794-19.855,12.417-51.2,19.884-66.954C37.352,740.029,55.788,707.092,73.058,673.3c11.426-22.348,31.2-52.888,31.411-80.041.184-24.193-26.18-41.68-40.532-53.6-13.449-11.157-37.818-26.77-39.292-49.467-.714-11.005,5.231-20.125,11.44-27.2,10.882-12.378,23.419-21.11,33.208-35.232,16.053-23.169,29.466-55.048,27.286-86.269-1.512-21.633-11.624-35.8-24.488-49.343-5.406-5.694-9.794-9.722-10.08-18.966-.461-14.679,4.25-30.214,8.13-43.824,13.883-48.707,33.6-95.806,55.535-139.781,10.96-21.977,22.8-43.886,37.334-62.633C172.527,14.634,185.363-.017,199.882,0c16.809,0,34.6,7.4,50.935,12.941,30.517,10.347,60.665,22.308,90.693,34.58q104.165,42.586,206.372,92.07c47.995,23.276,97.008,46.586,142.13,77.531a163.264,163.264,0,0,1,24.806,21.161c8.227,8.4,18.436,12.159,28.788,14.96,64.251,17.391,134.641,4.04,199.159-4.332,16.376-2.121,32.752-4.254,49.174-5.739,14.118-1.277,31.019-4.94,44.74.563,27.037,10.831,3.4,50.75-6.591,67.016-35.181,57.271-80.571,105.725-122.643,155.192-20,23.558-40.159,47.053-59.075,71.944C838.522,550.826,819.1,571.868,819.164,588.781Z" transform="translate(1293.132 1117.573) rotate(180)" fill="none" stroke="#fff" stroke-width="5" fill-rule="evenodd"/>
          <path id="Path_154" data-name="Path 154" d="M771.518,557.194c10.783,20.415,29.7,35.5,45.408,49.7,22.6,20.443,45.91,39.749,68.87,59.613,21.71,18.784,43.466,37.781,63.571,59.112,12.259,13.008,27.641,28.564,33.448,47.8,12.6,41.7-55.167,35.374-71.9,36.465-41.589,2.7-88.74,3.318-127.215,25.274-24.025,13.711-33.9,36.448-28.771,68.015,1.771,10.922,4.963,20.246.922,31.111-4.672,12.575-15.419,20.415-25.27,25.949-30.861,17.338-67.339,21.022-100.791,24.087-34.56,3.166-70.567,5.4-104.015,3.082-13.376-.922-28.771,4.314-42.008,8.329-20.368,6.186-40.528,13.323-60.794,19.959-41.187,13.5-83.445,26.5-126.293,27.979-30.934,1.068-63.188-4.724-88.924-27.113-26.082-22.7-37.654-57.9-52.118-91.354C130.66,867.367,96.922,797.041,39.13,784.82c-8.763-1.856-17.185-.849-25.939-1.3-4.5-.231-9.626-.962-11.909-6.377-5.927-14.06,10.313-39.766,15.779-50.536,15.1-29.761,32.078-58.066,47.9-87.254,12.568-23.176,28.5-48.928,33.36-76.4,5.9-33.338-32.645-57.06-46.2-80.534-23.5-40.706,21.023-63.9,42.972-83.306,25.206-22.282,46.012-62.931,23.416-97.405-8.643-13.182-19.279-21.039-23.14-38.242-6.037-26.9-1.471-57.65,3.427-84.246,7.38-39.98,19.058-79.527,34.933-115.66C145.106,37.684,163.974-2.881,191.606.162c18.6,2.03,37.511,9.448,55.624,16.006,27.12,9.814,53.9,21,80.534,32.618,61.486,26.747,122.294,56.239,181.907,88.677C550.347,159.6,663.808,250.086,672.346,253.314c25.455,9.617,54.4,7.924,80.641,6.434,34.91-1.98,69.645-7.109,104.352-11.861,16.521-2.25,33.125-5,49.734-6.108,11.821-.787,27.346-1.462,37.7,6.923,20.211,16.36-2.306,53.792-11.618,69.629-28.527,48.551-64.613,90.595-98.448,133.584-16.6,21.106-33.462,42.179-48.535,64.978C780.092,526.1,764.853,544.586,771.518,557.194Z" transform="translate(1257.611 1082.734) rotate(180)" fill="none" stroke="#fff" stroke-width="5" fill-rule="evenodd"/>
          <path id="Path_155" data-name="Path 155" d="M723.81,508.234c29.449,40.852,70.1,71.235,105.176,105.353,17.607,17.129,35.325,34.726,50.511,55.129,7.9,10.61,17.764,24.026,19.286,38.816,4.067,39.564-57.008,34.214-75.289,35.716-35.343,2.914-75.27,5.125-107.334,25.314-19.59,12.342-29.237,32.6-25.576,59.225,1.623,11.813,4.15,21.849,0,33.449-4.206,11.752-12.968,20.044-21.84,26.26-25.5,17.878-57.183,23.593-85.891,27.852a569.29,569.29,0,0,1-101.514,5.794c-29.7-.951-59.254,9.743-88.252,16.792-38.414,9.333-77.525,17.484-116.834,16.252-31.045-.979-62.335-8.669-88.874-29.106-26.968-20.814-43.183-51.968-57.8-85.585-22.1-50.82-49.639-118.922-98.12-138.223-7.051-2.813-13.623-3.122-20.9-3.612-3.532-.236-8.093-.309-9.846-4.8-4.215-10.823,11.368-31.806,15.716-39.119C30.313,630.39,45.361,608.1,59.587,585.06c13.281-21.506,27.748-43.918,36-69.12C108.714,475.8,66.74,452.333,67.916,414.086c.733-23.745,19.369-40.773,34.126-52.553,18.17-14.486,44.331-24.009,53.425-50.443,6.774-19.689-3.855-31.148-12.041-46.089-13.872-25.314-14.817-59.63-13.374-88.933,1.946-39.6,9.551-79.78,22.5-116.177,5.866-16.5,13.051-33.663,23.63-46.477C186.087,1.4,195.467-1.673,208.712.785,249.257,8.323,290.194,29.334,329.074,48.1a1489.891,1489.891,0,0,1,143.766,78.908c31.871,19.976,64.461,41.111,92.434,68.709,7.291,7.195,14.757,15.014,20.088,24.5,4.031,7.133,5.741,13.023,12.534,17.1,20.134,12.067,48.14,8.911,69.713,7.656,34.494-2,68.823-7.313,103.106-12.1,20-2.813,57.691-11.662,73.665,9.563,13.789,18.328-2.85,49.577-11.349,65.722-21.5,40.829-49.155,76.664-74.813,113.561-11.76,16.91-23.98,33.949-33.692,52.75-2.481,4.793-6.456,11.144-7.139,16.966C716.621,498.108,720.195,503.2,723.81,508.234Z" transform="translate(1224.821 1023.303) rotate(180)" fill="none" stroke="#fff" stroke-width="5" fill-rule="evenodd"/>
          <path id="Path_156" data-name="Path 156" d="M676.193,449.539c27.212,36.121,60,65.8,89.21,99.6,13.1,15.155,26.327,31.054,36.308,49.542,5.369,9.942,11.07,22.457,9.589,34.815-4.248,35.468-54.48,32.264-74.774,34.342-30.155,3.051-64.8,6.125-91.461,25.25-17.467,12.526-24.016,31.026-20.755,54.885,3.5,25.593-4.326,44.171-22.139,58.448-22.333,17.886-50.523,25.176-76.453,30.356A432.6,432.6,0,0,1,431.194,845c-30.778-.721-60.6,5.573-91.171,9.666-40.537,5.421-82.375,8.1-122.456-3.018-34.9-9.678-66.417-31-90.045-63.982-24.68-34.42-36.9-77.787-56.938-115.866-12.5-23.752-29.929-55.172-53.285-64.4-7.79-3.079-21.987,1.075-15.765-14.074,3.556-8.664,10.212-16.264,15.47-23.347,8.5-11.445,17.273-22.575,25.912-33.863,18.412-24.062,38.13-48.636,51.929-77.128,17.388-35.873-8.459-63.481-5.309-99.855,1.693-19.575,12.845-35.2,24.643-47.47A202.138,202.138,0,0,1,138.694,290.4c8.906-6.711,19.445-11.823,27.212-20.5,11.069-12.346,6.263-26.961,4.188-42.921a420.468,420.468,0,0,1-2.389-84.829c2.527-34.674,8.454-70.338,20.94-101.848,4.857-12.267,11.009-25.272,20.146-33.5s18.587-7.662,29.057-5.185c31.054,7.319,62.044,24.349,91.5,40.489a921.061,921.061,0,0,1,107.535,68.475c23.827,17.734,47.732,36.892,67.666,60.937a137.244,137.244,0,0,1,15.774,22.857c3.063,5.737,4.7,13.14,9.141,17.452,13.883,13.461,41.755,9.441,58.036,8.659,32.493-1.559,64.475-8.974,96.927-10.775,17.711-.985,45.449-3.462,58.456,14.941,12.232,17.3,1.153,44.548-6.157,61.218-14.367,32.777-33.669,61.978-50.97,92.447-7.112,12.538-14.907,25.655-19.515,39.971C662.149,431.046,669.219,440.278,676.193,449.539Z" transform="translate(1179.736 974.119) rotate(180)" fill="none" stroke="#fff" stroke-width="5" fill-rule="evenodd"/>
          <path id="Path_157" data-name="Path 157" d="M629.88,386.785c21.66,31.785,47.772,60,69.589,92.3,12.77,18.917,34.762,50.719,24.886,77.388-10.835,29.306-48.6,30.1-70.432,32.465-25.983,2.811-56.5,6.651-78.732,24.949-7.033,5.785-13.024,13.442-15.563,23.527-2.719,10.794.254,20.238.641,31.043.811,22.667-10.277,40.864-24.951,53.361-20.738,17.669-46.671,26.023-71.165,31.847a357.7,357.7,0,0,1-84.23,9.669c-27.015-.112-53.745.618-80.788,1.462-35.366,1.124-71.23-.691-105.536-12.154-33.794-11.3-64.52-32.477-88.655-63.626-23.545-30.4-39.431-67.55-53.344-105.4-7.894-21.481-21.232-53.581-40.062-64.43-8.374-4.829-16.591-4.5-7.687-17.056,11.213-15.814,26.324-28.5,39.311-42.028C61.895,440.591,81.1,420.69,96.823,397.483c10.042-14.819,14.517-29.2,13.826-48.386-.535-14.616-2.959-29.081-1.733-43.754,2.871-34.438,25.1-58.055,44.749-80.047,12.641-14.144,24.186-24.932,30.693-45.052,7.7-23.78,10.927-49.651,16.07-74.341,5.65-27.113,12.176-55.318,24.508-79.2,10.978-21.261,24.328-30.8,44.311-25.067C300.415,10.564,331.135,32.556,358.8,52.9c28.163,20.7,55.842,43.973,79.179,72.424,12.6,15.364,21.2,33.4,32.389,49.909,14.074,20.722,45.915,12.874,64.838,11.12,31.412-2.912,130.251-24.7,121.131,45.873-3.807,29.458-18.8,56.644-29.762,82.639-4.544,10.788-11.12,23.735-12.148,36.1C613.312,364.428,623.368,377.217,629.88,386.785Z" transform="translate(1140.115 911.956) rotate(180)" fill="none" stroke="#fff" stroke-width="5" fill-rule="evenodd"/>
          <path id="Path_158" data-name="Path 158" d="M586.337,330.8c16.552,28.8,36.361,56.016,50.564,87.126,9.214,20.147,18.261,47.067,6.376,68.384-13.415,24.057-43,29.664-64.73,32.73-22.394,3.155-49.127,5.81-67.43,24.051-5.823,5.81-10.623,13.645-11.517,23.027-.861,9,1.571,18,.765,27.161-1.806,20.575-12.028,37.528-25.208,49.823-38.987,36.375-97.015,44.463-144.055,45.413-23.545.472-47.777-2.008-71.474-3.785-30.75-2.306-61.547-7.256-90.874-19.186C106.4,640.192,64.608,583.957,35.419,513.981,26.233,491.955,19.2,468.123,4.807,450.423c-7.422-9.14-5.8-15.7,1.787-24.04,11.863-13.027,26.332-22.982,39.5-33.855,18.727-15.462,37.854-31.155,54.415-49.677,11.416-12.768,19.519-25.069,21.979-44.215,1.755-13.651,1.345-27.561,2.4-41.3,2.009-26.093,8.887-51.988,21.062-73.632,9.674-17.155,21.191-32.747,33.1-47.613a358.843,358.843,0,0,0,40.314-61.989c15.58-30.407,37.472-86.5,74.169-71.652,40.475,16.379,78.412,58,104.381,98.319,8.721,13.538,15.88,30.142,27.641,40.126,17.607,14.922,35.472,14.4,56.415,14.337,31.354-.084,99.581-8.392,100.318,48.934.29,22.712-7.762,44.187-11.618,66.033C566.316,294.671,575.032,311.173,586.337,330.8Z" transform="translate(1108.009 858.673) rotate(180)" fill="none" stroke="#fff" stroke-width="5" fill-rule="evenodd"/>
          <path id="Path_159" data-name="Path 159" d="M548.05,287.248c16.373,37.541,53.086,99.228,25.162,140.973-14.75,22.061-40.839,30.352-62.724,35.292-17.612,4-38.852,5.5-52.159,22.438-9.781,12.456-5.439,30.582-9.186,46.174-4.651,19.33-15.326,35.146-28.444,47.034-36.658,33.224-87.628,43.42-131.726,45.59-45.8,2.248-96.262-8.268-139.359-28.5C95.878,571.021,55.62,523.245,27.466,462.744c-5.195-11.168-9.915-22.629-14.9-33.932-3.351-7.582-8.32-14.917-10.961-22.893-4.4-13.3.784-24.169,9.09-32.836C22.64,360.6,37.316,351.724,50.937,342.359c18.626-12.815,37.668-25.4,54.994-40.435,11.643-10.117,23.83-21.016,28-38.569,2.844-11.972,3.434-24.652,3.333-37.052-.221-26.586.922-48.085,11.09-72.434,16.732-39.974,42.461-75.919,69.643-105.827C239.325,24.571,273.08-11.891,304.161,3.8c27.887,14.052,44.2,47.686,62.572,74.879,8.933,13.22,18.967,25.293,30.758,34.7,14.865,11.854,28.859,16.828,46.471,18.767,29.643,3.266,74.34,4.114,83.5,47.506,3.383,16.013,1.452,32.6,3.227,48.821C533.01,249.921,539.79,268.312,548.05,287.248Z" transform="translate(1082.051 817.686) rotate(180)" fill="none" stroke="#fff" stroke-width="5" fill-rule="evenodd"/>
          <path id="Path_160" data-name="Path 160" d="M507.117,256.485c11.659,41.077,26.975,92.845-1.184,129.352-13.639,17.685-32.825,27.572-51.393,34.96-13.3,5.295-34.414,6.854-42.567,23.132-5.988,11.98-6.817,28.506-12.234,41.341a117.689,117.689,0,0,1-31.95,43.558c-34.465,29.648-79.354,41.1-120.29,44.385C158.55,580.332,68.045,523.641,20.447,430.369c-14.192-27.8-32.512-57.395-9.577-85.8,25.04-30.988,62.761-45.505,92.647-67.523,11.419-8.407,25.971-18.513,32.341-33.734,3.832-9.149,4.1-20.628,4.27-30.7.461-25.653,2.206-48.724,10.659-72.661,13.054-36.992,33.87-71.119,57.46-99.074,20.572-24.376,49.91-53.023,79.786-35.45,22.907,13.5,37.436,42.168,55.235,63.3,19.807,23.532,44.3,39.389,71.2,47.137,26.169,7.518,54.871,12.587,68.662,44.526,4.731,10.956,9.673,25.141,11.447,37.267a441.914,441.914,0,0,0,12.534,58.83Z" transform="translate(1058.142 788.312) rotate(180)" fill="none" stroke="#fff" stroke-width="5" fill-rule="evenodd"/>
          <path id="Path_161" data-name="Path 161" d="M466.275,213.159c5.394,41.479,5.993,84.73-19.067,117.421-11.7,15.251-26.479,26.087-41.43,35.9-11,7.223-22.358,13.316-30.573,25.158-7.611,10.965-13.4,23.7-20.745,34.947a160.727,160.727,0,0,1-34.349,38.227c-32.731,26.042-72.547,38.221-110.638,42.446-18.44,2.053-38.442,3.122-56.757-2.475-17.688-5.4-35.178-13.941-51.442-23.9C66.7,459.742,36.735,428.772,15.013,389.617.118,362.759-7.935,336.645,11.353,309.4c21.745-30.711,55.84-47.656,83.942-67.588,19.274-13.671,40.876-27.071,44.477-56.123,2.867-23.116,5.2-45.057,12.613-66.907,11.039-32.23,27.271-61.426,47.731-85.855C218.827,10.671,242.5-8.215,269.265,3.672c21.206,9.434,37.659,30.57,56.186,45.681,20.648,16.877,43.333,26.182,67.222,33.665,21.468,6.751,41.683,17.125,55.559,39.15a109.93,109.93,0,0,1,8.012,14.436c2.794,6.425,2.577,12.793,3.125,19.994C460.8,175.6,463.836,194.386,466.275,213.159Z" transform="translate(1036.282 745.276) rotate(180)" fill="none" stroke="#fff" stroke-width="5" fill-rule="evenodd"/>
          <path id="Path_162" data-name="Path 162" d="M424.168,164.633c-.461,39.4-8.225,76.634-29.49,107.338-9.091,13.135-19.947,23.954-29.951,35.99-8.054,9.7-15.667,18.719-24.928,26.715-21.97,18.933-39.825,43.433-63.173,60.293-31.167,22.539-66.868,35-102.293,39.979-17.3,2.434-35.167,3.285-52.667.535-15.031-2.361-29.425-10.65-42.779-19.13C52.716,399.74,27.3,376.13,10.31,346.26c-37.466-65.854,36.4-113.733,74.314-141.772,17.436-12.9,44.078-27.836,51.22-53.384,5.105-18.251,8.216-36.812,14.791-54.5C168.3,49.1,204.151-6.767,251.929.671c20.445,3.178,39.079,16.087,58.164,24.754,19.652,8.926,39.936,13.9,60.362,19.361,19.09,5.1,34.3,12.357,46.635,31.814,5.893,9.292,5.373,20.415,5.9,31.814C423.846,127.139,424.375,145.97,424.168,164.633Z" transform="translate(1015.106 693.359) rotate(180)" fill="none" stroke="#fff" stroke-width="5" fill-rule="evenodd"/>
          <path id="Path_163" data-name="Path 163" d="M382.567,121.178c-7.676,59.469-36.184,124.392-78.1,158.928-49.307,40.626-102.725,74.836-161.636,84.671-27.313,4.56-57.232,6.8-83-8.108-19.614-11.342-42.4-28.295-53.191-52.136-26.409-58.316,32.332-104.739,65.8-131.719,18.018-14.524,40.953-28.677,54.534-49.887,7.879-12.3,11.9-28.565,18.262-42.071,19.277-40.93,51.01-73.942,90.537-79.846,18.276-2.727,36.686.647,54.824,3.329,18.567,2.744,37.365,4.234,55.816,8.063,14.729,3.059,32.087,8.238,37.512,27.474C390.759,64.116,385.7,96.893,382.567,121.178Z" transform="translate(992.563 644.858) rotate(180)" fill="none" stroke="#fff" stroke-width="5" fill-rule="evenodd"/>
          <path id="Path_164" data-name="Path 164" d="M342.7,99.991C331.506,155.9,307.8,210.439,267.95,243.817c-21.133,17.7-45.666,29.917-69.219,41.988-26.7,13.681-54.593,24.3-83.083,29.568-35.473,6.562-92.924,12.477-111.457-36.85C-14.2,229.562,32.279,186.229,59.767,161.535,77.391,145.716,96.252,131.2,113.09,113.9c9.13-9.376,16.164-20.209,23.89-31.205,21.355-30.468,51.8-54.588,82.829-67.464C249.883,2.751,287.088-2.775,318.834,1.35c13.7,1.773,23.488,7.755,27.631,24.762C352.205,49.753,347.329,76.9,342.7,99.991Z" transform="translate(971.386 614.118) rotate(180)" fill="none" stroke="#fff" stroke-width="5" fill-rule="evenodd"/>
          <path id="Path_165" data-name="Path 165" d="M299.538,89.775c-11.121,49.227-35.108,94.19-70.1,123.735C190.221,246.63,139.718,265.035,93.3,274.394c-24.674,4.971-78.142,18.449-90.718-20.125s23.78-76.587,44.705-97.513c25.4-25.359,52.778-49.844,80.127-72.6,23.762-19.783,49.117-40.008,74.854-55.285A245.039,245.039,0,0,1,247.451,7.729C258.964,3.762,273.6-2.156,285.673.8,316.116,8.256,304.857,66.237,299.538,89.775Z" transform="translate(946.794 588.843) rotate(180)" fill="none" stroke="#fff" stroke-width="5" fill-rule="evenodd"/>
          <path id="Path_166" data-name="Path 166" d="M253.389,77.875c-24.4,93.095-101.71,138.88-176.146,154.839-17.3,3.7-65.786,17.061-75.454-11.378-9.369-27.573,20.428-60.272,34.378-75.764C79.393,97.566,132.8,61.972,183.4,26.709,199.2,15.7,227.69-8.182,247.284,2.836,268.559,14.82,258.444,58.571,253.389,77.875Z" transform="translate(923.568 562.202) rotate(180)" fill="none" stroke="#fff" stroke-width="5" fill-rule="evenodd"/>
          <path id="Path_167" data-name="Path 167" d="M201.754,61.637c-21.22,68.557-82.941,107.877-139.687,120.84-13.9,3.172-49.2,13.047-59.725-6.085-9.742-17.7,13.506-43.341,22.2-53.531C43.909,100.17,66.857,81.477,89.528,63.51c20.962-16.623,42.149-33.663,64.206-47.722C165.35,8.387,187.139-7.4,200.34,4.023,214.553,16.317,206.465,46.414,201.754,61.637Z" transform="translate(896.927 528.046) rotate(180)" fill="none" stroke="#fff" stroke-width="5" fill-rule="evenodd"/>
          <path id="Path_168" data-name="Path 168" d="M141.422,42.73c-16.174,44.771-59.491,73.843-97.7,83.5-10.282,2.594-32.5,9.323-41.178-2.633-7.985-11.011,4.884-27.154,10.6-34.609C38.452,55.946,75.521,26.429,109.486,8.3c8.54-4.558,23.891-13.5,32.675-4.3C151.172,13.443,145.137,32.45,141.422,42.73Z" transform="translate(864.138 489.109) rotate(180)" fill="none" stroke="#fff" stroke-width="5" fill-rule="evenodd"/>
          <path id="Path_169" data-name="Path 169" d="M75.315,21.232c-9.114,22.231-32.933,39-52.665,44.343C8.765,69.33-7.927,66.087,4.175,46.735,16.2,27.531,38.5,9.992,57.411,2.216,71.836-3.714,83.141,2.136,75.315,21.232Z" transform="translate(827.25 448.805) rotate(180)" fill="none" stroke="#fff" stroke-width="5" fill-rule="evenodd"/>
          <path id="Path_170" data-name="Path 170" d="M440.708,280.539c.585,43.921,19.708,89.568,10.264,134.321-7.755,36.755-46.8,39.824-70.221,56.477-18.613,13.23-29.176,36.666-39.241,59.152-9.044,20.187-17.167,40.982-26.695,60.838-6.167,12.836-16.758,38.042-30.133,38.5-12.8.438-24.545-19.2-31.983-30.815-9.7-15.135-18.3-31.27-27.712-46.647-15.87-25.937-34.91-45.135-56.713-63.3q-37.216-31.012-75.661-59.9c-18.87-14.224-37.87-28.342-56.008-43.972C25.227,375.372.116,356.972,0,338.892c-.055-8.627,6.642-18.181,11.157-25.077,7.64-11.673,16.348-22.346,25.084-32.788,16.27-19.451,33.23-38.02,50.007-56.814,21.775-24.391,42.574-48.383,61.715-76.074,19.791-28.663,38.7-58.269,57.992-87.471,13.067-19.783,26.119-42,44.967-54.139,23.606-15.174,42.983.826,66.857,1.012,20.537.163,19.022,58.252,21.632,74.4,2.619,16.349,8.39,31.568,10.627,47.956,2.789,20.457,2.826,41.387,3.512,62.063.833,25.29,1.164,49.367,23.307,59.011,12.6,5.48,26.234,6.632,39.278,9.914C424.585,263.021,440.524,266.663,440.708,280.539Z" transform="translate(453.587 862.088) rotate(180)" fill="none" stroke="#fff" stroke-width="5" fill-rule="evenodd"/>
          <path id="Path_171" data-name="Path 171" d="M408.069,246c2.153,36.817,14.87,83.939,2.844,121.944-10.275,32.477-42.408,36.687-64.045,53.748-17.862,14.072-25.813,37.1-34.742,59.72-7.163,18.147-14.11,36.468-22.241,54.035-5.992,12.946-15.142,34.8-27.6,37.481-11.2,2.409-23.214-16.886-29.5-26.7-9.173-14.33-17.018-29.894-25.122-45.13C193.422,474.329,178.842,450.261,158,430.6c-20.932-19.745-43.832-34.509-66.976-49.875C72.92,368.7,54.906,356.331,37.7,342.451,24.889,332.117,6.465,318.889.6,300.461c-4.642-14.578,18.9-38.77,25.841-47.309,14.289-17.556,29.432-34.036,44.6-50.415,18.493-19.959,37.577-37.413,53.908-60.181,29.211-40.706,53.627-91.4,91.213-121.651,22.67-18.248,47.9-22.914,73.112-20.184,9.984,1.081,12.381,18.287,13.64,28.323,2.093,16.672,2.355,33.631,3.964,50.37,1.507,15.67,4.854,30.558,7.55,45.924,2.729,15.569,3.494,31.52,5.5,47.2,1.245,9.732,2.475,21.057,7.919,28.88,5.633,8.1,14.926,11.494,23.048,14.072C366.154,220.282,406.547,220.017,408.069,246Z" transform="translate(431.044 819.735) rotate(180)" fill="none" stroke="#fff" stroke-width="5" fill-rule="evenodd"/>
          <path id="Path_172" data-name="Path 172" d="M360.919,201.3c3.62,33.8,8.689,75.887-6.06,107.023-12.055,25.459-37.766,30.951-56.13,47.539-15.274,13.795-21.044,35.734-28.626,56.123-6.221,16.723-12.475,33.52-20.015,49.433-5.719,12.069-13.088,28.432-24.443,32.643-9.708,3.6-20.675-12.519-26.057-20.54-9.164-13.671-16.635-28.989-24.055-44.1-12.138-24.734-23.308-51.153-40.584-71.272-16.787-19.523-36.729-31.046-57.044-44-15.56-9.927-31.024-20.237-45.685-32.075C20.963,272.979,7.013,262.215,1.146,247.1-3.927,234.063,9.1,218.633,15.6,209.436c10.746-15.177,22.672-29.1,34.432-43.081,12.692-15.082,26.749-28.994,39.03-44.447,25.826-32.519,46.459-68.523,78.29-93.437C187.971,12.333,215.711-2.328,240.08.309c17.525,1.9,16.372,49.242,18.055,64.369,2.767,24.734,8.112,50.721,16.6,73.5,7.291,19.523,24.618,25.543,40.556,29.922,9.985,2.749,20.449,4.233,30.106,8.482C356.579,181.51,359.4,187.131,360.919,201.3Z" transform="translate(396.889 759.621) rotate(180)" fill="none" stroke="#fff" stroke-width="5" fill-rule="evenodd"/>
          <path id="Path_173" data-name="Path 173" d="M307.128,153.608c2.156,28.572,1.671,62.359-12.292,87.075-12.236,21.649-34.023,27.349-49.518,44.4-12.093,13.305-16.843,35-23.346,52.594-7.948,21.514-19.086,61.248-39.137,69.344-18.652,7.526-38.158-40.552-44.911-54.889-10.69-22.692-19.631-47.577-32.6-68.532-11.165-18.041-26.125-28.014-42-38.731-20.245-13.688-50.981-29.919-61.8-56.6-8.068-19.879,18.168-49.432,27.127-63.2,9.37-14.387,16.427-31.442,26.1-45.322,15.26-21.9,39.986-39.537,60.4-52.995C134.994,13.663,160.768-.826,183.283.037,198.082.6,200.9,28.5,204.054,42.122c4.523,19.371,10.538,36.73,23.457,49.905,13.15,13.412,28.65,19.732,44.943,25.263,8.364,2.819,17.9,5.018,25.386,10.712C306.108,134.2,306.3,142.626,307.128,153.608Z" transform="translate(355.219 696.092) rotate(180)" fill="none" stroke="#fff" stroke-width="5" fill-rule="evenodd"/>
          <path id="Path_174" data-name="Path 174" d="M252.056,113.379c-.12,24.684-4.743,51.006-18.454,70.047-11.419,15.859-29.293,21.161-40.224,37.374-8.659,12.836-13.066,30.855-18.863,45.761-7.09,18.266-17.115,50.176-34.745,56.515-17.207,6.171-32.426-28.976-39.024-42.883-9.662-20.392-17.483-42.008-27.232-62.344C65.877,201.894,56.538,191.61,44.1,181.327,29.5,169.249,9.136,155.869,1.338,135.886-4.284,121.418,9.325,98.3,14.266,85.553c3.313-8.561,6.344-17.256,8.01-26.535C23.573,51.792,23.7,45.1,27.461,38.9c9.464-15.607,30.213-17.644,44.292-22.788,18.7-6.827,38.536-14.586,58.1-16.067,12.026-.926,18.164,12.6,25.028,22.115,8.111,11.248,19.595,19.338,29.624,27.826,13.236,11.22,27.641,18.2,42.543,25.346,6.722,3.226,14.617,6.39,19.825,12.8C252.314,94.781,252.1,104.47,252.056,113.379Z" transform="translate(314.915 639.394) rotate(180)" fill="none" stroke="#fff" stroke-width="5" fill-rule="evenodd"/>
          <path id="Path_175" data-name="Path 175" d="M205.122,94.56c-2.376,20.731-9.782,40.546-22.29,55.2-9.589,11.252-22.323,17.586-30.018,31.105-7.171,12.6-12.168,26.931-18.09,40.4-6.268,14.245-15.58,38.053-30.037,41.93-15.58,4.174-27.582-19.842-34.228-33.153-8.4-16.821-14.774-34.92-22.281-52.32a148.915,148.915,0,0,0-21.4-35.19c-8.948-10.92-21.084-21.378-25.611-36.394-4-13.3,3.486-29.389,4.808-42.875,1.414-14.408-1.064-29.541,6.775-41.913C28.913-4.157,69.482.574,92.675.029c22.885-.563,41.283,15.049,59.8,29.9,12.232,9.806,24.971,18.11,37.511,27.246C202.773,66.5,207.213,76.315,205.122,94.56Z" transform="translate(283.492 605.921) rotate(180)" fill="none" stroke="#fff" stroke-width="5" fill-rule="evenodd"/>
          <path id="Path_176" data-name="Path 176" d="M171.584,91.4c-7.028,30.034-28.977,46-44.668,68.693-12.839,18.581-22.465,57.061-44.087,62.151-24.548,5.777-39.244-45.208-47.778-64.882C25.581,135.541,8.715,117.794,1.7,94.7-1.986,82.574,1.18,71.262,3.143,59.145,5.3,45.84,6.913,32.237,14.341,21.527,28.963.452,57.52.6,78.087.018c21.29-.6,40.124,13.84,57.087,28.254C153.165,43.537,178.782,60.6,171.584,91.4Z" transform="translate(264.365 590.893) rotate(180)" fill="none" stroke="#fff" stroke-width="5" fill-rule="evenodd"/>
          <path id="Path_177" data-name="Path 177" d="M143.419,85.879c-7.919,21.4-24.559,38.794-38.062,55.216-11.27,13.691-23.394,41.251-40.578,43.216-20.2,2.317-32.436-27.113-40.383-45.158C16.574,121.421,5.3,102.7.974,83.237c-4.516-20.273,7.51-47.576,18.98-61.922C32.746,5.319,53.676-.592,71.634.046c18.8.649,36.057,13.87,50.3,27.583C137.157,42.288,152.628,61.039,143.419,85.879Z" transform="translate(247.97 577.23) rotate(180)" fill="none" stroke="#fff" stroke-width="5" fill-rule="evenodd"/>
          <path id="Path_178" data-name="Path 178" d="M115.419,77.612c-7.564,17.8-20.676,32.853-32.765,46.282-9.33,10.368-23.1,28-36.557,28.429C31.29,152.8,18.74,138,12.853,122.834,7.05,107.874.936,89.118.067,72.705-1.819,36.965,36.586-3.071,65.425.186,92.769,3.276,130.5,42.151,115.419,77.612Z" transform="translate(230.892 564.934) rotate(180)" fill="none" stroke="#fff" stroke-width="5" fill-rule="evenodd"/>
          <path id="Path_179" data-name="Path 179" d="M90.29,67.278C79.855,90.467,54.508,123.525,31.042,124.31,4.107,125.208-2.655,88.42.856,61.76,4.422,34.55,35.477-4.834,60.239.488,84.406,5.681,102.657,39.777,90.29,67.278Z" transform="translate(215.864 552.638) rotate(180)" fill="none" stroke="#fff" stroke-width="5" fill-rule="evenodd"/>
          <path id="Path_180" data-name="Path 180" d="M68.012,54.633C59.177,74.048,40.324,98.3,20.66,99.033-2.769,99.9-2.327,68.843,2.986,49.511,8.51,29.44,32.842-4.841,53.358.572,73.307,5.856,76.479,36.024,68.012,54.633Z" transform="translate(204.251 536.244) rotate(180)" fill="none" stroke="#fff" stroke-width="5" fill-rule="evenodd"/>
          <path id="Path_181" data-name="Path 181" d="M47.11,39.106C41.279,52.96,26.683,70.47,12.808,71.03-4.151,71.7-.855,47.069,3.527,35.179,8.736,21.031,26.194-3.553,40.845.431,55.269,4.353,51.922,27.692,47.11,39.106Z" transform="translate(192.638 518.483) rotate(180)" fill="none" stroke="#fff" stroke-width="5" fill-rule="evenodd"/>
          <path id="Path_182" data-name="Path 182" d="M202.932,192.291c37.538-27.8,79.974-50.739,119.992-74.059C381.4,84.157,440.744,51,502.192,25.614,535.136,12.009,577.826-7.607,613.175,3.053c12.924,3.9,24.711,15.68,36.3,23.337,15.979,10.558,32.193,20.594,48.38,30.651,32.47,20.161,65.041,40.119,96.953,61.573,15.366,10.333,30.277,23.348,46.274,32.164,9.349,5.155,20.536,2.744,30.525,2.417,23.139-.759,46.265-2.2,69.391-3.424,28.286-1.5,56.637-3.086,84.955-2.5,12.772.27,44.053-2.5,51.085,10.929,3.783,7.23-5.133,20.268-9.266,26.3-7.589,11.087-16.311,21.077-24.918,30.966-19.9,22.871-41.045,44.65-58.738,70.2-9.091,13.133-21,29.178-15.067,47.107,5.99,18.109,16.366,33.789,22.7,51.835,7.289,20.768,10.312,42.379,13.754,64.4,2.548,16.276,8.483,30.7,14.062,45.7,6.165,16.585,12.551,33.311,16.832,50.8,2.829,11.553,7.4,32.338-2.5,39.652-14.062,10.4-40.432,1.979-56.462-1.085-22.154-4.228-44.146-9.614-66.239-14.252-16.039-3.373-32.133-7.072-48.44-7.466-26.286-.635-52.66,1.563-78.878,3.609-48.546,3.789-96.744,8.928-145.453,8.928-42.675,0-141.293-60.252-164.377-70.86-46.076-21.178-93.378-41.255-136.98-69.432-11.8-7.629-29.95-17.794-36.156-33.5-3.829-9.676-2.069-15.269-11.1-21.5-12.321-8.506-28.106-11.846-41.745-15.652-21.965-6.128-44.1-11.317-66.165-16.866C137.268,335.9,92.943,323.235,48.5,311.052c-13.436-3.682-29.691-4.5-42.5-10.985-8.257-4.166-7.4-9.411-1.009-15.742,11.21-11.109,26.922-17.277,40.165-23.613,19.4-9.282,39.123-17.563,58.853-25.727s39.561-16.073,59.3-24.253C176.346,205.346,191.214,200.966,202.932,192.291Z" transform="translate(1146.263 1463.228) rotate(180)" fill="none" stroke="#fff" stroke-width="5" fill-rule="evenodd"/>
          <path id="Path_183" data-name="Path 183" d="M147.75,157.419c39.708-27.852,83.784-50.04,126.276-71.688C328.407,58.008,384.019,32.025,441.318,14.7,474.961,4.528,514.655-6.7,549.031,4.961c12.263,4.161,21.425,13.512,31.938,21.766,11.982,9.419,24.426,18.05,36.869,26.546q38.422,26.231,77.655,50.671c13.854,8.665,29.1,20.268,44.754,23.275,12.443,2.393,26.578-1.07,39.077-2.078,22.508-1.813,45.012-3.682,67.53-5.27,25.983-1.83,52.04-3.519,78.079-3.226,14.513.163,39.427-2.534,49.69,8.912,8.954,9.988-23.647,46.11-29.38,52.974-17.9,21.428-36.735,41.832-53.4,64.746-9.849,13.512-21.84,29.946-25.993,47.856-3.535,15.263,3.286,32.655,7.314,46.764,5.037,17.673,9.1,35.993,14.955,53.294,5.212,15.415,13.508,29.147,20.794,43.16,8.014,15.415,16.13,31.084,22.08,47.9,3.645,10.348,9.678,27.677,2.433,37.542-8.369,11.373-34.168,3.941-44.773,2.319-21.513-3.333-42.86-8.287-64.225-12.724-35.486-7.364-69.318-13.8-105.454-12.262-47.058,2.016-94.071,6.756-141.12,9.38-17.375.98-35.026,2.95-52.414,1.886-9.969-.614-17.559-4.33-23.356-12.713-7.918-11.44-26.154-17.774-38.837-24.339-19.776-10.23-39.8-19.745-59.769-29.383-43.837-21.169-88.518-41.573-130.092-68.952-13.153-8.659-28.214-18.315-37.943-32.621-5.429-7.978-4.06-15.663-7.374-24.142-4.387-11.153-18.812-16.187-27.435-19.835-16.642-7.049-33.965-11.772-51.156-16.2-38.9-10.01-77.885-16.592-117.413-21.439-9.263-1.126-45.74-5.028-26.582-23.832,21.167-20.781,51.732-30.966,76.65-42.676C104.581,181.735,127.048,171.939,147.75,157.419Z" transform="translate(1060.191 1422.241) rotate(180)" fill="none" stroke="#fff" stroke-width="5" fill-rule="evenodd"/>
          <path id="Path_184" data-name="Path 184" d="M104.257,118.167c37.324-24.5,78.671-42.784,118.869-60.271,48.779-21.22,98.781-40.136,149.941-50.732C405.2.514,440.637-4.6,472.558,6.456c21.8,7.544,38.662,27.938,57.808,41.968s39.068,27.2,59.584,38.18c12.733,6.813,26.431,13.677,40.6,12.777C665,97.2,699.407,92,733.894,89.476c22.814-1.686,45.674-3.075,68.557-2.659,13.8.247,32.756-.764,44.973,8.095,13.5,9.8-58.4,93.454-65.194,102.869-17.038,23.609-37.67,54.942-34.376,88.518,3.151,32.1,16.807,56.061,32.253,81.21,8.766,14.306,36.876,52.525,26.459,71.131-5.952,10.635-25.568,6.953-34.888,6.228-18.367-1.428-36.632-4.5-54.9-7.161-26.639-3.862-54.011-9.826-80.765-11.574-18.63-1.214-37.37.41-56.032.444-26.759.045-53.517-.2-80.276-.495-22.468-.247-45.125,0-67.515-2.631-13.919-1.619-24.484-5.256-34.468-15.531-8.687-8.938-21.794-14.171-32.867-19.854-18.288-9.382-36.816-18.078-55.284-26.915C270.9,342.647,231.795,324.529,194.785,301.4c-16.895-10.551-45.3-25.324-49.264-50.906-1.43-9.224-2.482-13.21-9.864-18.455-10.477-7.443-23.026-10.8-34.782-13.716-27.4-6.8-55.6-5.784-82.961-12.507-11.142-2.771-25.688-8.752-12.969-22.446,14.842-16.015,36.447-24.818,54.228-34.711,8.877-4.935,18.021-9.556,26.45-15.582C92.1,128.437,97.637,122.484,104.257,118.167Z" transform="translate(961.823 1377.839) rotate(180)" fill="none" stroke="#fff" stroke-width="5" fill-rule="evenodd"/>
          <path id="Path_185" data-name="Path 185" d="M72.482,81.415C106.965,61.513,144.414,47.044,181.191,34c40.848-14.47,82.683-26.455,125.07-31.554,29.268-3.533,60.453-4.575,88.86,6.238,17.965,6.841,30.143,21.226,45.6,33.29,23.331,18.234,48.573,32.681,76.6,29.165q47.136-5.9,94.581-8.852c19.079-1.189,38.232-2.079,57.334-1.251,12.078.518,27.638,1.392,38.145,8.069,14.058,8.942-38.748,76.987-45.33,86.9-16.325,24.6-28.292,50.4-35.284,80.875-5.7,24.866,5.947,44.413,17.964,63.013,7.471,11.551,31.613,40.6,24.054,55.6-4.146,8.272-17.808,7.844-25.146,8.266-13.985.8-28.029-.034-42.014-.4-20.65-.563-42.631,3.308-63.106.192-45.376-6.9-90.638-12.87-136.3-17.6-25.169-2.6-50.489-4.97-75.432-9.99-8.955-1.8-18.2-3.713-26.689-7.793-5.458-2.62-8.434-7.083-13.04-10.745C265.1,300,236.434,291.026,211.7,279.852c-32.884-14.853-65.944-29.475-97.953-47.021C96.91,223.6,73.395,213,61.81,194.16c-3.5-5.691-2.008-10.244-4.21-15.715-2.533-6.311-10.231-8.193-15.2-9.951-11.281-3.995-58.5-10.035-36.74-33.47,10.383-11.162,23.612-18.324,35.316-27.1,4.238-3.178,8.37-6.373,11.9-10.661C58.788,90.076,64.61,85.974,72.482,81.415Z" transform="translate(859.356 1333.436) rotate(180)" fill="none" stroke="#fff" stroke-width="5" fill-rule="evenodd"/>
          <path id="Path_186" data-name="Path 186" d="M69.247,50.411C137.32,18.213,217.1-3.724,291.316.526,316,1.945,342.551,6.679,363.945,22.879c12.615,9.569,22.7,20.372,37.849,23.828,10.939,2.494,22.719-.338,33.723-1.362,15.938-1.486,31.886-2.814,47.847-3.89,19.788-1.312,39.64-2.325,59.465-1.784,14.166.388,33.727-.051,46.033,9.237,14.692,11.078-22.7,63.046-27.967,72.306C548.141,143.657,539.2,165.4,535.969,192.45c-.951,7.881-4.154,15.958-3.739,23.9.434,8.112,4.528,15.334,8.308,21.711,4.943,8.359,22.1,28.185,17.184,38.379-2.714,5.629-12.9,6.338-18.181,7.532-9.905,2.252-19.954,3.462-29.919,5.252-16.908,3.051-33.7,12.986-50.663,12.7-45.627-.743-91.914-18.013-136.626-27.5-26.582-5.657-53.344-10.791-79.6-18.452-8.308-2.426-16.866-4.937-24.764-9.052-5.511-2.871-9.052-7.988-14.157-11.2-19.575-12.345-42.086-19.837-63.107-28.145-27.288-10.808-54.669-21.289-81.768-32.8-16.986-7.211-38.828-13.555-53.464-26.93-10.69-9.766-3.383-12.688,2.257-21.785,2.88-4.638,2.216-9.209,3.466-14.461,1.786-7.5,6.836-12.9,11.572-17.749C29.3,87.158,38,81.636,43.339,73.417c1.883-2.893,1.8-6.485,3.319-9.007C51.089,57.065,62.845,53.439,69.247,50.411Z" transform="translate(780.798 1293.816) rotate(180)" fill="none" stroke="#fff" stroke-width="5" fill-rule="evenodd"/>
          <path id="Path_187" data-name="Path 187" d="M97.9,27.727C153.153,7.483,214.626-4.043,273.027,1.306c20.319,1.864,40.763,6.194,59.691,15.7,8.612,4.313,15.076,9.122,24.512,9.381,21.9.6,43.859-1.492,65.75-1.993,15.666-.36,31.41-.49,47.038,1.047C480.468,26.471,494.6,27.7,503.16,35.52c12.44,11.391-10.017,50.116-14.588,60.815-7.575,17.743-15.09,37.469-12.086,58,.922,6.279,2.553,11.825,2.765,18.228.2,5.5-.364,10.581,1.235,15.84,1.977,6.521,10.768,16.64,7.745,22.642-2.06,4.1-8.169,4.291-12.233,5.6a109.525,109.525,0,0,0-19.241,8.345c-6.543,3.626-12.113,9.229-18.891,12.225-11,4.854-23.319,5.31-34.884,5.288-46.145-.091-92.874-11.2-137.848-22.818-23.42-6.048-46.969-12.5-69.731-21.668-6.911-2.787-14.744-5.586-20.821-10.733-3.792-3.2-6.363-7.219-10.671-9.629-36.8-20.576-79.346-28.217-118.414-43.077-10.169-3.868-66.524-23.414-37.058-41.8,17.9-11.172,36.814-16.251,53.148-31.534,4.976-4.646,8.294-8.491,10.238-15.581,1.281-4.719-1.8-2.326,2.5-7.258C79.547,32.479,91.467,30.086,97.9,27.727Z" transform="translate(737.079 1259.66) rotate(180)" fill="none" stroke="#fff" stroke-width="5" fill-rule="evenodd"/>
          <path id="Path_188" data-name="Path 188" d="M101.384,13.056a428.78,428.78,0,0,1,198.89-2.661c16.564,3.689,33.8,2.807,50.569,3.745,16.291.9,45.256-.971,57.088,14.317,8.58,11.083-.73,34.636-3.95,47.032-4.1,15.793-7.688,32.109-.952,47.448,3.946,8.983,9.352,17.534,13.584,26.433,2.024,4.25,6.191,10.763,4.454,14.789-2.874,6.642-16.319,9.438-22.843,12.571-20.851,10.011-42.932,12.565-65.225,12.494-41.176-.131-82.565-7-122.955-16.323-18.583-4.29-37.424-8.865-55.347-16.321-10.142-4.217-17.622-12.352-27.306-17.175-31.182-15.541-64.684-23.845-96.4-38.055-9.181-4.115-43.472-17.815-26.2-33.968C21.518,51.745,45.913,53.6,63.3,38.893c1.968-1.684,4.4-3.7,5.544-6.423.675-1.628-.513-4.727,0-5.654C74.189,16.75,93.174,15.15,101.384,13.056Z" transform="translate(683.113 1233.019) rotate(180)" fill="none" stroke="#fff" stroke-width="5" fill-rule="evenodd"/>
          <path id="Path_189" data-name="Path 189" d="M81.129,7.581C114.313,2.027,148.228.649,181.971.3c18.445-.192,38.709-1.626,56.757,4.076A293.505,293.505,0,0,0,271.95,13.17c12.3,2.382,32.095,4.115,39.582,17.025,5.594,9.647,1.76,29.478,1.557,41.209-.217,12.865,1.945,22.4,9.386,31.612,4.679,5.8,26.145,26.842,23.664,32.91-2.36,5.781-17.318,6.667-23.784,8.168-20.44,4.764-41.153,6.424-61.944,6.164a482.073,482.073,0,0,1-96.219-11.29c-13.1-2.862-26.648-5.826-39.167-11.544-8.43-3.856-15.461-10.692-23.835-14.677C77.207,101.317,51.847,93.555,27.781,81.915,20.058,78.172-5.108,68.209.925,52.854c5.03-12.82,22.14-16.72,30.547-25.312C45.773,12.888,62.892,10.63,81.129,7.581Z" transform="translate(620.95 1216.624) rotate(180)" fill="none" stroke="#fff" stroke-width="5" fill-rule="evenodd"/>
          <path id="Path_190" data-name="Path 190" d="M50.8,5.385A592.8,592.8,0,0,1,130.772.021C148.01-.03,166.2-.316,183.112,4.412c8.5,2.373,15.881,7.923,23.923,11.881,8.281,4.071,19.709,8.614,23.288,17.948,3.363,8.772,2.107,21.569,5.061,32.146,2.627,9.385,8.125,15.182,14.045,21.525,3.772,4.054,23.145,21.6,20.9,25.477-2.4,4.15-14.036,3.812-20.09,4.386a382.924,382.924,0,0,1-50.146,1.535c-22.828-.855-45.83-3.239-68.263-8.637-15.913-3.824-27.916-12.933-42.753-19.613C69.861,82.385,49.95,75.525,30.913,66.034,21.426,61.3,7.386,55.221,2.527,43.014.66,38.335-1.153,26.437.926,21.759c2.5-5.623,11.8-8.007,16.185-9.452C28.106,8.7,39.612,6.948,50.8,5.385Z" transform="translate(569.716 1207.06) rotate(180)" fill="none" stroke="#fff" stroke-width="5" fill-rule="evenodd"/>
        </g>
      </g>
    </g>
  </g>
</svg>
