<svg xmlns="http://www.w3.org/2000/svg" width="89" height="82" viewBox="0 0 89 82">
  <g id="Group_289" data-name="Group 289" transform="translate(-469.669 -379.632)">
    <g id="Group_288" data-name="Group 288" transform="translate(494.06 379.632)">
      <path id="Path_107" data-name="Path 107" d="M545.927,416.158l-17.691-35.11a2.574,2.574,0,0,0-4.6,0l-17.691,35.11a2.574,2.574,0,0,0,2.3,3.733h18.1a.716.716,0,0,0-.171-.285,1.066,1.066,0,0,1-.266-.273.827.827,0,0,1-.125-.312c.005-.007,0-.029-.015-.049a.843.843,0,0,1-.068-.33.893.893,0,0,0-.06-.248.618.618,0,0,1-.052-.29c-.005-.128,0-.2.009-.194.028.017,0-.125-.042-.187a.519.519,0,0,0-.081-.1.164.164,0,0,1-.048-.068.637.637,0,0,0-.081-.14,1.13,1.13,0,0,1-.11-.211,1.182,1.182,0,0,0-.1-.2c-.037-.06-.084-.144-.108-.19a.652.652,0,0,0-.1-.138.656.656,0,0,1-.106-.156.558.558,0,0,1-.049-.275,1.1,1.1,0,0,0-.018-.207c-.01-.019-.007-.031.005-.031s.02.014.022.031.005.024.009.013a.409.409,0,0,0-.007-.127c-.016-.1-.013-.108.026-.15a1.029,1.029,0,0,0,.134-.4.581.581,0,0,1,.035-.132.214.214,0,0,0,.022-.091.17.17,0,0,1,.064-.116.213.213,0,0,0,.064-.095c0-.018.03-.048.072-.07.117-.059.152-.125.172-.331.017-.17.017-.18-.027-.249a3,3,0,0,1-.2-.488c0-.013.026-.041.056-.057.071-.044.071-.1,0-.244a1.148,1.148,0,0,1-.075-.178,2.7,2.7,0,0,0-.121-.293,1.179,1.179,0,0,1-.1-.273.264.264,0,0,0-.037-.119c-.022-.039-.054-.1-.072-.134a.548.548,0,0,0-.1-.129,2.081,2.081,0,0,1-.167-.187,1.537,1.537,0,0,0-.2-.2c-.123-.091-.14-.119-.068-.115.029,0,.037,0,.018,0s-.028-.014-.022-.022-.011-.011-.033-.007-.053-.007-.094-.068l-.049-.077.042.011c.024.005.017,0-.016-.016-.066-.029-.073-.044-.039-.079.017-.017.013-.022-.018-.022s-.042-.009-.042-.018a.169.169,0,0,0-.039-.091c-.042-.064-.091-.184-.075-.184a.1.1,0,0,1,.041.016c.018.011.042,0,.082-.037s.056-.062.056-.154.005-.118.045-.079c.013.013.005-.005-.014-.042l-.041-.068.048-.012c.033-.009.045-.024.045-.055a.066.066,0,0,0-.027-.055c-.031-.011-.024-.037.053-.163a.2.2,0,0,0,.042-.134.835.835,0,0,1,.018-.182l.028-.133-.057-.077c-.058-.081-.071-.129-.037-.129.01,0,.013-.009.008-.018s-.02-.013-.039,0c-.037.029-.138-.033-.173-.108-.02-.044-.038-.058-.077-.058s-.052-.009-.052-.028-.029-.039-.041-.011c0,.011-.06.02-.128.022s-.127.011-.132.03a.038.038,0,0,1-.031.024c-.011,0-.017-.013-.009-.028.013-.033-.027-.037-.058-.005s-.028.016-.044,0-.061-.028-.033,0,.009.03-.044.041a.333.333,0,0,1-.1,0c-.02-.005-.042,0-.047.007s-.028.013-.049.005a.3.3,0,0,1-.178-.226.055.055,0,0,0-.022-.044c-.018-.005-.018-.013,0-.035s.016-.029-.017-.039-.033-.018-.026-.029a.013.013,0,0,0-.013-.02c-.013,0-.04-.029-.06-.066a.343.343,0,0,0-.306-.162c-.059,0-.106-.007-.106-.016s.009-.013.022-.013.017-.005.012-.011-.031,0-.056.018a.479.479,0,0,1-.227.028.777.777,0,0,0-.472.1c-.059.064-.118.077-.132.029s-.079-.085-.1-.066,0,.012.012.012.077.051.077.071-.031.02-.068.026a1.346,1.346,0,0,0-.222.086,1.481,1.481,0,0,1-.264.1.641.641,0,0,0-.161.068c-.053.038-.062.038-.192-.012a.641.641,0,0,0-.15-.029c-.044,0-.079-.005-.079-.015a1.818,1.818,0,0,0-.559,0,1.065,1.065,0,0,0-.42.1,1.417,1.417,0,0,1-.18.073c-.15.055-.165.057-.211.031l-.233-.112a1.052,1.052,0,0,1-.334-.231,1.143,1.143,0,0,0-.234-.182c-.046-.019-.085-.044-.085-.054s-.033-.037-.072-.057a.33.33,0,0,1-.1-.07,1.347,1.347,0,0,0-.415-.215c-.064-.013-.062-.045,0-.045.037,0,.037,0-.005-.039-.024-.02-.042-.049-.039-.064s-.015-.035-.039-.046a.209.209,0,0,1-.075-.073l-.033-.055.054.013c.047.011.049.009.016-.015s-.031-.033-.013-.066.015-.041,0-.041-.024-.02-.031-.044a.2.2,0,0,0-.053-.084.091.091,0,0,1-.033-.074c.006-.022,0-.037-.032-.045a.747.747,0,0,1-.244-.184c-.017-.026-.026-.057-.018-.068s.005-.015-.007-.007-.022,0-.022-.039,0-.047-.026-.02c-.031.044-.06.042-.075,0-.005-.02-.02-.037-.029-.037-.029,0-.072-.05-.072-.083,0-.017-.007-.024-.018-.018s-.022-.02,0-.043a.237.237,0,0,1,.06-.027c.031-.007.029-.009-.009-.011-.063,0-.1-.03-.083-.059s.007-.018-.02-.007a.277.277,0,0,1-.191,0,.117.117,0,0,1-.024-.06c0-.02-.011-.039-.022-.039a.194.194,0,0,1-.061-.037c-.039-.031-.042-.049-.039-.165a.529.529,0,0,0-.007-.139c-.007-.007,0-.028.007-.048s.022-.033.051-.007a.117.117,0,0,0,.068.03c.026,0,.02-.009-.025-.037s-.059-.047-.052-.064,0-.022-.018-.015-.035-.015,0-.046.015-.022-.009-.022-.031-.015-.031-.039a.283.283,0,0,0-.154-.163c-.045,0-.037-.016.054-.1a.466.466,0,0,0,.182-.347,1.037,1.037,0,0,1,.075-.289.479.479,0,0,0,.053-.312c-.016-.176-.032-.234-.083-.289-.035-.035-.038-.05-.02-.087s.014-.047,0-.052-.017-.022-.009-.04a.031.031,0,0,1,.041-.022c.04.015.035-.11-.01-.19-.02-.035-.035-.054-.037-.042,0,.047-.037.022-.075-.054l-.041-.077-.042.054c-.037.045-.044.049-.055.022a1.134,1.134,0,0,1,.06-.385.148.148,0,0,1,.068-.066.172.172,0,0,0,.07-.088,2.041,2.041,0,0,1,.145-.3l.043-.064-.043.037-.044.037.022-.04a.607.607,0,0,1,.114-.119c.216-.182.205-.167.218-.283a.968.968,0,0,1,.075-.236.3.3,0,0,1,.165-.184c.144-.077.154-.088.19-.217a.713.713,0,0,1,.046-.132.053.053,0,0,0,.013-.035c-.007-.039.119-.086.281-.106a.427.427,0,0,0,.23-.068l.169-.129a1.912,1.912,0,0,0,.372-.367.094.094,0,0,0-.026-.056c-.02-.022-.022-.06-.013-.157a.324.324,0,0,1,.081-.219.279.279,0,0,0,.068-.146c0-.046.022-.077.123-.169a.93.93,0,0,1,.349-.209c.216-.091.229-.1.306-.2a1.487,1.487,0,0,0,.15-.271.677.677,0,0,1,.091-.175.785.785,0,0,1,.106-.02c.083-.013.085-.012.085.033s.02.064.068.1c.064.049.075.051.279.053a1.167,1.167,0,0,0,.27-.02c.049-.02.06-.018.1.018s.064.041.156.033a.438.438,0,0,0,.31-.117.272.272,0,0,1,.129-.072.207.207,0,0,0,.094-.031c.035-.024.051-.026.057-.009.011.037.04.026.113-.041a.959.959,0,0,1,.609-.176c.131,0,.149-.005.191-.046s.081-.058.081-.025c0,.013.028.016.079.011a1.077,1.077,0,0,1,.418-.013.267.267,0,0,1,.127.039c0,.024.081.02.1,0a.306.306,0,0,1,.106-.037.246.246,0,0,0,.112-.044c.035-.035.061-.035.106,0s.158.037.158,0,.016-.035.13.009a.188.188,0,0,0,.154.018.216.216,0,0,1,.106-.007.264.264,0,0,0,.154-.041,1.472,1.472,0,0,1,.152-.064c.059-.018.121-.012.116.013s.018.016.047.011c.055-.007.1.027.057.051-.015.009-.013.016.007.024a.048.048,0,0,1,.029.039c0,.035.037.022.134-.041.037-.026.073-.04.079-.035s.005.04,0,.075c-.011.058-.1.158-.141.158-.009,0-.017.024-.017.055s.013.06.074.091a.135.135,0,0,1,.086.094.14.14,0,0,0,.026.064c.02.011-.072.148-.14.205a.521.521,0,0,1-.11.072.182.182,0,0,0-.074.055c-.02.057.055.125.156.138.026,0,.044.017.041.03s.046.029.055,0,.07,0,.07.049.052.082.077.04.075-.039.192.017a.263.263,0,0,0,.228.027.31.31,0,0,1,.158-.005.5.5,0,0,0,.125.031.634.634,0,0,1,.156.046.591.591,0,0,0,.152.045c.091.015.159.074.159.142a.245.245,0,0,0,.1.169.614.614,0,0,0,.215.049,1.461,1.461,0,0,1,.6.2.618.618,0,0,0,.16.085.3.3,0,0,0,.235-.1c.079-.073.089-.119.047-.2a.212.212,0,0,1,.005-.24.582.582,0,0,1,.323-.188.633.633,0,0,1,.451-.005c.14.044.154.054.159.1s.017.053.1.071a.784.784,0,0,1,.132.041.476.476,0,0,0,.167.022c.134,0,.169.018.194.1.015.047.028.049.129.022a.263.263,0,0,1,.148,0c.044.012.14.028.213.039a.65.65,0,0,1,.176.046.206.206,0,0,0,.1.028c.029,0,.06.007.066.018a.135.135,0,0,0,.079.018.435.435,0,0,1,.148.037.392.392,0,0,0,.116.037.506.506,0,0,0,.207-.1.182.182,0,0,1,.095-.033c.031.005.043,0,.043-.029s.024-.041.22-.041a.727.727,0,0,1,.3.029.206.206,0,0,0,.066.033.152.152,0,0,1,.06.039c.026.031.121.037.138.007.009-.011.057-.015.136-.005a.266.266,0,0,0,.266-.083c.035-.039.085-.051.085-.024a.156.156,0,0,1-.044.057l-.044.04.083.205a1.926,1.926,0,0,0,.1.228c.013.017.007.053-.018.119a1.184,1.184,0,0,0-.1.347c0,.083-.053.145-.106.13a.7.7,0,0,1-.163-.128c-.1-.088-.127-.131-.127-.167a.374.374,0,0,0-.083-.158.459.459,0,0,1-.082-.143c0-.018-.007-.027-.019-.022-.029.018-.022.083.02.15a.133.133,0,0,1,.028.088.033.033,0,0,0,.009.039.361.361,0,0,1,.062.081,1.279,1.279,0,0,0,.132.156c.07.066.083.086.062.1s-.018.028.022.081a.817.817,0,0,1,.086.18,1.987,1.987,0,0,0,.152.3c.06.1.138.236.171.3a.728.728,0,0,0,.143.2.727.727,0,0,1,.085.086c0,.005-.02.005-.046,0-.042-.011-.046-.007-.046.056a.378.378,0,0,0,.152.278,1.11,1.11,0,0,1,.159.125c.083.077.1.108.114.173a.286.286,0,0,0,.07.143c.057.066.064.108.01.062-.035-.029-.037.005,0,.041a.106.106,0,0,1,.016.083,2.323,2.323,0,0,0,.052.5.115.115,0,0,0,.059.068.56.56,0,0,1,.127.092.351.351,0,0,0,.114.081c.016,0,.053.053.089.132a1.152,1.152,0,0,1,.132.372.523.523,0,0,0,.1.272.244.244,0,0,1,.049.073c.022.052.024.054.016.012s.029-.1.042-.059a.356.356,0,0,0,.044.062.181.181,0,0,1,.035.055c0,.024.1.07.182.083a.3.3,0,0,1,.215.156.328.328,0,0,0,.1.1.264.264,0,0,1,.152.152.094.094,0,0,0,.064.07c.031.011.055.033.055.049s.022.039.06.031.1.1.125.159c.027.085.013.108-.1.16-.147.066-.148.073-.029.073.1,0,.114.006.148.049.022.026.068.083.1.125a.434.434,0,0,0,.145.113.2.2,0,0,0,.167.015.84.84,0,0,0,.18-.075l.1-.053.108.029.11.031.127-.077c.121-.071.13-.075.234-.064a.265.265,0,0,0,.157-.013.467.467,0,0,1,.163-.027.943.943,0,0,0,.22-.031c.055-.016.125-.035.152-.041a.232.232,0,0,0,.105-.068c.049-.053.058-.055.139-.044a.262.262,0,0,1,.105.028c.011.011,0,.052-.017.1s-.026.09-.013.1a.4.4,0,0,1-.035.255.567.567,0,0,0-.049.171.429.429,0,0,1-.055.174.9.9,0,0,0-.1.167.629.629,0,0,1-.1.154.4.4,0,0,0-.064.1,1.4,1.4,0,0,1-.108.193.765.765,0,0,0-.082.156c-.006.024-.013.062-.019.088a1.17,1.17,0,0,1-.128.215,2.325,2.325,0,0,0-.15.233,2.824,2.824,0,0,1-.437.49,1.345,1.345,0,0,1-.421.333,1.715,1.715,0,0,0-.344.238,4.952,4.952,0,0,0-.664.72c-.089.15-.135.2-.182.2-.018,0-.031.009-.027.022.011.031-.112.14-.173.154a.141.141,0,0,0-.106.149.119.119,0,0,1-.016.07,1.222,1.222,0,0,0-.108.2c-.06.125-.1.194-.129.2a.1.1,0,0,0-.049.062,1.787,1.787,0,0,1-.066.183.413.413,0,0,0-.043.178.531.531,0,0,0,.11.143.469.469,0,0,1,.1.123.246.246,0,0,1-.039.086c-.037.059-.037.064-.007.11s.03.059.01.147-.02.106,0,.148a.316.316,0,0,1,.028.07.1.1,0,0,0,.024.049.914.914,0,0,1,.058.246.5.5,0,0,0,.079.049c.1.061.167.131.154.165-.005.015,0,.029.005.033s0,.042-.011.088a.6.6,0,0,0-.016.257.817.817,0,0,0,.031.2c.015.017.011.033-.015.061s-.024.035-.011.031.024.04.028.172a.568.568,0,0,0,.018.18c.009,0,.013.017.007.035a.037.037,0,0,0,.017.046c.055.02,0,.27-.068.333a1.31,1.31,0,0,0-.188.25.214.214,0,0,1-.089.071.664.664,0,0,0-.125.081.289.289,0,0,1-.11.054,1.631,1.631,0,0,0-.413.172,1.458,1.458,0,0,0-.2.2.583.583,0,0,1-.184.165.78.78,0,0,0-.189.15.515.515,0,0,1-.167.133c-.03,0-.037.015-.041.094s0,.1.055.146.055.064.048.114a.227.227,0,0,0,.029.132.37.37,0,0,1,.039.174c0,.056,0,.083.009.059.02-.081.048-.041.044.066,0,.057,0,.108.015.114s.007.031-.009.066a.559.559,0,0,0-.038.132c-.012.066-.007.075.016.066.073-.027,0,.132-.1.217a.884.884,0,0,1-.3.145c-.268.089-.327.123-.369.2-.03.057-.03.061.005.083s.033.037.022.145a.622.622,0,0,0,0,.152.311.311,0,0,1-.028.121,1.553,1.553,0,0,0-.058.2.348.348,0,0,1-.18.281.8.8,0,0,0-.226.22h13.066A2.574,2.574,0,0,0,545.927,416.158Zm-22.062-6.069a.176.176,0,0,0,.04-.075.037.037,0,0,1,.024-.031c.072-.026.1.043.049.136-.04.077-.064.086-.119.045C523.827,410.141,523.827,410.138,523.865,410.089Zm-.308.564c0,.029-.005.035-.02.02a.038.038,0,0,1-.009-.04C523.547,410.6,523.557,410.609,523.557,410.653Zm-7.023-2.807c-.005-.017,0-.024.022-.018s.031.013.031.024C516.586,407.879,516.543,407.873,516.534,407.846Zm.005-.059c.005-.011.015-.018.02-.018s.007.007.007.018a.019.019,0,0,1-.02.018C516.537,407.805,516.534,407.8,516.539,407.787Zm.176-.073c.011,0,.013.007.007.018a.042.042,0,0,1-.03.018c-.011,0-.013-.009-.007-.018A.037.037,0,0,1,516.716,407.714Zm-.02.071c0-.011.009-.012.018-.007s.013.02,0,.039-.027.02-.044.007-.027-.014-.036,0,0,.018.007.018a.019.019,0,0,1,.02.018c0,.03-.031.02-.044-.012a.043.043,0,0,1,.059-.051C516.684,407.8,516.7,407.8,516.7,407.785Zm-.14-.071c.031.011.048.011.048,0s.013-.018.027-.018c.031,0,.035.016.009.055-.013.02-.022.022-.039.005a.049.049,0,0,0-.046-.011c-.014.005-.026,0-.026-.011s-.013-.015-.031-.007-.026.005-.016-.009S516.5,407.691,516.556,407.714Zm-2.093-1.6c.035-.014.092,0,.1.018s-.081.063-.116.063C514.428,406.191,514.443,406.119,514.463,406.11Zm.086.118c-.04,0-.049-.028-.013-.043s.049-.013.049.015A.033.033,0,0,1,514.549,406.228Zm.072.018c-.009,0-.013-.009-.007-.018a.028.028,0,0,1,.02-.018s.007.007.007.018A.02.02,0,0,1,514.621,406.246Zm.167.058c-.049.007-.086-.022-.06-.047s.022-.013.075,0S514.854,406.3,514.787,406.3Zm.213.484c-.06.024-.134-.066-.09-.108.02-.02.041-.014.079.024S515.035,406.776,515,406.789Zm.081-.066c-.009,0-.018-.017-.018-.037s.009-.037.018-.037.018.017.018.037S515.092,406.723,515.081,406.723Zm.087-.523c.027.041.031.083.005.083s-.059-.072-.044-.1S515.148,406.178,515.167,406.2Zm.058.241c-.04.049-.1.022-.079-.037.013-.035.016-.035.064-.009C515.241,406.409,515.244,406.418,515.226,406.44Zm.607-3.469c-.018-.022-.014-.03.02-.044l.048-.018s.014,0,.031.009.024.016.005.046A.061.061,0,0,1,515.833,402.971Zm.116-.217c-.029.011-.086-.079-.072-.114s.087-.039.106-.018S515.97,402.747,515.949,402.755Zm.178.134c-.046,0-.064-.031-.037-.064a.08.08,0,0,1,.037-.028c.024,0,.058.053.045.074A.063.063,0,0,1,516.127,402.889Zm.172.007c-.02.007-.1-.09-.1-.123,0-.005.028-.016.06-.022a.388.388,0,0,0,.1-.039c.042-.029.075-.033.092-.007S516.338,402.881,516.3,402.9Zm.339.068a.078.078,0,1,1,.037-.108A.077.077,0,0,1,516.638,402.964Zm.493-.209a.174.174,0,0,1-.172.116h-.052l.048-.051a.586.586,0,0,0,.077-.11c.031-.058.092-.081.106-.037A.172.172,0,0,1,517.132,402.755Zm.085-.15c-.059.054-.068.055-.1.016s-.018-.037.026-.073C517.242,402.461,517.312,402.514,517.216,402.6Zm14.148.4c-.016-.005-.029-.02-.029-.029s.042-.009.052.018S531.383,403.013,531.364,403.006Zm1.806,3.487c-.03.035-.062.035-.048,0,.006-.014,0-.027-.009-.027s-.005-.015.013-.031.024-.033.009-.039a.03.03,0,0,1-.02-.026c0-.028.045-.005.045.024a.1.1,0,0,0,.017.049A.052.052,0,0,1,533.17,406.493Zm.071.026c-.027.009-.04-.011-.025-.035s.018-.017.029,0S533.253,406.514,533.241,406.519Zm.679.571a.018.018,0,0,1-.016-.018c0-.011.013-.018.029-.018s.022.007.017.018A.04.04,0,0,1,533.92,407.09Zm.041-.073a.038.038,0,0,1-.03-.055.023.023,0,0,1,.03-.009C533.982,406.967,533.982,407.016,533.961,407.016Zm-.868,5.544c.02.027.007.143-.016.143a.1.1,0,0,0-.028,0c-.005,0-.013-.033-.015-.083C533.03,412.538,533.053,412.513,533.093,412.561Zm-.108.455c-.007,0-.022-.013-.031-.029s-.024-.026-.033-.022-.033-.1-.019-.143.046-.029.059.024a.215.215,0,0,0,.039.081C533.023,412.955,533.015,413.015,532.984,413.015Zm.1.424c-.031.035-.081.047-.081.022,0-.007.022-.031.052-.054C533.113,413.362,533.135,413.384,533.085,413.439Zm-1.291,4.089c-.009,0-.018-.017-.018-.037s.009-.037.018-.037.018.016.018.037S531.8,417.528,531.794,417.528Zm3.266-3.577a.017.017,0,0,1,.018.018.018.018,0,0,1-.018.018.019.019,0,0,1-.018-.018A.018.018,0,0,1,535.06,413.951Zm-.367.9c.018.011.02.018.005.018a.026.026,0,0,0-.024.027.027.027,0,0,1-.026.028c-.014,0-.024-.018-.024-.046C534.625,414.83,534.646,414.82,534.692,414.85Zm-.27-.187a.05.05,0,0,1,.057.027c.026.049-.009.073-.059.039S534.37,414.67,534.423,414.663Zm-.171.058c.015.009.02.022.015.029s-.07-.005-.07-.029S534.215,414.7,534.252,414.721Zm-.3,1.431c-.005,0-.014-.009-.02-.018s0-.018.007-.018a.019.019,0,0,1,.02.018C533.958,416.144,533.955,416.152,533.951,416.152Zm.129-1.677c.02-.051.057-.031.079.046.03.1,0,.132-.053.081A.1.1,0,0,1,534.08,414.475Zm2,1.625c-.026.048-.035.054-.041.028a.1.1,0,0,1,.026-.07C536.107,416.009,536.112,416.028,536.076,416.1Zm.15-.413a.866.866,0,0,1-.046.114c-.026.041-.075.007-.106-.072-.016-.04-.037-.073-.046-.073-.029,0-.039.059-.016.1a.066.066,0,0,1,.011.052c-.005.009,0,.039.02.064.028.041.028.057.007.125a.226.226,0,0,1-.057.1c-.029.02-.035.048-.035.152a1.252,1.252,0,0,1-.108.444c-.059.173-.125.358-.147.411a1.982,1.982,0,0,0-.064.211,1.606,1.606,0,0,1-.084.244,2.479,2.479,0,0,0-.112.354,2.077,2.077,0,0,1-.088.293,1.676,1.676,0,0,0-.066.165c-.037.112-.077.145-.2.163a.85.85,0,0,0-.219.073.813.813,0,0,1-.152.061.435.435,0,0,1-.11-.046.379.379,0,0,0-.127-.046c-.042,0-.189-.128-.189-.167a.154.154,0,0,0-.04-.066.344.344,0,0,1-.037-.275c.016-.029.009-.057-.046-.143a.413.413,0,0,1-.037-.422.32.32,0,0,1,.079-.127.371.371,0,0,0,.094-.139c.033-.068.081-.152.1-.189s.039-.072.027-.079-.014-.04-.007-.079a.133.133,0,0,0-.017-.1.163.163,0,0,1-.029-.088.317.317,0,0,0-.035-.119.786.786,0,0,1-.045-.216c-.012-.147-.012-.147.053-.239a.278.278,0,0,0,.064-.154c0-.084.028-.11.112-.11a.192.192,0,0,0,.117-.041c.032-.026.056-.033.059-.02s.083.007.1-.026a.077.077,0,0,1,.06-.024.231.231,0,0,0,.083-.018c.028-.014.035-.013.035.007a.045.045,0,0,0,.017.037c.009.007.013-.005.007-.026-.012-.044.047-.117.125-.157.053-.028.071-.019.071.033,0,.018.009.033.018.033s.015-.02.008-.046a.152.152,0,0,1,.036-.119c.049-.073.074-.088.094-.055s.063-.024.043-.06-.005-.068.039-.068c.026,0,.033-.013.031-.051a.183.183,0,0,0-.018-.073c-.015-.026.032-.114.062-.114.009,0,.022.016.027.037s.02.033.03.027.02-.079-.006-.086-.007-.07.022-.07c.009,0,.018.02.018.046s.005.042.042.029a.241.241,0,0,0,.1-.183.126.126,0,0,0-.031-.079c-.028-.031-.028-.033.007-.033a.132.132,0,0,0,.1-.1c.016-.042.057-.031.066.016a.119.119,0,0,0,.041.059.072.072,0,0,1,.035.049.229.229,0,0,0,.055.083.183.183,0,0,1,.055.112.335.335,0,0,0,.039.13.186.186,0,0,1,.026.119.111.111,0,0,0,0,.066.208.208,0,0,1,.007.091.2.2,0,0,0,.044.142C536.255,415.6,536.255,415.6,536.226,415.688Zm.484-8.2c0-.009.022-.011.051-.005.057.015.07.022.056.035S536.711,407.51,536.711,407.491Zm.293.039a.019.019,0,0,1-.018-.018.018.018,0,0,1,.018-.018.017.017,0,0,1,.018.018A.018.018,0,0,1,537,407.53Zm.367-.094a.238.238,0,0,1-.258,0c-.028-.028-.033-.044-.017-.062a.582.582,0,0,1,.321,0C537.45,407.4,537.448,407.4,537.371,407.436Z" transform="translate(-505.669 -379.632)" fill="#fff"/>
      <path id="Path_108" data-name="Path 108" d="M522.171,420.925c.022,0,.039-.01.039-.019s-.011-.018-.026-.018a.046.046,0,0,0-.039.018C522.14,420.916,522.151,420.925,522.171,420.925Z" transform="translate(-510.981 -392.935)" fill="#fff"/>
      <path id="Path_109" data-name="Path 109" d="M521.785,420.226a.169.169,0,0,0,.064,0c.017-.005,0-.009-.032-.009S521.767,420.22,521.785,420.226Z" transform="translate(-510.863 -392.719)" fill="#fff"/>
    </g>
    <text id="Afriheal" transform="translate(469.669 453.632)" fill="#fff" font-size="25" font-family="HKGrotesk-Bold, HK Grotesk" font-weight="700"><tspan x="0" y="0">Afriheal</tspan></text>
  </g>
</svg>
