<svg xmlns="http://www.w3.org/2000/svg" width="252.845" height="244.651" viewBox="0 0 252.845 244.651">
  <g id="Data_points-bro" data-name="Data points-bro" transform="translate(-27.105 -31.183)">
    <g id="freepik--background-simple--inject-99" transform="translate(30.414 31.183)">
      <path id="Path_1316" data-name="Path 1316" d="M35.352,110.945S45.886,66.423,87.4,44.764s91.02-12.444,131.334-6.074S284.689,75.9,281.948,112.9s-35.252,40.495-60.074,77.591-26.108,50.892-66.094,67.943-91.337-11-111.086-60.742S35.352,110.945,35.352,110.945Z" transform="translate(-32.612 -31.183)" fill="#81d8b7" opacity="0.156"/>
    </g>
    <g id="freepik--Plant--inject-99" transform="translate(208.257 175.867)">
      <path id="Path_1318" data-name="Path 1318" d="M359.057,295.58a4.483,4.483,0,0,1,.115,3.743c-.9,1.817-2.041,3.628-1.363,4.536s2.736,2.041,2.5,3.967-2.95,5.784-1.248,7.935,4.536,2.041,4.646,4.422-2.736,4.312-1.926,6.468,5.445,2.6,5.445,4.082-1.817,3.059-.339,4.646,8.6,5.729,9.626,4.028,3.075-6.408,1.724-13.09c-.23-1.122-1.828-1.368-2.052-2.955s.454-4.422-.679-6.019-4.766-2.151-4.991-3.4,1.357-4.312-.23-6.238-5.33-2.835-5.33-4.082,1.138-2.835-.449-4.536S359.057,295.58,359.057,295.58Z" transform="translate(-357.603 -295.58)" fill="#81d8b7"/>
      <path id="Path_1319" data-name="Path 1319" d="M370.18,320c2.364,7.114,6.5,16.783,8.181,21.446,2.036,5.675,3.831,9.779,4.717,15.448s1.4,43.641,1.4,43.641" transform="translate(-363.298 -306.637)" fill="none" stroke="#263238" stroke-linecap="round" stroke-linejoin="round" stroke-width="1"/>
      <path id="Path_1320" data-name="Path 1320" d="M361.3,296.82s1.926,1.587,3.628,8.5c.109.449.235.919.372,1.412" transform="translate(-359.277 -296.141)" fill="none" stroke="#263238" stroke-linecap="round" stroke-linejoin="round" stroke-width="1"/>
      <path id="Path_1321" data-name="Path 1321" d="M412.018,319.19a3.568,3.568,0,0,0-.088,2.993c.722,1.45,1.642,2.906,1.094,3.628s-2.189,1.642-2,3.179,2.359,4.624,1,6.353-3.628,1.642-3.721,3.535,2.189,3.448,1.543,5.177-4.378,2.085-4.378,3.283,1.456,2.446.274,3.716-6.89,4.586-7.7,3.229a14.987,14.987,0,0,1-1.341-10.5c.181-.9,1.461-1.094,1.642-2.364s-.361-3.541.547-4.81,3.831-1.724,3.989-2.736-1.094-3.447.181-4.991,4.268-2.266,4.268-3.283-.908-2.266.361-3.628A18.01,18.01,0,0,1,412.018,319.19Z" transform="translate(-375.137 -306.27)" fill="#81d8b7"/>
      <path id="Path_1322" data-name="Path 1322" d="M407.6,338.73c-1.888,5.7-5.2,13.434-6.567,17.166-1.642,4.536-3.054,7.82-3.776,12.356s-1.122,34.929-1.122,34.929" transform="translate(-375.052 -315.117)" fill="none" stroke="#263238" stroke-linecap="round" stroke-linejoin="round" stroke-width="1"/>
      <path id="Path_1323" data-name="Path 1323" d="M421.551,320.18s-1.543,1.27-2.9,6.807c-.088.356-.192.733-.3,1.127" transform="translate(-385.108 -306.718)" fill="none" stroke="#263238" stroke-linecap="round" stroke-linejoin="round" stroke-width="1"/>
      <path id="Path_1324" data-name="Path 1324" d="M367.193,366.14a3,3,0,0,1,.077,2.5c-.607,1.215-1.368,2.43-.914,3.037s1.822,1.363,1.642,2.654-1.97,3.863-.832,5.3S370.2,381,370.274,382.6s-1.822,2.878-1.291,4.323,3.639,1.74,3.639,2.736-1.209,2.047-.224,3.108,5.751,3.831,6.435,2.7a12.484,12.484,0,0,0,1.149-8.756c-.148-.75-1.215-.914-1.368-1.975s.3-2.96-.454-4.022-3.185-1.439-3.338-2.271.908-2.884-.153-4.17-3.562-1.9-3.562-2.736.761-1.893-.3-3.032A15.578,15.578,0,0,0,367.193,366.14Z" transform="translate(-361.504 -327.528)" fill="#81d8b7"/>
      <path id="Path_1325" data-name="Path 1325" d="M374.64,382.47c1.581,4.766,4.345,11.224,5.472,14.343,1.368,3.792,2.556,6.534,3.157,10.326s.936,17.861.936,17.861" transform="translate(-365.317 -334.922)" fill="none" stroke="#263238" stroke-linecap="round" stroke-linejoin="round" stroke-width="1"/>
      <path id="Path_1326" data-name="Path 1326" d="M368.7,367s1.291,1.062,2.424,5.691c.077.3.159.613.252.941" transform="translate(-362.628 -327.917)" fill="none" stroke="#263238" stroke-linecap="round" stroke-linejoin="round" stroke-width="1"/>
      <path id="Path_1327" data-name="Path 1327" d="M424.071,362.69a2.993,2.993,0,0,0-.646,2.419c.312,1.319.777,2.676.192,3.163s-2.079.908-2.227,2.189,1.034,4.214-.4,5.357-3.283.635-3.7,2.189,1.094,3.223.268,4.5-3.94.865-4.17,1.822.717,2.271-.487,3.075-6.479,2.413-6.884,1.149a12.488,12.488,0,0,1,.881-8.783c.323-.695,1.4-.613,1.789-1.609s.383-2.95,1.363-3.831,3.431-.673,3.77-1.45-.23-3.015,1.094-4.028,3.9-1.029,4.093-1.839-.306-2.019.99-2.884A15.308,15.308,0,0,1,424.071,362.69Z" transform="translate(-379.326 -325.966)" fill="#81d8b7"/>
      <path id="Path_1328" data-name="Path 1328" d="M416.787,377.07c-2.627,4.279-6.8,9.927-8.608,12.707-2.189,3.382-4.827,5.538-5.434,9.3s-.936,17.9-.936,17.9" transform="translate(-377.619 -332.477)" fill="none" stroke="#263238" stroke-linecap="round" stroke-linejoin="round" stroke-width="1"/>
      <path id="Path_1329" data-name="Path 1329" d="M435.1,363.34s-1.5.739-3.661,4.98c-.142.274-.3.547-.465.865" transform="translate(-390.822 -326.26)" fill="none" stroke="#263238" stroke-linecap="round" stroke-linejoin="round" stroke-width="1"/>
      <path id="Path_1330" data-name="Path 1330" d="M383.878,453.267h8.433c4.438-2.293,7.59-8.082,7.59-14.868a18.934,18.934,0,0,0-3.524-11.4H379.833a18.934,18.934,0,0,0-3.546,11.371C376.288,445.173,379.44,450.963,383.878,453.267Z" transform="translate(-366.062 -355.084)" fill="#263238" stroke="#263238" stroke-linecap="round" stroke-linejoin="round" stroke-width="1"/>
      <rect id="Rectangle_1246" data-name="Rectangle 1246" width="8.586" height="1.259" transform="translate(17.816 98.172)" fill="#263238" stroke="#263238" stroke-linecap="round" stroke-linejoin="round" stroke-width="1"/>
    </g>
    <g id="freepik--Character--inject-99" transform="translate(85.82 75.121)">
      <path id="Path_1331" data-name="Path 1331" d="M237.162,112.107s-5.85.887-8.663,5.987c-1.981,3.579.783,10.244-1.735,12.132s-3.781.476-4.728,3.283,1.735,4.416.947,5.675-1.893,1.576-1.893,3.781,4.1,3.94,5.516,3.623,3.311-2.364,4.252-2.047,1.735,2.364,4.887,2.047,3.94-1.888,5.833-1.094,3.152,1.888,5.357,1.417,4.093-2.523,4.881-2.189,5.045,2.835,8.356,2.364,3.464-3.628,2.835-6.463.629-3.464.471-5.987-3.94-4.416-5.987-5.357-1.264-7.114-3.316-11.826S243,110.214,237.162,112.107Z" transform="translate(-173.356 -111.475)" fill="#263238" stroke="#263238" stroke-linecap="round" stroke-linejoin="round" stroke-width="1"/>
      <path id="Path_1332" data-name="Path 1332" d="M225.391,415.86s2.189,19.574,2.189,20.017a33.53,33.53,0,0,1-1.177,6.917,9.718,9.718,0,0,1-2.5,3.973c-1.182,1.182-1.915,2.063-1.034,2.506s9.85,0,9.85,0a23.53,23.53,0,0,1,.591-3.831,12.587,12.587,0,0,1,1.029-2.649l.175,6.468h.739s.263-6.764.547-7.661a16.607,16.607,0,0,0,.887-4.416c0-1.472-1.915-3.677-1.915-3.677L236.259,416Z" transform="translate(-173.985 -249.293)" fill="#fff" stroke="#263238" stroke-linecap="round" stroke-linejoin="round" stroke-width="1"/>
      <path id="Path_1333" data-name="Path 1333" d="M228.194,419.384h10.211l.285-3.376-10.89-.148S227.959,417.294,228.194,419.384Z" transform="translate(-176.394 -249.293)" fill="#263238"/>
      <path id="Path_1334" data-name="Path 1334" d="M233.616,453.978c-1.177,3.092-1.472,6.331-2.649,7.212s-5.888-.148-5.888-.148L224.86,461a11.785,11.785,0,0,1-.958,1.094c-1.182,1.182-1.915,2.063-1.034,2.506s9.85,0,9.85,0a23.529,23.529,0,0,1,.591-3.831,12.588,12.588,0,0,1,1.029-2.649l.175,6.468h.739s.263-6.764.547-7.661a16.609,16.609,0,0,0,.887-4.416,5.92,5.92,0,0,0-1.275-2.851C235.028,451.039,234.349,452.035,233.616,453.978Z" transform="translate(-173.985 -264.597)" fill="#263238" stroke="#263238" stroke-linecap="round" stroke-linejoin="round" stroke-width="1"/>
      <path id="Path_1335" data-name="Path 1335" d="M269.689,415.86s-1.445,19.574-1.445,20.017a33.53,33.53,0,0,0,1.177,6.917,9.718,9.718,0,0,0,2.5,3.973c1.182,1.182,1.915,2.063,1.034,2.506s-9.85,0-9.85,0a23.533,23.533,0,0,0-.591-3.831,12.587,12.587,0,0,0-1.029-2.649l-.175,6.468h-.733s-.268-6.764-.547-7.661a16.624,16.624,0,0,1-.881-4.416c0-1.472,1.91-3.677,1.91-3.677L258.87,416Z" transform="translate(-190.462 -249.293)" fill="#fff" stroke="#263238" stroke-linecap="round" stroke-linejoin="round" stroke-width="1"/>
      <path id="Path_1336" data-name="Path 1336" d="M269.63,415.86l-10.89.148.427,3.376h10.2C269.526,417.294,269.63,415.86,269.63,415.86Z" transform="translate(-190.403 -249.293)" fill="#263238"/>
      <path id="Path_1337" data-name="Path 1337" d="M262.4,453.978c1.177,3.092,1.472,6.331,2.649,7.212s5.888-.148,5.888-.148l.219-.044a11.779,11.779,0,0,0,.958,1.094c1.182,1.182,1.915,2.063,1.034,2.506s-9.85,0-9.85,0a23.528,23.528,0,0,0-.591-3.831,12.586,12.586,0,0,0-1.029-2.649l-.175,6.468h-.733s-.268-6.764-.547-7.661a16.625,16.625,0,0,1-.881-4.416,5.909,5.909,0,0,1,1.27-2.851C260.987,451.039,261.666,452.035,262.4,453.978Z" transform="translate(-190.674 -264.597)" fill="#263238" stroke="#263238" stroke-linecap="round" stroke-linejoin="round" stroke-width="1"/>
      <path id="Path_1338" data-name="Path 1338" d="M209.182,275.767s-.662,14.058-.126,23.459,2.123,50.191,2.123,50.191l19.333.547.711-49.13,2.484,48.949,22.524-.175s-1.948-40.615-1.948-51.258,1.417-16.849,1.237-21.993-7.114-9.226-19.509-10.643-22.7,3.9-24.652,6.019A8.034,8.034,0,0,0,209.182,275.767Z" transform="translate(-167.812 -181.204)" fill="#fff"/>
      <path id="Path_1339" data-name="Path 1339" d="M282.237,271.825c-.323-.159-.657-.312-1.007-.465v80.989h1.007Z" transform="translate(-200.586 -183.867)" fill="#cfcfcf"/>
      <path id="Path_1340" data-name="Path 1340" d="M284.789,273.119l-.509-.279v80.141h.509Z" transform="translate(-201.967 -184.537)" fill="#cfcfcf"/>
      <path id="Path_1341" data-name="Path 1341" d="M250.583,267.238a.5.5,0,0,0-.5.5v37.934l1.051,19.87v-57.8a.5.5,0,0,0-.547-.5Z" transform="translate(-186.482 -182)" fill="#cfcfcf"/>
      <path id="Path_1342" data-name="Path 1342" d="M253.422,267.7a.246.246,0,0,0-.252.252v70.865l.5,9.932v-80.8A.252.252,0,0,0,253.422,267.7Z" transform="translate(-187.881 -182.21)" fill="#cfcfcf"/>
      <path id="Path_1343" data-name="Path 1343" d="M264.369,350.762V267.978a.257.257,0,0,0-.509,0v82.789Z" transform="translate(-192.721 -182.236)" fill="#cfcfcf"/>
      <path id="Path_1344" data-name="Path 1344" d="M269.233,267.952a.252.252,0,0,0-.252-.252.246.246,0,0,0-.252.252v82.768h.5Z" transform="translate(-194.926 -182.21)" fill="#cfcfcf"/>
      <path id="Path_1345" data-name="Path 1345" d="M266.682,267.783a.509.509,0,0,0-1.012,0v82.779h1.012Z" transform="translate(-193.54 -182.041)" fill="#cfcfcf"/>
      <path id="Path_1346" data-name="Path 1346" d="M279.923,270.832l-.5-.2V352h.5Z" transform="translate(-199.766 -183.537)" fill="#cfcfcf"/>
      <path id="Path_1347" data-name="Path 1347" d="M220.007,272.14c-.356.17-.689.339-1.007.509v79.856h1.007Z" transform="translate(-172.409 -184.22)" fill="#cfcfcf"/>
      <path id="Path_1348" data-name="Path 1348" d="M217.19,353.148h.5V273.56l-.5.3Z" transform="translate(-171.59 -184.863)" fill="#cfcfcf"/>
      <path id="Path_1349" data-name="Path 1349" d="M248.562,267.7a.246.246,0,0,0-.252.252v83h.071l.432-29.736V267.952a.252.252,0,0,0-.252-.252Z" transform="translate(-185.68 -182.21)" fill="#cfcfcf"/>
      <path id="Path_1350" data-name="Path 1350" d="M222.583,271.16l-.5.224v80.743h.5Z" transform="translate(-173.804 -183.777)" fill="#cfcfcf"/>
      <path id="Path_1351" data-name="Path 1351" d="M235.063,267.24a.5.5,0,0,0-.5.5v82.795l1.007.033V267.743A.5.5,0,0,0,235.063,267.24Z" transform="translate(-179.455 -182.002)" fill="#cfcfcf"/>
      <path id="Path_1352" data-name="Path 1352" d="M232.749,267.952v82.768h.5V267.952A.252.252,0,0,0,233,267.7h-.1A.241.241,0,0,0,232.749,267.952Z" transform="translate(-178.634 -182.21)" fill="#cfcfcf"/>
      <path id="Path_1353" data-name="Path 1353" d="M237.862,267.7a.252.252,0,0,0-.252.252V350.8h.5V267.952a.246.246,0,0,0-.252-.252Z" transform="translate(-180.836 -182.21)" fill="#cfcfcf"/>
      <path id="Path_1354" data-name="Path 1354" d="M209.182,275.767s-.662,14.058-.126,23.459,2.123,50.191,2.123,50.191l19.333.547.711-49.13,2.484,48.949,22.524-.175s-1.948-40.615-1.948-51.258,1.417-16.849,1.237-21.993-7.114-9.226-19.509-10.643-22.7,3.9-24.652,6.019A8.034,8.034,0,0,0,209.182,275.767Z" transform="translate(-167.812 -181.204)" fill="none" stroke="#263238" stroke-miterlimit="10" stroke-width="1"/>
      <path id="Path_1355" data-name="Path 1355" d="M246.758,273.484s-2.627,7.01-2.189,8.1,2.846,1.313,2.846,1.313l.876-9.2s2.189,8.323,3.283,8.1a1.955,1.955,0,0,0,1.751-2.632c-.438-1.757-6.353-6.786-6.353-6.786Z" transform="translate(-183.964 -184.334)" fill="#263238" stroke="#263238" stroke-linecap="round" stroke-linejoin="round" stroke-width="1"/>
      <path id="Path_1356" data-name="Path 1356" d="M211.928,126.83s-9.128,5.926-9.461,7.349.241,6.753.832,8.887,2.846,5.926,3.792,6.638,1.9,5.095.591,6.4-2.84,1.3-5.095.471-4.268-2.014-5.926-1.893-14.578,3.437-16.964,3.907-4.148.711-4.619.832-2.61-.476-3.086-.235-.947-.832-2.6-2.134-2.846-2.369-2.846-2.369l-5.812,5.073.947,1.893s-.235,3.322.832,5.1,2.96,3.2,4.859,6.019,3.907,6.687,7.82,6.687,8.887-4.268,12.329-5.926,6.517-3.316,6.517-3.316-3.437,21.807-5.472,25.834-6.517,9.007-5.472,11.492,2.49,5.472,4.268,5.472,20.975-5.806,24.532-5.806,19.552,6.873,21.342,7.82c0,0-.356,1.9.711,1.9s2.736-1.543,3.437-3.792-2.6-8.537-2.96-12.685-2.255-18.606-2.255-18.606,5.215,14.458,5.926,16.712,4.148,5.095,7.114,4.624,7.7-3.086,6.4-9.6-7.546-16.017-9.336-19.695-5.472-11.492-8.176-14.228-4.98-2.6-8.652-2.6-7.114-.476-7.47-1.642-.235-6.873-.235-6.873l2.49-5.1s1.642.6,2.249-.826a9.621,9.621,0,0,0,.6-3.2s-1.9-.947-6.4-5.335S211.928,126.83,211.928,126.83Z" transform="translate(-146.026 -118.427)" fill="#fff" stroke="#263238" stroke-linecap="round" stroke-linejoin="round" stroke-width="1"/>
      <path id="Path_1357" data-name="Path 1357" d="M245.41,168.141s2.227,2.216,4.5,1.187a35.607,35.607,0,0,0,3.316-1.778s-2.473,4.077-6.621,4.077Z" transform="translate(-184.367 -136.864)" fill="#263238" stroke="#263238" stroke-linecap="round" stroke-linejoin="round" stroke-width="1"/>
      <path id="Path_1358" data-name="Path 1358" d="M247.612,147.47a3.212,3.212,0,0,1-1.187,1.642c-.832.471,0,1.642.832,1.778a2.331,2.331,0,0,0,1.417-.241" transform="translate(-184.671 -127.773)" fill="none" stroke="#263238" stroke-linecap="round" stroke-linejoin="round" stroke-width="1"/>
      <path id="Path_1359" data-name="Path 1359" d="M247.79,156.964s2.014.947,4.378-1.094" transform="translate(-185.445 -131.576)" fill="none" stroke="#263238" stroke-linecap="round" stroke-linejoin="round" stroke-width="1"/>
      <path id="Path_1360" data-name="Path 1360" d="M244.29,144.536c0,.64-.257,1.16-.58,1.16s-.58-.547-.58-1.16.257-1.166.58-1.166S244.29,143.89,244.29,144.536Z" transform="translate(-183.335 -125.916)" fill="#263238"/>
      <path id="Path_1361" data-name="Path 1361" d="M255.97,144.536c0,.64-.257,1.16-.58,1.16s-.58-.547-.58-1.16.263-1.166.58-1.166S255.97,143.89,255.97,144.536Z" transform="translate(-188.623 -125.916)" fill="#263238"/>
      <path id="Path_1362" data-name="Path 1362" d="M241.182,145.51h-4.624a.547.547,0,0,1-.547-.454l-.514-2.517a.547.547,0,0,1,.547-.679h5.6a.547.547,0,0,1,.547.668l-.454,2.517a.575.575,0,0,1-.553.465Z" transform="translate(-179.871 -125.232)" fill="none" stroke="#263238" stroke-linecap="round" stroke-linejoin="round" stroke-width="1"/>
      <path id="Path_1363" data-name="Path 1363" d="M257.49,145.509h-5.155a.624.624,0,0,1-.624-.454l-.547-2.517a.591.591,0,0,1,.624-.679h6.238a.586.586,0,0,1,.624.668l-.509,2.517a.618.618,0,0,1-.651.465Z" transform="translate(-186.97 -125.231)" fill="none" stroke="#263238" stroke-linecap="round" stroke-linejoin="round" stroke-width="1"/>
      <line id="Line_109" data-name="Line 109" x2="2.753" transform="translate(62.039 16.709)" fill="none" stroke="#263238" stroke-linecap="round" stroke-linejoin="round" stroke-width="1"/>
      <line id="Line_110" data-name="Line 110" x2="1.91" transform="translate(62.285 17.952)" fill="none" stroke="#263238" stroke-linecap="round" stroke-linejoin="round" stroke-width="1"/>
      <path id="Path_1364" data-name="Path 1364" d="M241.61,139.848a2.129,2.129,0,0,1,2.988-.58" transform="translate(-182.647 -123.888)" fill="none" stroke="#263238" stroke-linecap="round" stroke-linejoin="round" stroke-width="1"/>
      <path id="Path_1365" data-name="Path 1365" d="M252.38,139.06s1.472-1.521,3.694.17" transform="translate(-187.523 -123.68)" fill="none" stroke="#263238" stroke-linecap="round" stroke-linejoin="round" stroke-width="1"/>
      <path id="Path_1366" data-name="Path 1366" d="M242.266,195.5c-1.778-3.672-5.472-11.492-8.176-14.228s-4.98-2.6-8.652-2.6-7.114-.476-7.47-1.642a13.289,13.289,0,0,1-.219-2.446,22.808,22.808,0,0,1-9.483.246,3.866,3.866,0,0,1-.607,2.911c-1.3,1.3-2.84,1.3-5.095.471s-4.268-2.014-5.926-1.893-14.578,3.437-16.964,3.907-4.148.711-4.619.832-2.61-.476-3.086-.235-.947-.832-2.6-2.134-2.846-2.369-2.846-2.369l-5.79,5.062.947,1.893s-.235,3.322.832,5.1,2.96,3.2,4.859,6.019,3.907,6.687,7.82,6.687,8.887-4.268,12.329-5.926,6.517-3.316,6.517-3.316-3.437,21.807-5.472,25.834-6.517,9.007-5.472,11.492,2.49,5.472,4.268,5.472,20.975-5.806,24.532-5.806,19.552,6.873,21.342,7.82c0,0-.356,1.9.711,1.9s2.736-1.543,3.437-3.792-2.6-8.537-2.96-12.685-2.255-18.606-2.255-18.606,5.215,14.458,5.926,16.712,4.148,5.095,7.114,4.624,7.7-3.086,6.4-9.6S244.056,199.178,242.266,195.5Z" transform="translate(-146.026 -140.047)" fill="#263238" stroke="#263238" stroke-linecap="round" stroke-linejoin="round" stroke-width="1"/>
      <line id="Line_111" data-name="Line 111" x1="2.895" y1="12.603" transform="translate(82.85 48.946)" fill="none" stroke="gray" stroke-linecap="round" stroke-linejoin="round" stroke-width="1"/>
      <path id="Path_1367" data-name="Path 1367" d="M186.17,187.93a24.492,24.492,0,0,1,1.094,9.2" transform="translate(-157.545 -146.092)" fill="none" stroke="gray" stroke-linecap="round" stroke-linejoin="round" stroke-width="1"/>
      <path id="Path_1368" data-name="Path 1368" d="M183,187.13s1.313,5.259.438,9.2" transform="translate(-156.109 -145.73)" fill="none" stroke="gray" stroke-linecap="round" stroke-linejoin="round" stroke-width="1"/>
      <path id="Path_1369" data-name="Path 1369" d="M306.65,241.4a6.466,6.466,0,0,1,7.442,0" transform="translate(-212.095 -169.773)" fill="none" stroke="gray" stroke-linecap="round" stroke-linejoin="round" stroke-width="1"/>
      <path id="Path_1370" data-name="Path 1370" d="M217.617,193.54l.985,6.873-3.612-6.435" transform="translate(-170.594 -148.632)" fill="none" stroke="gray" stroke-linecap="round" stroke-linejoin="round" stroke-width="1"/>
      <path id="Path_1371" data-name="Path 1371" d="M242.664,271.863s-8.98-1.319-10.074-1.094" transform="translate(-178.563 -183.588)" fill="none" stroke="gray" stroke-linecap="round" stroke-linejoin="round" stroke-width="1"/>
      <path id="Path_1372" data-name="Path 1372" d="M299.655,242.84s7.2,1.062,8.5,1.532,1.417,5.554,0,7.327-3.07,1.062-5.2.235-6.14-4.963-6.14-4.963Z" transform="translate(-207.644 -170.954)" fill="#fff" stroke="#263238" stroke-linecap="round" stroke-linejoin="round" stroke-width="1"/>
      <path id="Path_1373" data-name="Path 1373" d="M299.587,237.436l-3.9-3.666-.591,2.6,1.417,2.008Z" transform="translate(-206.866 -166.847)" fill="#fff" stroke="#263238" stroke-linecap="round" stroke-linejoin="round" stroke-width="1"/>
      <path id="Path_1374" data-name="Path 1374" d="M271.4,223.413l-4.788,17.894a.717.717,0,0,0,.7.908l12.219-.1a.733.733,0,0,0,.69-.514l5.133-16.964a1.341,1.341,0,0,0-1.226-1.724l-11.377-.471A1.341,1.341,0,0,0,271.4,223.413Z" transform="translate(-193.954 -161.716)" fill="#fff" stroke="#263238" stroke-linecap="round" stroke-linejoin="round" stroke-width="1"/>
      <path id="Path_1375" data-name="Path 1375" d="M292.619,239.879s-7.628.706-9.128,1.056-1.094,1.527-.219,2.588a29.76,29.76,0,0,0,5.264,4.115c1.4.832,2.791.941,3.541-.235s2.151-6.7,1.828-7.174S292.619,239.879,292.619,239.879Z" transform="translate(-201.156 -169.607)" fill="#fff" stroke="#263238" stroke-linecap="round" stroke-linejoin="round" stroke-width="1"/>
      <line id="Line_112" data-name="Line 112" x2="7.765" y2="1.571" transform="translate(83.353 71.169)" fill="none" stroke="#263238" stroke-linecap="round" stroke-linejoin="round" stroke-width="1"/>
      <line id="Line_113" data-name="Line 113" x2="9.128" y2="2.353" transform="translate(81.454 72.384)" fill="none" stroke="#263238" stroke-linecap="round" stroke-linejoin="round" stroke-width="1"/>
      <line id="Line_114" data-name="Line 114" x2="6.441" y2="1.762" transform="translate(83.173 74.972)" fill="none" stroke="#263238" stroke-linecap="round" stroke-linejoin="round" stroke-width="1"/>
      <path id="Path_1376" data-name="Path 1376" d="M154.637,157.523l-11.3-13.133s-4.23-7.546-6.019-9.664-2.867-1.811-2.867-1.056,1.642,1.965,2.266,2.867a15.706,15.706,0,0,1,1.209,2.566l-1.811,3.929a39.4,39.4,0,0,0,3.322,3.015,5.259,5.259,0,0,0,1.959.755l7.437,15.793Z" transform="translate(-134.127 -121.267)" fill="#fff" stroke="#263238" stroke-linecap="round" stroke-linejoin="round" stroke-width="1"/>
      <path id="Path_1377" data-name="Path 1377" d="M136.727,141.06l2.867,3.623-2.566,3.469-3.168-1.811Z" transform="translate(-133.86 -124.87)" fill="#fff" stroke="#263238" stroke-linecap="round" stroke-linejoin="round" stroke-width="1"/>
      <line id="Line_115" data-name="Line 115" x2="3.081" y2="2.222" transform="translate(0.985 19.665)" fill="none" stroke="#263238" stroke-linecap="round" stroke-linejoin="round" stroke-width="1"/>
      <line id="Line_116" data-name="Line 116" x2="2.95" y2="2.495" transform="translate(1.97 18.154)" fill="none" stroke="#263238" stroke-linecap="round" stroke-linejoin="round" stroke-width="1"/>
      <path id="Path_1378" data-name="Path 1378" d="M145.467,147.738s-1.811-6.944-2.566-7.245c-.586-.235-2.55,1.592-3.4,2.424a1.094,1.094,0,0,0-.246,1.242.476.476,0,0,0,.547.3,8.417,8.417,0,0,0,2.189-1.248s-.6,3.623,1.056,4.531" transform="translate(-136.257 -124.604)" fill="#fff" stroke="#263238" stroke-linecap="round" stroke-linejoin="round" stroke-width="1"/>
    </g>
    <g id="freepik--Data-points--inject-99" transform="translate(27.758 38.547)">
      <path id="Path_1379" data-name="Path 1379" d="M318.239,73.42H302.326a1.746,1.746,0,0,0-1.746,1.746v6.643a1.746,1.746,0,0,0,1.746,1.746h14.091l3.546,4.153V75.166a1.74,1.74,0,0,0-1.724-1.746Z" transform="translate(-151.286 -57.671)" fill="#263238"/>
      <line id="Line_117" data-name="Line 117" x2="11.678" transform="translate(153.005 18.589)" fill="none" stroke="#fff" stroke-miterlimit="10" stroke-width="1"/>
      <line id="Line_118" data-name="Line 118" x2="11.678" transform="translate(153.005 20.723)" fill="none" stroke="#fff" stroke-miterlimit="10" stroke-width="1"/>
      <line id="Line_119" data-name="Line 119" x2="11.678" transform="translate(153.005 22.858)" fill="none" stroke="#fff" stroke-miterlimit="10" stroke-width="1"/>
      <path id="Path_1380" data-name="Path 1380" d="M445.746,202.41h15.908a1.746,1.746,0,0,1,1.746,1.746V210.8a1.746,1.746,0,0,1-1.746,1.746H447.562L444,216.7V204.156A1.746,1.746,0,0,1,445.746,202.41Z" transform="translate(-216.223 -116.075)" fill="#263238"/>
      <line id="Line_120" data-name="Line 120" x1="11.672" transform="translate(231.794 89.176)" fill="none" stroke="#fff" stroke-miterlimit="10" stroke-width="1"/>
      <line id="Line_121" data-name="Line 121" x1="11.672" transform="translate(231.794 91.31)" fill="none" stroke="#fff" stroke-miterlimit="10" stroke-width="1"/>
      <line id="Line_122" data-name="Line 122" x1="11.672" transform="translate(231.794 93.438)" fill="none" stroke="#fff" stroke-miterlimit="10" stroke-width="1"/>
      <path id="Path_1381" data-name="Path 1381" d="M53.179,212.09H37.266a1.74,1.74,0,0,0-1.746,1.74v6.649a1.74,1.74,0,0,0,1.746,1.74H51.357l3.579,4.159V213.83a1.74,1.74,0,0,0-1.757-1.74Z" transform="translate(-31.273 -120.457)" fill="#263238"/>
      <line id="Line_123" data-name="Line 123" x2="11.678" transform="translate(7.957 94.473)" fill="none" stroke="#fff" stroke-miterlimit="10" stroke-width="1"/>
      <line id="Line_124" data-name="Line 124" x2="11.678" transform="translate(7.957 96.607)" fill="none" stroke="#fff" stroke-miterlimit="10" stroke-width="1"/>
      <line id="Line_125" data-name="Line 125" x2="11.678" transform="translate(7.957 98.736)" fill="none" stroke="#fff" stroke-miterlimit="10" stroke-width="1"/>
      <path id="Path_1382" data-name="Path 1382" d="M202.966,292.7h15.913a1.746,1.746,0,0,1,1.746,1.746v6.627a1.746,1.746,0,0,1-1.746,1.746H204.788l-3.568,4.153V294.446A1.746,1.746,0,0,1,202.966,292.7Z" transform="translate(-106.298 -156.956)" fill="#fff" stroke="#8f8f8f" stroke-miterlimit="10" stroke-width="1"/>
      <line id="Line_126" data-name="Line 126" x1="11.678" transform="translate(98.939 138.584)" fill="none" stroke="#8f8f8f" stroke-miterlimit="10" stroke-width="1"/>
      <line id="Line_127" data-name="Line 127" x1="11.678" transform="translate(98.939 140.719)" fill="none" stroke="#8f8f8f" stroke-miterlimit="10" stroke-width="1"/>
      <line id="Line_128" data-name="Line 128" x1="11.678" transform="translate(98.939 142.853)" fill="none" stroke="#8f8f8f" stroke-miterlimit="10" stroke-width="1"/>
      <line id="Line_129" data-name="Line 129" x2="15.733" transform="translate(11.887 124.444)" fill="none" stroke="#8f8f8f" stroke-miterlimit="10" stroke-width="1"/>
      <rect id="Rectangle_1247" data-name="Rectangle 1247" width="14.315" height="11.771" transform="translate(169.367 92.902)" fill="#fff" stroke="#8f8f8f" stroke-miterlimit="10" stroke-width="1"/>
      <path id="Path_1383" data-name="Path 1383" d="M337.55,223.137l5.412-3.5,3.179,4.3,2.7-1.434,2.545,3.021" transform="translate(-168.025 -123.876)" fill="none" stroke="#8f8f8f" stroke-miterlimit="10" stroke-width="1"/>
      <path id="Path_1384" data-name="Path 1384" d="M357.322,218.191a1.751,1.751,0,1,1-1.746-1.751A1.751,1.751,0,0,1,357.322,218.191Z" transform="translate(-175.391 -122.427)" fill="none" stroke="#8f8f8f" stroke-miterlimit="10" stroke-width="1"/>
      <path id="Path_1385" data-name="Path 1385" d="M353.955,84.453h-9.8V73.219l2.577-2.479h7.218Z" transform="translate(-171.018 -56.457)" fill="#fff" stroke="#8f8f8f" stroke-linecap="round" stroke-linejoin="round" stroke-width="1"/>
      <path id="Path_1386" data-name="Path 1386" d="M344.16,73.219h2.665V70.74Z" transform="translate(-171.018 -56.457)" fill="#fff" stroke="#8f8f8f" stroke-linecap="round" stroke-linejoin="round" stroke-width="1"/>
      <path id="Path_1387" data-name="Path 1387" d="M373.525,84.453h-9.8V73.219l2.577-2.479h7.218Z" transform="translate(-179.878 -56.457)" fill="#fff" stroke="#8f8f8f" stroke-linecap="round" stroke-linejoin="round" stroke-width="1"/>
      <path id="Path_1388" data-name="Path 1388" d="M363.73,73.219h2.665V70.74Z" transform="translate(-179.878 -56.457)" fill="#fff" stroke="#8f8f8f" stroke-linecap="round" stroke-linejoin="round" stroke-width="1"/>
      <path id="Path_1389" data-name="Path 1389" d="M393.1,84.453h-9.8V73.219l2.577-2.479H393.1Z" transform="translate(-188.739 -56.457)" fill="#fff" stroke="#8f8f8f" stroke-linecap="round" stroke-linejoin="round" stroke-width="1"/>
      <path id="Path_1390" data-name="Path 1390" d="M383.3,73.219h2.665V70.74Z" transform="translate(-188.739 -56.457)" fill="#fff" stroke="#8f8f8f" stroke-linecap="round" stroke-linejoin="round" stroke-width="1"/>
      <line id="Line_130" data-name="Line 130" x2="30.551" transform="translate(7.328 158.284)" fill="none" stroke="#8f8f8f" stroke-miterlimit="10" stroke-width="1"/>
      <line id="Line_131" data-name="Line 131" y1="10.063" transform="translate(22.623 148.221)" fill="none" stroke="#8f8f8f" stroke-miterlimit="10" stroke-width="1"/>
      <circle id="Ellipse_43" data-name="Ellipse 43" cx="5.609" cy="5.609" r="5.609" transform="translate(0 155.247) rotate(-22.5)" fill="#fff" stroke="#8f8f8f" stroke-miterlimit="10" stroke-width="1"/>
      <path id="Path_1391" data-name="Path 1391" d="M40.954,332.652l-4.608-2.61V323.65a5.609,5.609,0,1,0,4.608,9Z" transform="translate(-29.172 -170.969)" fill="#81d8b7" stroke="#8f8f8f" stroke-miterlimit="10" stroke-width="1"/>
      <path id="Path_1392" data-name="Path 1392" d="M41.727,331.173a3.283,3.283,0,1,1-3.283-3.283A3.283,3.283,0,0,1,41.727,331.173Z" transform="translate(-31.11 -172.889)" fill="#fff" stroke="#8f8f8f" stroke-miterlimit="10" stroke-width="1"/>
      <circle id="Ellipse_44" data-name="Ellipse 44" cx="5.609" cy="5.609" r="5.609" transform="translate(15.296 155.249) rotate(-22.5)" fill="#fff" stroke="#8f8f8f" stroke-miterlimit="10" stroke-width="1"/>
      <path id="Path_1393" data-name="Path 1393" d="M68.9,332.652l-4.6-2.61V323.65a5.609,5.609,0,1,0,4.6,9Z" transform="translate(-41.827 -170.969)" fill="#81d8b7" stroke="#8f8f8f" stroke-miterlimit="10" stroke-width="1"/>
      <path id="Path_1394" data-name="Path 1394" d="M69.677,331.173a3.283,3.283,0,1,1-3.283-3.283A3.283,3.283,0,0,1,69.677,331.173Z" transform="translate(-43.765 -172.889)" fill="#fff" stroke="#8f8f8f" stroke-miterlimit="10" stroke-width="1"/>
      <circle id="Ellipse_45" data-name="Ellipse 45" cx="5.609" cy="5.609" r="5.609" transform="matrix(0.232, -0.973, 0.973, 0.232, 31.16, 162.438)" fill="#fff" stroke="#8f8f8f" stroke-miterlimit="10" stroke-width="1"/>
      <path id="Path_1395" data-name="Path 1395" d="M96.854,332.652l-4.6-2.61V323.65a5.609,5.609,0,1,0,4.6,9Z" transform="translate(-54.482 -170.969)" fill="#81d8b7" stroke="#8f8f8f" stroke-miterlimit="10" stroke-width="1"/>
      <path id="Path_1396" data-name="Path 1396" d="M97.637,331.173a3.283,3.283,0,1,1-3.283-3.283A3.283,3.283,0,0,1,97.637,331.173Z" transform="translate(-56.424 -172.889)" fill="#fff" stroke="#8f8f8f" stroke-miterlimit="10" stroke-width="1"/>
      <circle id="Ellipse_46" data-name="Ellipse 46" cx="17.38" cy="17.38" r="17.38" transform="translate(40.982 31.608)" fill="none" stroke="#8f8f8f" stroke-miterlimit="10" stroke-width="1"/>
      <circle id="Ellipse_47" data-name="Ellipse 47" cx="11.36" cy="11.36" r="11.36" transform="translate(47.002 37.627)" fill="none" stroke="#8f8f8f" stroke-miterlimit="10" stroke-width="1"/>
      <line id="Line_132" data-name="Line 132" x2="7.114" y2="38.579" transform="translate(209.812 103.075)" fill="none" stroke="#8f8f8f" stroke-miterlimit="10" stroke-width="1"/>
      <line id="Line_133" data-name="Line 133" x2="51.559" y2="7.327" transform="translate(67.534 105.538)" fill="none" stroke="#8f8f8f" stroke-miterlimit="10" stroke-width="1"/>
      <line id="Line_134" data-name="Line 134" x1="18.332" y2="20.794" transform="translate(61.241 138.645)" fill="none" stroke="#8f8f8f" stroke-miterlimit="10" stroke-width="1"/>
      <path id="Path_1397" data-name="Path 1397" d="M117.258,245.477,90.17,194.312l33.381-4.1,12.039,33.107,92.754-61.289V133.05" transform="translate(-56.017 -84.67)" fill="none" stroke="#8f8f8f" stroke-miterlimit="10" stroke-width="1"/>
      <path id="Path_1398" data-name="Path 1398" d="M82.7,194.289l-9.029-35.57,33.238-25.085L133.115,133" transform="translate(-48.546 -84.647)" fill="none" stroke="#8f8f8f" stroke-miterlimit="10" stroke-width="1"/>
      <line id="Line_135" data-name="Line 135" x1="42.41" y1="31.465" transform="translate(25.124 74.072)" fill="none" stroke="#8f8f8f" stroke-miterlimit="10" stroke-width="1"/>
      <path id="Path_1399" data-name="Path 1399" d="M115.4,237.5l-20,29.6L72.17,277.721" transform="translate(-47.867 -131.962)" fill="none" stroke="#8f8f8f" stroke-miterlimit="10" stroke-width="1"/>
      <path id="Path_1400" data-name="Path 1400" d="M187.863,298.185,173.17,282.71,178,264.23" transform="translate(-93.597 -144.065)" fill="none" stroke="#8f8f8f" stroke-miterlimit="10" stroke-width="1"/>
      <line id="Line_136" data-name="Line 136" x1="17.801" y1="6.43" transform="translate(61.771 132.215)" fill="none" stroke="#8f8f8f" stroke-miterlimit="10" stroke-width="1"/>
      <path id="Path_1401" data-name="Path 1401" d="M413.828,234.023,395.015,233,375.49,252.645" transform="translate(-185.203 -129.925)" fill="none" stroke="#8f8f8f" stroke-miterlimit="10" stroke-width="1"/>
      <path id="Path_1402" data-name="Path 1402" d="M331.607,104.89l2.216,14.354-9.883,9.741" transform="translate(-161.862 -71.92)" fill="none" stroke="#8f8f8f" stroke-miterlimit="10" stroke-width="1"/>
      <line id="Line_137" data-name="Line 137" y1="8.148" x2="14.945" transform="translate(171.96 39.176)" fill="none" stroke="#8f8f8f" stroke-miterlimit="10" stroke-width="1"/>
      <line id="Line_138" data-name="Line 138" x1="2.731" y1="8.947" transform="translate(197.784 115.409)" fill="none" stroke="#8f8f8f" stroke-miterlimit="10" stroke-width="1"/>
      <line id="Line_139" data-name="Line 139" x1="1.171" y1="9.275" transform="translate(66.095 95.348)" fill="none" stroke="#8f8f8f" stroke-miterlimit="10" stroke-width="1"/>
      <line id="Line_140" data-name="Line 140" x1="9.303" y1="0.952" transform="translate(23.449 107.989)" fill="none" stroke="#8f8f8f" stroke-miterlimit="10" stroke-width="1"/>
      <line id="Line_141" data-name="Line 141" x1="3.519" y1="20.023" transform="translate(19.416 127.104)" fill="none" stroke="#8f8f8f" stroke-miterlimit="10" stroke-width="1"/>
      <path id="Path_1403" data-name="Path 1403" d="M151.314,78.883l-16.9,21.446V59.44h24.072" transform="translate(-76.048 -51.341)" fill="none" stroke="#8f8f8f" stroke-miterlimit="10" stroke-width="1"/>
      <line id="Line_142" data-name="Line 142" x2="37.485" y2="25.72" transform="translate(172.327 77.356)" fill="none" stroke="#8f8f8f" stroke-miterlimit="10" stroke-width="1"/>
      <circle id="Ellipse_48" data-name="Ellipse 48" cx="2.736" cy="2.736" r="2.736" transform="translate(169.224 44.588)" fill="#81d8b7"/>
      <circle id="Ellipse_49" data-name="Ellipse 49" cx="5.04" cy="5.04" r="5.04" transform="translate(165.923 81.508) rotate(-77.16)" fill="#81d8b7"/>
      <circle id="Ellipse_50" data-name="Ellipse 50" cx="2.736" cy="2.736" r="2.736" transform="translate(169.224 74.981)" fill="#81d8b7"/>
      <circle id="Ellipse_51" data-name="Ellipse 51" cx="5.04" cy="5.04" r="5.04" transform="translate(204.602 98.112)" fill="#81d8b7"/>
      <circle id="Ellipse_52" data-name="Ellipse 52" cx="2.736" cy="2.736" r="2.736" transform="translate(206.906 100.416)" fill="#81d8b7"/>
      <circle id="Ellipse_53" data-name="Ellipse 53" cx="5.04" cy="5.04" r="5.04" transform="matrix(0.233, -0.972, 0.972, 0.233, 73.377, 142.156)" fill="#81d8b7"/>
      <circle id="Ellipse_54" data-name="Ellipse 54" cx="2.736" cy="2.736" r="2.736" transform="translate(76.716 135.684)" fill="#81d8b7"/>
      <circle id="Ellipse_55" data-name="Ellipse 55" cx="5.04" cy="5.04" r="5.04" transform="matrix(0.232, -0.973, 0.973, 0.232, 52.233, 52.575)" fill="none" stroke="#81d8b7" stroke-miterlimit="10" stroke-width="1"/>
      <circle id="Ellipse_56" data-name="Ellipse 56" cx="2.736" cy="2.736" r="2.736" transform="translate(55.566 46.104)" fill="#81d8b7"/>
      <circle id="Ellipse_57" data-name="Ellipse 57" cx="1.368" cy="1.368" r="1.368" transform="translate(189.138 121.303)" fill="#81d8b7"/>
      <circle id="Ellipse_58" data-name="Ellipse 58" cx="1.368" cy="1.368" r="1.368" transform="translate(227.049 102.725)" fill="#81d8b7"/>
      <circle id="Ellipse_59" data-name="Ellipse 59" cx="1.368" cy="1.368" r="1.368" transform="translate(160.912 55.549)" fill="#81d8b7"/>
      <circle id="Ellipse_60" data-name="Ellipse 60" cx="1.368" cy="1.368" r="1.368" transform="translate(185.592 37.944)" fill="#81d8b7"/>
      <circle id="Ellipse_61" data-name="Ellipse 61" cx="1.368" cy="1.368" r="1.368" transform="translate(168.168 31.591)" fill="#81d8b7"/>
      <circle id="Ellipse_62" data-name="Ellipse 62" cx="1.368" cy="1.368" r="1.368" transform="translate(59.873 158.071)" fill="#81d8b7"/>
      <circle id="Ellipse_63" data-name="Ellipse 63" cx="1.368" cy="1.368" r="1.368" transform="translate(18.048 125.736)" fill="#81d8b7"/>
      <circle id="Ellipse_64" data-name="Ellipse 64" cx="1.368" cy="1.368" r="1.368" transform="translate(60.042 130.956)" fill="#81d8b7"/>
      <circle id="Ellipse_65" data-name="Ellipse 65" cx="1.368" cy="1.368" r="1.368" transform="translate(82.714 118.819)" fill="#81d8b7"/>
      <path id="Path_1404" data-name="Path 1404" d="M200.828,324.124a2.594,2.594,0,1,1-2.594-2.594A2.594,2.594,0,0,1,200.828,324.124Z" transform="translate(-103.771 -170.009)" fill="#81d8b7"/>
      <circle id="Ellipse_66" data-name="Ellipse 66" cx="1.368" cy="1.368" r="1.368" transform="translate(66.166 104.169)" fill="#81d8b7"/>
      <circle id="Ellipse_67" data-name="Ellipse 67" cx="1.368" cy="1.368" r="1.368" transform="translate(83.934 47.127)" fill="#81d8b7"/>
      <circle id="Ellipse_68" data-name="Ellipse 68" cx="1.368" cy="1.368" r="1.368" transform="translate(73.898 26.174)" fill="#81d8b7"/>
      <circle id="Ellipse_69" data-name="Ellipse 69" cx="1.368" cy="1.368" r="1.368" transform="translate(23.756 72.704)" fill="#81d8b7"/>
      <circle id="Ellipse_70" data-name="Ellipse 70" cx="2.736" cy="2.736" r="2.736" transform="translate(214.19 138.918)" fill="#81d8b7"/>
      <circle id="Ellipse_71" data-name="Ellipse 71" cx="2.736" cy="2.736" r="2.736" transform="translate(44.879 132.494)" fill="#81d8b7"/>
      <circle id="Ellipse_72" data-name="Ellipse 72" cx="2.736" cy="2.736" r="2.736" transform="translate(115.673 110.233)" fill="#81d8b7"/>
      <circle id="Ellipse_73" data-name="Ellipse 73" cx="2.736" cy="2.736" r="2.736" transform="translate(20.139 143.258)" fill="#81d8b7"/>
      <circle id="Ellipse_74" data-name="Ellipse 74" cx="2.736" cy="2.736" r="2.736" transform="translate(31.417 106.906)" fill="#81d8b7"/>
      <path id="Path_1405" data-name="Path 1405" d="M392.456,272.126a1.368,1.368,0,1,1,1.642-1.012A1.368,1.368,0,0,1,392.456,272.126Z" transform="translate(-192.406 -146.418)" fill="#81d8b7"/>
      <path id="Path_1406" data-name="Path 1406" d="M148.224,216.489a1.368,1.368,0,1,1-1.795.722,1.368,1.368,0,0,1,1.795-.722Z" transform="translate(-81.44 -122.399)" fill="#81d8b7"/>
      <path id="Path_1407" data-name="Path 1407" d="M68.434,239.779a1.368,1.368,0,1,1,.3,1.915A1.368,1.368,0,0,1,68.434,239.779Z" transform="translate(-46.057 -132.742)" fill="#81d8b7"/>
      <rect id="Rectangle_1248" data-name="Rectangle 1248" width="2.271" height="6.643" transform="translate(12.932 117.626)" fill="#81d8b7"/>
      <rect id="Rectangle_1249" data-name="Rectangle 1249" width="2.271" height="12.061" transform="translate(16.779 112.208)" fill="#81d8b7"/>
      <rect id="Rectangle_1250" data-name="Rectangle 1250" width="2.271" height="9.965" transform="translate(20.626 114.304)" fill="#81d8b7"/>
      <rect id="Rectangle_1251" data-name="Rectangle 1251" width="2.271" height="4.197" transform="translate(24.473 120.072)" fill="#81d8b7"/>
      <path id="Path_1408" data-name="Path 1408" d="M183.443,45.486h-1.538a.383.383,0,1,1,0-.761h1.538a.383.383,0,1,1,0,.761Zm.383,1.384a.383.383,0,0,0-.383-.383h-1.538a.383.383,0,1,0,0,.761h1.538a.378.378,0,0,0,.383-.378Zm0,1.762a.383.383,0,0,0-.383-.383h-1.538a.383.383,0,1,0,0,.761h1.538a.378.378,0,0,0,.383-.378Zm0,1.762a.383.383,0,0,0-.383-.383h-1.538a.383.383,0,1,0,0,.761h1.538a.378.378,0,0,0,.383-.378Zm0,1.762a.383.383,0,0,0-.383-.383h-1.538a.383.383,0,1,0,0,.761h1.538a.378.378,0,0,0,.383-.378Zm0,1.762a.378.378,0,0,0-.383-.378h-1.538a.378.378,0,0,0-.383.378.383.383,0,0,0,.383.383h1.538a.383.383,0,0,0,.383-.383Zm0,1.762a.378.378,0,0,0-.383-.378h-1.538a.383.383,0,1,0,0,.761h1.538a.383.383,0,0,0,.383-.383Zm0,1.762a.378.378,0,0,0-.383-.378h-1.538a.383.383,0,1,0,0,.761h1.538a.383.383,0,0,0,.383-.394Zm5.768-12.334a.378.378,0,0,0-.378-.383h-4.049a.383.383,0,1,0,0,.761h4.049a.378.378,0,0,0,.378-.378Zm0,1.762a.378.378,0,0,0-.378-.383h-4.049a.383.383,0,1,0,0,.761h4.049a.378.378,0,0,0,.378-.378Zm0,1.762a.378.378,0,0,0-.378-.383h-4.049a.383.383,0,1,0,0,.761h4.049A.378.378,0,0,0,189.594,48.633Zm0,1.762a.378.378,0,0,0-.378-.383h-4.049a.383.383,0,1,0,0,.761h4.049a.378.378,0,0,0,.378-.378Zm0,1.762a.378.378,0,0,0-.378-.383h-4.049a.383.383,0,1,0,0,.761h4.049a.378.378,0,0,0,.378-.378Zm4.848,1.762a.378.378,0,0,0-.383-.378h-4.044a.378.378,0,0,0-.383.378.383.383,0,0,0,.383.383h4.044A.383.383,0,0,0,194.442,53.919Zm0,1.762a.378.378,0,0,0-.383-.378h-4.044a.383.383,0,1,0,0,.761h4.044a.383.383,0,0,0,.383-.383Zm0,1.762a.378.378,0,0,0-.383-.378h-4.044a.383.383,0,1,0,0,.761h4.044a.383.383,0,0,0,.383-.394Zm-3.064-12.334a.443.443,0,1,0-.443.438.443.443,0,0,0,.443-.438Zm1.319,0a.443.443,0,1,0-.438.438.438.438,0,0,0,.449-.438Zm1.324,0a.443.443,0,1,0-.443.438.443.443,0,0,0,.443-.438Zm1.319,0a.443.443,0,1,0-.438.438.438.438,0,0,0,.438-.438Zm1.324,0a.443.443,0,1,0-.438.438.438.438,0,0,0,.438-.438Zm1.324,0a.443.443,0,1,0-.443.438.443.443,0,0,0,.443-.438Zm-6.61,3.524a.443.443,0,1,0-.443.438.443.443,0,0,0,.443-.438Zm1.319,0a.443.443,0,1,0-.438.438.438.438,0,0,0,.449-.438Zm1.324,0a.443.443,0,1,0-.443.438.443.443,0,0,0,.443-.438Zm1.319,0a.443.443,0,1,0-.438.438.438.438,0,0,0,.438-.438Zm1.324,0a.443.443,0,1,0-.438.438.438.438,0,0,0,.438-.438Zm1.324,0a.443.443,0,1,0-.443.438.443.443,0,0,0,.443-.438Zm-2.1,5.067a.443.443,0,1,0-.438.438.438.438,0,0,0,.438-.438Zm1.324,0a.443.443,0,1,0-.443.438.443.443,0,0,0,.443-.438Zm1.319,0a.443.443,0,1,0-.438.438.438.438,0,0,0,.438-.438Zm1.324,0a.443.443,0,1,0-.443.438.443.443,0,0,0,.443-.438Zm1.319,0a.443.443,0,1,0-.438.438.438.438,0,0,0,.438-.438Zm1.324,0a.443.443,0,1,0-.443.438.443.443,0,0,0,.443-.438Zm-6.61,3.634a.443.443,0,1,0-.438.443.438.438,0,0,0,.438-.443Zm1.324,0a.443.443,0,1,0-.443.443.438.438,0,0,0,.443-.443Zm1.319,0a.443.443,0,1,0-.438.443.438.438,0,0,0,.438-.443Zm1.324,0a.443.443,0,1,0-.443.443.438.438,0,0,0,.443-.443Zm1.319,0a.443.443,0,1,0-.438.443.438.438,0,0,0,.438-.443Zm1.324,0a.443.443,0,1,0-.443.443.438.438,0,0,0,.443-.443Z" transform="translate(-97.358 -44.649)" fill="#81d8b7"/>
      <path id="Path_1409" data-name="Path 1409" d="M183.443,71.256h-1.538a.378.378,0,0,1-.383-.378.383.383,0,0,1,.383-.383h1.538a.383.383,0,0,1,.383.383.378.378,0,0,1-.383.378Zm.383,1.384a.383.383,0,0,0-.383-.383h-1.538a.383.383,0,1,0,0,.766h1.538a.383.383,0,0,0,.383-.383Zm0,1.762a.378.378,0,0,0-.383-.378h-1.538a.378.378,0,0,0-.383.378.383.383,0,0,0,.383.383h1.538a.383.383,0,0,0,.383-.383Zm0,1.762a.378.378,0,0,0-.383-.378h-1.538a.383.383,0,1,0,0,.761h1.538a.383.383,0,0,0,.383-.383Zm0,1.762a.378.378,0,0,0-.383-.378h-1.538a.383.383,0,1,0,0,.761h1.538a.383.383,0,0,0,.383-.383Zm0,1.762a.378.378,0,0,0-.383-.378h-1.538a.383.383,0,1,0,0,.761h1.538a.383.383,0,0,0,.383-.383Zm0,1.762a.378.378,0,0,0-.383-.378h-1.538a.383.383,0,1,0,0,.761h1.538a.383.383,0,0,0,.383-.383Zm0,1.768a.383.383,0,0,0-.383-.383h-1.538a.383.383,0,1,0,0,.761h1.538a.378.378,0,0,0,.383-.378Zm5.768-12.34a.383.383,0,0,0-.378-.383h-4.049a.389.389,0,0,0-.383.383.383.383,0,0,0,.383.378h4.049a.378.378,0,0,0,.378-.378Zm0,1.762a.383.383,0,0,0-.378-.383h-4.049a.383.383,0,0,0,0,.766h4.049A.383.383,0,0,0,189.594,72.641Zm0,1.762a.378.378,0,0,0-.378-.378h-4.049a.383.383,0,0,0-.383.378.389.389,0,0,0,.383.383h4.049a.383.383,0,0,0,.378-.383Zm0,1.762a.378.378,0,0,0-.378-.378h-4.049a.383.383,0,1,0,0,.761h4.049a.378.378,0,0,0,.378-.383Zm0,1.762a.378.378,0,0,0-.378-.378h-4.049a.383.383,0,1,0,0,.761h4.049a.378.378,0,0,0,.378-.383Zm4.848,1.762a.378.378,0,0,0-.383-.378h-4.044a.383.383,0,1,0,0,.761h4.044a.383.383,0,0,0,.383-.383Zm0,1.762a.378.378,0,0,0-.383-.378h-4.044a.383.383,0,1,0,0,.761h4.044a.383.383,0,0,0,.383-.383Zm0,1.768a.383.383,0,0,0-.383-.383h-4.044a.383.383,0,1,0,0,.761h4.044a.378.378,0,0,0,.383-.378Zm-3.064-12.34a.443.443,0,1,0-.443.438.443.443,0,0,0,.443-.438Zm1.319,0a.443.443,0,1,0-.438.438.438.438,0,0,0,.449-.438Zm1.324,0a.443.443,0,1,0-.443.438.443.443,0,0,0,.443-.438Zm1.319,0a.443.443,0,1,0-.438.438.438.438,0,0,0,.438-.438Zm1.324,0a.443.443,0,1,0-.438.438.438.438,0,0,0,.438-.438Zm1.324,0a.443.443,0,1,0-.443.438.443.443,0,0,0,.443-.438Zm-6.61,3.524a.443.443,0,1,0-.443.443.438.438,0,0,0,.443-.443Zm1.319,0a.443.443,0,1,0-.438.443.438.438,0,0,0,.449-.443Zm1.324,0a.443.443,0,1,0-.443.443.438.438,0,0,0,.443-.443Zm1.319,0a.443.443,0,1,0-.438.443.438.438,0,0,0,.438-.443Zm1.324,0a.443.443,0,1,0-.438.443.438.438,0,0,0,.438-.443Zm1.324,0a.443.443,0,1,0-.443.443.438.438,0,0,0,.443-.443Zm-2.1,5.095a.443.443,0,1,0-.438.443.438.438,0,0,0,.438-.443Zm1.324,0a.443.443,0,1,0-.443.443.438.438,0,0,0,.443-.443Zm1.319,0a.443.443,0,1,0-.438.443.438.438,0,0,0,.438-.443Zm1.324,0a.443.443,0,1,0-.443.443.438.438,0,0,0,.443-.443Zm1.319,0a.443.443,0,1,0-.438.443.438.438,0,0,0,.438-.443Zm1.324,0a.443.443,0,1,0-.443.443.438.438,0,0,0,.443-.443Zm-6.61,3.634a.443.443,0,1,0-.438.443.438.438,0,0,0,.438-.471Zm1.324,0a.443.443,0,1,0-.443.443.438.438,0,0,0,.443-.471Zm1.319,0a.443.443,0,1,0-.438.443.438.438,0,0,0,.438-.471Zm1.324,0a.443.443,0,1,0-.443.443.438.438,0,0,0,.443-.471Zm1.319,0a.443.443,0,1,0-.438.443.438.438,0,0,0,.438-.471Zm1.324,0a.443.443,0,1,0-.443.443.438.438,0,0,0,.443-.471Z" transform="translate(-97.358 -56.317)" fill="#81d8b7"/>
      <path id="Path_1410" data-name="Path 1410" d="M183.443,97.656h-1.538a.383.383,0,1,1,0-.761h1.538a.383.383,0,1,1,0,.761Zm.383,1.384a.383.383,0,0,0-.383-.383h-1.538a.383.383,0,1,0,0,.761h1.538a.378.378,0,0,0,.383-.378Zm0,1.762a.383.383,0,0,0-.383-.383h-1.538a.383.383,0,1,0,0,.761h1.538a.378.378,0,0,0,.383-.378Zm0,1.762a.383.383,0,0,0-.383-.383h-1.538a.383.383,0,1,0,0,.761h1.538a.378.378,0,0,0,.383-.378Zm0,1.762a.383.383,0,0,0-.383-.383h-1.538a.383.383,0,1,0,0,.761h1.538a.378.378,0,0,0,.383-.378Zm0,1.762a.383.383,0,0,0-.383-.383h-1.538a.383.383,0,0,0-.383.383.378.378,0,0,0,.383.378h1.538a.378.378,0,0,0,.383-.378Zm0,1.762a.378.378,0,0,0-.383-.378h-1.538a.378.378,0,0,0-.383.378.383.383,0,0,0,.383.383h1.538a.383.383,0,0,0,.383-.367Zm0,1.762a.378.378,0,0,0-.383-.378h-1.538a.383.383,0,1,0,0,.761h1.538A.383.383,0,0,0,183.826,109.613Zm5.768-12.334a.378.378,0,0,0-.378-.383h-4.049a.383.383,0,1,0,0,.761h4.049A.378.378,0,0,0,189.594,97.279Zm0,1.762a.378.378,0,0,0-.378-.383h-4.049a.383.383,0,1,0,0,.761h4.049A.378.378,0,0,0,189.594,99.041Zm0,1.762a.378.378,0,0,0-.378-.383h-4.049a.383.383,0,1,0,0,.761h4.049a.378.378,0,0,0,.378-.378Zm0,1.762a.378.378,0,0,0-.378-.383h-4.049a.383.383,0,1,0,0,.761h4.049A.378.378,0,0,0,189.594,102.565Zm0,1.762a.378.378,0,0,0-.378-.383h-4.049a.383.383,0,1,0,0,.761h4.049a.378.378,0,0,0,.378-.378Zm4.848,1.762a.383.383,0,0,0-.383-.383h-4.044a.383.383,0,0,0-.383.383.378.378,0,0,0,.383.378h4.044a.378.378,0,0,0,.383-.378Zm0,1.762a.378.378,0,0,0-.383-.378h-4.044a.378.378,0,0,0-.383.378.383.383,0,0,0,.383.383h4.044a.383.383,0,0,0,.383-.367Zm0,1.762a.378.378,0,0,0-.383-.378h-4.044a.383.383,0,1,0,0,.761h4.044A.383.383,0,0,0,194.442,109.613Zm-3.064-12.334a.443.443,0,1,0-.443.438.443.443,0,0,0,.443-.438Zm1.319,0a.443.443,0,1,0-.438.438.438.438,0,0,0,.449-.438Zm1.324,0a.443.443,0,1,0-.443.438.443.443,0,0,0,.443-.438Zm1.319,0a.443.443,0,1,0-.438.438.438.438,0,0,0,.438-.438Zm1.324,0a.443.443,0,1,0-.438.438A.438.438,0,0,0,196.664,97.279Zm1.324,0a.443.443,0,1,0-.443.438.443.443,0,0,0,.443-.438Zm-6.61,3.524a.443.443,0,1,0-.443.438.443.443,0,0,0,.443-.438Zm1.319,0a.443.443,0,1,0-.438.438.438.438,0,0,0,.449-.438Zm1.324,0a.443.443,0,1,0-.443.438.443.443,0,0,0,.443-.438Zm1.319,0a.443.443,0,1,0-.438.438.438.438,0,0,0,.438-.438Zm1.324,0a.443.443,0,1,0-.438.438.438.438,0,0,0,.438-.438Zm1.324,0a.443.443,0,1,0-.443.438.443.443,0,0,0,.443-.438Zm-2.1,5.067a.443.443,0,1,0-.438.438.438.438,0,0,0,.438-.438Zm1.324,0a.443.443,0,1,0-.443.438.443.443,0,0,0,.443-.438Zm1.319,0a.443.443,0,1,0-.438.438.438.438,0,0,0,.438-.438Zm1.324,0a.443.443,0,1,0-.443.438.443.443,0,0,0,.443-.438Zm1.319,0a.443.443,0,1,0-.438.438.438.438,0,0,0,.438-.438Zm1.324,0a.443.443,0,1,0-.443.438.443.443,0,0,0,.443-.438Zm-6.61,3.639a.443.443,0,1,0-.438.443.443.443,0,0,0,.438-.443Zm1.324,0a.443.443,0,1,0-.443.443A.443.443,0,0,0,197.217,109.509Zm1.319,0a.443.443,0,1,0-.438.443.443.443,0,0,0,.438-.443Zm1.324,0a.443.443,0,1,0-.443.443A.443.443,0,0,0,199.86,109.509Zm1.319,0a.443.443,0,1,0-.438.443A.443.443,0,0,0,201.178,109.509Zm1.324,0a.443.443,0,1,0-.443.443.443.443,0,0,0,.443-.443Z" transform="translate(-97.358 -68.27)" fill="#81d8b7"/>
      <path id="Path_1411" data-name="Path 1411" d="M226.751,45.477h-1.543a.383.383,0,0,1,0-.761h1.543a.383.383,0,1,1,0,.761Zm.383,1.384a.383.383,0,0,0-.383-.383h-1.543a.383.383,0,0,0,0,.761h1.543a.378.378,0,0,0,.361-.378Zm0,1.762a.383.383,0,0,0-.383-.383h-1.543a.383.383,0,0,0,0,.761h1.543a.378.378,0,0,0,.361-.378Zm0,1.762a.383.383,0,0,0-.383-.383h-1.543a.383.383,0,0,0,0,.761h1.543a.378.378,0,0,0,.361-.378Zm0,1.762a.383.383,0,0,0-.383-.383h-1.543a.383.383,0,0,0,0,.761h1.543a.378.378,0,0,0,.361-.378Zm0,1.762a.378.378,0,0,0-.383-.378h-1.543a.378.378,0,0,0-.378.378.383.383,0,0,0,.378.383h1.543a.383.383,0,0,0,.361-.383Zm0,1.762a.378.378,0,0,0-.383-.378h-1.543a.383.383,0,0,0,0,.761h1.543a.383.383,0,0,0,.361-.383Zm-.022,1.751a.378.378,0,0,0-.383-.378h-1.543a.383.383,0,0,0,0,.761h1.543a.383.383,0,0,0,.383-.383Zm5.768-12.334a.378.378,0,0,0-.378-.383h-4.049a.383.383,0,1,0,0,.761H232.5a.378.378,0,0,0,.4-.367Zm0,1.762a.378.378,0,0,0-.378-.383h-4.049a.383.383,0,1,0,0,.761H232.5a.378.378,0,0,0,.4-.367Zm0,1.762a.378.378,0,0,0-.378-.383h-4.049a.383.383,0,1,0,0,.761H232.5a.378.378,0,0,0,.4-.367Zm0,1.762a.378.378,0,0,0-.378-.383h-4.049a.383.383,0,1,0,0,.761H232.5a.378.378,0,0,0,.4-.367Zm0,1.762a.378.378,0,0,0-.378-.383h-4.049a.383.383,0,1,0,0,.761H232.5a.378.378,0,0,0,.4-.367Zm4.848,1.762a.378.378,0,0,0-.383-.378H233.3a.378.378,0,0,0-.383.378.383.383,0,0,0,.383.383h4.044a.383.383,0,0,0,.4-.372Zm0,1.762a.378.378,0,0,0-.383-.378H233.3a.383.383,0,1,0,0,.761h4.044a.383.383,0,0,0,.4-.372Zm0,1.762a.378.378,0,0,0-.383-.378H233.3a.383.383,0,1,0,0,.761h4.044a.383.383,0,0,0,.4-.383Zm-3.064-12.334a.172.172,0,1,0,.022.011Zm1.319,0a.443.443,0,1,0-.438.438A.438.438,0,0,0,236,45.1Zm1.324,0a.172.172,0,1,0,.022.011Zm1.319,0a.443.443,0,1,0-.438.438.438.438,0,0,0,.46-.427Zm1.324,0a.172.172,0,1,0,.022.011Zm1.324,0a.172.172,0,1,0,.022.011Zm-6.61,3.524a.172.172,0,1,0,.022.011Zm1.319,0a.443.443,0,1,0-.438.438.438.438,0,0,0,.46-.427Zm1.324,0a.172.172,0,1,0,.022.011Zm1.319,0a.443.443,0,1,0-.438.438.438.438,0,0,0,.46-.427Zm1.324,0a.172.172,0,1,0,.022.011Zm1.324,0a.172.172,0,1,0,.022.011Zm-2.1,5.067a.172.172,0,1,0,.022.011Zm1.324,0a.172.172,0,1,0,.022.011Zm1.319,0a.443.443,0,1,0-.438.438.438.438,0,0,0,.46-.427Zm1.324,0a.172.172,0,1,0,.022.011Zm1.319,0a.443.443,0,1,0-.438.438.438.438,0,0,0,.46-.427Zm1.324,0a.172.172,0,1,0,.022.011Zm-6.61,3.634a.443.443,0,1,0-.443.443.438.438,0,0,0,.465-.432Zm1.324,0a.443.443,0,1,0-.443.443.438.438,0,0,0,.465-.432Zm1.319,0a.443.443,0,1,0-.438.443.438.438,0,0,0,.46-.432Zm1.324,0a.443.443,0,1,0-.443.443.438.438,0,0,0,.465-.432Zm1.319,0a.443.443,0,1,0-.438.443.438.438,0,0,0,.46-.432Zm1.324,0a.443.443,0,1,0-.443.443.438.438,0,0,0,.465-.432Z" transform="translate(-116.988 -44.64)" fill="#81d8b7"/>
      <path id="Path_1412" data-name="Path 1412" d="M226.766,71.9h-1.543a.383.383,0,0,1,0-.761h1.543a.383.383,0,1,1,0,.761Zm.383,1.379a.378.378,0,0,0-.383-.378h-1.543a.383.383,0,0,0,0,.761h1.543a.383.383,0,0,0,.361-.383Zm0,1.762a.378.378,0,0,0-.383-.378h-1.543a.383.383,0,0,0,0,.761h1.543a.383.383,0,0,0,.361-.383Zm0,1.762a.378.378,0,0,0-.383-.378h-1.543a.383.383,0,0,0,0,.761h1.543a.383.383,0,0,0,.361-.383Zm0,1.762a.378.378,0,0,0-.383-.378h-1.543a.383.383,0,0,0,0,.761h1.543a.383.383,0,0,0,.361-.383Zm-.022,1.778a.383.383,0,0,0-.383-.383H225.2a.383.383,0,0,0,0,.761h1.543a.378.378,0,0,0,.383-.378Zm0,1.762a.383.383,0,0,0-.383-.383H225.2a.383.383,0,0,0,0,.761h1.543a.378.378,0,0,0,.383-.389Zm0,1.762a.383.383,0,0,0-.383-.383H225.2a.383.383,0,0,0,0,.761h1.543a.378.378,0,0,0,.383-.389Zm5.768-12.34a.378.378,0,0,0-.378-.378h-4.049a.383.383,0,1,0,0,.761h4.049a.378.378,0,0,0,.4-.394Zm0,1.762a.378.378,0,0,0-.378-.378h-4.049a.383.383,0,1,0,0,.761h4.049a.378.378,0,0,0,.4-.394Zm0,1.762a.378.378,0,0,0-.378-.378h-4.049a.383.383,0,1,0,0,.761h4.049a.378.378,0,0,0,.4-.394Zm0,1.762a.378.378,0,0,0-.378-.378h-4.049a.383.383,0,1,0,0,.761h4.049a.378.378,0,0,0,.4-.394Zm0,1.762a.378.378,0,0,0-.378-.378h-4.049a.383.383,0,1,0,0,.761h4.049a.378.378,0,0,0,.4-.394Zm4.87,1.768a.383.383,0,0,0-.383-.383h-4.044a.383.383,0,1,0,0,.761h4.044a.378.378,0,0,0,.383-.378Zm0,1.762a.383.383,0,0,0-.383-.383h-4.044a.383.383,0,1,0,0,.761h4.044a.378.378,0,0,0,.383-.389Zm0,1.762a.383.383,0,0,0-.383-.383h-4.044a.383.383,0,1,0,0,.761h4.044a.378.378,0,0,0,.383-.389ZM234.7,71.523a.443.443,0,1,0-.443.443.438.438,0,0,0,.443-.454Zm1.319,0a.443.443,0,1,0-.438.443.438.438,0,0,0,.438-.454Zm1.324,0a.443.443,0,1,0-.443.443.438.438,0,0,0,.443-.454Zm1.319,0a.443.443,0,1,0-.438.443.438.438,0,0,0,.438-.454Zm1.324,0a.443.443,0,1,0-.443.443.438.438,0,0,0,.443-.454Zm1.324,0a.457.457,0,1,1,0-.011Zm-6.61,3.524a.443.443,0,1,0-.443.443.438.438,0,0,0,.443-.454Zm1.319,0a.443.443,0,1,0-.438.443.438.438,0,0,0,.438-.454Zm1.324,0a.443.443,0,1,0-.443.443.438.438,0,0,0,.443-.454Zm1.319,0a.443.443,0,1,0-.438.443.438.438,0,0,0,.438-.454Zm1.324,0a.443.443,0,1,0-.443.443.438.438,0,0,0,.443-.454Zm1.324,0a.457.457,0,1,1,0-.011Zm-2.1,5.067a.443.443,0,1,0-.443.443.438.438,0,0,0,.443-.454Zm1.324,0a.443.443,0,1,0-.443.443.438.438,0,0,0,.443-.454Zm1.319,0a.443.443,0,1,0-.438.443.438.438,0,0,0,.438-.454Zm1.324,0a.443.443,0,1,0-.443.443.438.438,0,0,0,.443-.454Zm1.319,0a.443.443,0,1,0-.438.443.438.438,0,0,0,.438-.454Zm1.324,0a.443.443,0,1,0-.443.443.438.438,0,0,0,.443-.454Zm-6.61,3.639a.44.44,0,1,1,0-.011Zm1.324,0a.443.443,0,1,1,0-.011Zm1.319,0a.443.443,0,1,0-.438.438.438.438,0,0,0,.438-.449Zm1.324,0a.44.44,0,1,1,0-.011Zm1.319,0a.443.443,0,1,0-.438.438.438.438,0,0,0,.438-.449Zm1.324,0a.44.44,0,1,1,0-.011Z" transform="translate(-117.003 -56.611)" fill="#92e3a9"/>
      <path id="Path_1413" data-name="Path 1413" d="M382.811,127.005h-1.543a.383.383,0,0,1,0-.761h1.543a.383.383,0,1,1,0,.761Zm.383,1.379a.378.378,0,0,0-.383-.378h-1.543a.383.383,0,0,0,0,.761h1.543A.383.383,0,0,0,383.194,128.384Zm0,1.768a.383.383,0,0,0-.383-.383h-1.543a.383.383,0,0,0,0,.761h1.543a.378.378,0,0,0,.383-.378Zm0,1.762a.383.383,0,0,0-.383-.383h-1.543a.383.383,0,0,0,0,.761h1.543a.378.378,0,0,0,.383-.378Zm0,1.762a.383.383,0,0,0-.383-.383h-1.543a.383.383,0,0,0,0,.761h1.543a.378.378,0,0,0,.383-.378Zm0,1.762a.383.383,0,0,0-.383-.383h-1.543a.383.383,0,0,0,0,.761h1.543a.378.378,0,0,0,.383-.378Zm0,1.762a.383.383,0,0,0-.383-.383h-1.543a.383.383,0,0,0,0,.761h1.543a.378.378,0,0,0,.383-.378Zm0,1.762a.383.383,0,0,0-.383-.383h-1.543a.383.383,0,0,0-.378.383.378.378,0,0,0,.378.378h1.543a.378.378,0,0,0,.383-.378Zm5.768-12.329a.378.378,0,0,0-.378-.378h-4.049a.383.383,0,1,0,0,.761h4.077a.378.378,0,0,0,.35-.383Zm0,1.762a.378.378,0,0,0-.378-.378h-4.049a.383.383,0,1,0,0,.761h4.077a.378.378,0,0,0,.35-.394Zm0,1.768a.378.378,0,0,0-.378-.383h-4.049a.383.383,0,1,0,0,.761h4.077a.378.378,0,0,0,.35-.389Zm0,1.762a.378.378,0,0,0-.378-.383h-4.049a.383.383,0,1,0,0,.761h4.077a.378.378,0,0,0,.35-.389Zm0,1.762a.378.378,0,0,0-.378-.383h-4.049a.383.383,0,1,0,0,.761h4.077a.378.378,0,0,0,.35-.389Zm4.848,1.762a.383.383,0,0,0-.383-.383h-4.044a.383.383,0,1,0,0,.761h4.044a.378.378,0,0,0,.383-.389Zm0,1.762a.383.383,0,0,0-.383-.383h-4.044a.383.383,0,1,0,0,.761h4.044a.378.378,0,0,0,.383-.389Zm0,1.762a.383.383,0,0,0-.383-.383h-4.044a.383.383,0,0,0-.383.383.378.378,0,0,0,.383.378h4.044a.378.378,0,0,0,.383-.389Zm-3.064-12.34a.443.443,0,1,0-.443.443.438.438,0,0,0,.443-.443Zm1.319,0a.443.443,0,1,0-.438.443.438.438,0,0,0,.438-.443Zm1.324,0a.443.443,0,1,0-.443.443.438.438,0,0,0,.443-.443Zm1.319,0a.443.443,0,1,0-.438.443.438.438,0,0,0,.438-.443Zm1.324,0a.443.443,0,1,0-.443.443.438.438,0,0,0,.443-.443Zm1.324,0a.185.185,0,1,0,.011,0Zm-6.61,3.53a.443.443,0,1,1,0-.011Zm1.319,0a.443.443,0,1,0-.438.438.438.438,0,0,0,.438-.449Zm1.324,0a.437.437,0,1,1,0-.011Zm1.319,0a.443.443,0,1,0-.438.438.438.438,0,0,0,.438-.449Zm1.324,0a.44.44,0,1,1,0-.011Zm1.324,0a.434.434,0,1,0,.011-.011Zm-2.1,5.067a.434.434,0,1,1,0-.011Zm1.324,0a.434.434,0,1,1,0-.011Zm1.319,0a.443.443,0,1,0-.438.438.438.438,0,0,0,.449-.449Zm1.324,0a.434.434,0,1,1,0-.011Zm1.319,0a.443.443,0,1,0-.438.438.438.438,0,0,0,.438-.449Zm1.324,0a.437.437,0,1,1,0-.011Zm-6.61,3.634a.431.431,0,1,1,0-.011Zm1.324,0a.431.431,0,1,1,0-.011Zm1.319,0a.443.443,0,1,0-.438.438.438.438,0,0,0,.449-.449Zm1.324,0a.431.431,0,1,1,0-.011Zm1.319,0a.443.443,0,1,0-.438.438.438.438,0,0,0,.438-.449Zm1.324,0a.434.434,0,1,1,0-.011Z" transform="translate(-187.648 -81.564)" fill="#81d8b7"/>
      <path id="Path_1414" data-name="Path 1414" d="M382.811,152.766h-1.543a.383.383,0,0,1,0-.761h1.543a.383.383,0,1,1,0,.761Zm.383,1.384a.383.383,0,0,0-.383-.383h-1.543a.383.383,0,0,0,0,.761h1.543a.378.378,0,0,0,.383-.367Zm0,1.762a.383.383,0,0,0-.383-.383h-1.543a.383.383,0,0,0,0,.761h1.543a.378.378,0,0,0,.383-.378Zm0,1.762a.383.383,0,0,0-.383-.383h-1.543a.383.383,0,0,0-.378.383.378.378,0,0,0,.378.378h1.543a.378.378,0,0,0,.383-.378Zm0,1.762a.378.378,0,0,0-.383-.378h-1.543a.378.378,0,0,0-.378.378.383.383,0,0,0,.378.383h1.543A.383.383,0,0,0,383.194,159.437Zm0,1.762a.378.378,0,0,0-.383-.378h-1.543a.383.383,0,0,0,0,.761h1.543A.383.383,0,0,0,383.194,161.2Zm0,1.762a.378.378,0,0,0-.383-.378h-1.543a.383.383,0,0,0,0,.761h1.543A.383.383,0,0,0,383.194,162.961Zm0,1.762a.378.378,0,0,0-.383-.378h-1.543a.383.383,0,0,0,0,.761h1.543A.383.383,0,0,0,383.194,164.723Zm5.768-12.334a.377.377,0,0,0-.378-.383h-4.049a.383.383,0,1,0,0,.761h4.077a.378.378,0,0,0,.35-.378Zm0,1.762a.378.378,0,0,0-.378-.383h-4.049a.383.383,0,1,0,0,.761h4.077a.378.378,0,0,0,.35-.367Zm0,1.762a.378.378,0,0,0-.378-.383h-4.049a.383.383,0,1,0,0,.761h4.077a.378.378,0,0,0,.35-.378Zm0,1.762a.383.383,0,0,0-.378-.383h-4.049a.383.383,0,0,0-.383.383.378.378,0,0,0,.383.378h4.077a.378.378,0,0,0,.35-.378Zm0,1.762a.378.378,0,0,0-.35-.35h-4.049a.378.378,0,0,0-.383.378.383.383,0,0,0,.383.383h4.049a.383.383,0,0,0,.35-.41Zm4.848,1.762a.378.378,0,0,0-.383-.378h-4.044a.383.383,0,1,0,0,.761h4.044a.383.383,0,0,0,.383-.383Zm0,1.762a.378.378,0,0,0-.383-.378h-4.044a.383.383,0,1,0,0,.761h4.044a.383.383,0,0,0,.383-.383Zm0,1.762a.378.378,0,0,0-.383-.378h-4.044a.383.383,0,1,0,0,.761h4.044a.383.383,0,0,0,.383-.383Zm-3.064-12.334a.443.443,0,1,0-.443.438.443.443,0,0,0,.443-.438Zm1.319,0a.443.443,0,1,0-.438.438.438.438,0,0,0,.438-.438Zm1.324,0a.443.443,0,1,0-.443.438.443.443,0,0,0,.443-.438Zm1.319,0a.443.443,0,1,0-.438.438.438.438,0,0,0,.438-.438Zm1.324,0a.443.443,0,1,0-.443.438.443.443,0,0,0,.443-.438Zm1.324,0a.184.184,0,1,0,.011,0Zm-6.61,3.524a.443.443,0,1,0-.443.438.443.443,0,0,0,.443-.438Zm1.319,0a.443.443,0,1,0-.438.438A.438.438,0,0,0,392.064,155.913Zm1.324,0a.443.443,0,1,0-.443.438.443.443,0,0,0,.443-.438Zm1.319,0a.443.443,0,1,0-.438.438.438.438,0,0,0,.438-.438Zm1.324,0a.443.443,0,1,0-.443.438.443.443,0,0,0,.443-.438Zm1.324,0a.184.184,0,1,0,.011,0Zm-2.1,5.067a.443.443,0,1,0-.443.438.443.443,0,0,0,.443-.438Zm1.324,0a.443.443,0,1,0-.443.438.443.443,0,0,0,.443-.438Zm1.319,0a.443.443,0,1,0-.438.438.438.438,0,0,0,.449-.438Zm1.324,0a.443.443,0,1,0-.443.438.443.443,0,0,0,.443-.438Zm1.319,0a.443.443,0,1,0-.438.438.438.438,0,0,0,.438-.438Zm1.324,0a.443.443,0,1,0-.443.438.443.443,0,0,0,.443-.438Zm-6.61,3.634a.443.443,0,1,0-.443.443.438.438,0,0,0,.443-.443Zm1.324,0a.443.443,0,1,0-.443.443.438.438,0,0,0,.443-.443Zm1.319,0a.443.443,0,1,0-.438.443.438.438,0,0,0,.449-.443Zm1.324,0a.443.443,0,1,0-.443.443.438.438,0,0,0,.443-.443Zm1.319,0a.443.443,0,1,0-.438.443.438.438,0,0,0,.438-.443Zm1.324,0a.443.443,0,1,0-.443.443.438.438,0,0,0,.443-.443Z" transform="translate(-187.648 -93.223)" fill="#81d8b7"/>
      <path id="Path_1415" data-name="Path 1415" d="M382.844,179.166H381.3a.383.383,0,0,1,0-.761h1.543a.383.383,0,1,1,0,.761Zm.383,1.379a.378.378,0,0,0-.383-.378H381.3a.383.383,0,0,0,0,.761h1.543a.383.383,0,0,0,.383-.383Zm0,1.762a.378.378,0,0,0-.383-.378H381.3a.383.383,0,0,0,0,.761h1.543a.383.383,0,0,0,.383-.383Zm0,1.768a.383.383,0,0,0-.383-.383H381.3a.383.383,0,0,0,0,.761h1.543a.378.378,0,0,0,.383-.378Zm0,1.762a.383.383,0,0,0-.383-.383H381.3a.383.383,0,0,0,0,.761h1.543a.378.378,0,0,0,.383-.4Zm0,1.762a.383.383,0,0,0-.383-.383H381.3a.383.383,0,0,0,0,.761h1.543a.378.378,0,0,0,.383-.378Zm0,1.762a.383.383,0,0,0-.383-.383H381.3a.383.383,0,0,0,0,.761h1.543a.378.378,0,0,0,.383-.378Zm0,1.762a.383.383,0,0,0-.383-.383H381.3a.383.383,0,0,0,0,.761h1.543a.378.378,0,0,0,.383-.378Zm5.768-12.34a.378.378,0,0,0-.378-.378h-4.049a.383.383,0,1,0,0,.761h4.077a.378.378,0,0,0,.35-.383Zm0,1.762a.378.378,0,0,0-.378-.378h-4.049a.383.383,0,1,0,0,.761h4.077a.378.378,0,0,0,.35-.383Zm0,1.762a.378.378,0,0,0-.378-.378h-4.049a.383.383,0,1,0,0,.761h4.077a.378.378,0,0,0,.35-.383Zm0,1.768a.377.377,0,0,0-.378-.383h-4.049a.383.383,0,1,0,0,.761h4.077a.378.378,0,0,0,.35-.378Zm0,1.762a.378.378,0,0,0-.378-.383h-4.049a.383.383,0,1,0,0,.761h4.077a.378.378,0,0,0,.35-.4Zm4.848,1.762a.383.383,0,0,0-.383-.383h-4.044a.383.383,0,1,0,0,.761h4.044a.378.378,0,0,0,.383-.378Zm0,1.762a.383.383,0,0,0-.383-.383h-4.044a.383.383,0,1,0,0,.761h4.044a.378.378,0,0,0,.383-.378Zm0,1.762a.383.383,0,0,0-.383-.383h-4.044a.383.383,0,1,0,0,.761h4.044a.378.378,0,0,0,.383-.378Zm-3.064-12.34a.443.443,0,1,0-.443.443.438.438,0,0,0,.443-.443Zm1.319,0a.443.443,0,1,0-.438.443.438.438,0,0,0,.438-.443Zm1.324,0a.443.443,0,1,0-.443.443.438.438,0,0,0,.443-.443Zm1.319,0a.443.443,0,1,0-.438.443.438.438,0,0,0,.438-.443Zm1.324,0a.443.443,0,1,0-.443.443.438.438,0,0,0,.443-.443Zm1.324,0a.185.185,0,1,0,.011,0Zm-6.61,3.524a.443.443,0,1,0-.443.443.438.438,0,0,0,.443-.443Zm1.319,0a.443.443,0,1,0-.438.443.438.438,0,0,0,.438-.443Zm1.324,0a.443.443,0,1,0-.443.443.438.438,0,0,0,.443-.443Zm1.319,0a.443.443,0,1,0-.438.443.438.438,0,0,0,.438-.443Zm1.324,0a.443.443,0,1,0-.443.443.438.438,0,0,0,.443-.443Zm1.324,0a.185.185,0,1,0,.011,0Zm-2.1,5.067a.443.443,0,1,0-.443.443.438.438,0,0,0,.443-.443Zm1.324,0a.443.443,0,1,0-.443.443.438.438,0,0,0,.443-.443Zm1.319,0a.443.443,0,1,0-.438.443.438.438,0,0,0,.449-.443Zm1.324,0a.443.443,0,1,0-.443.443.438.438,0,0,0,.443-.443Zm1.319,0a.443.443,0,1,0-.438.443.438.438,0,0,0,.438-.443Zm1.324,0a.443.443,0,1,0-.443.443.438.438,0,0,0,.443-.443Zm-6.61,3.639a.443.443,0,1,0-.443.438.443.443,0,0,0,.443-.438Zm1.324,0a.443.443,0,1,0-.443.438.443.443,0,0,0,.443-.438Zm1.319,0a.443.443,0,1,0-.438.438.438.438,0,0,0,.449-.438Zm1.324,0a.443.443,0,1,0-.443.438.443.443,0,0,0,.443-.438Zm1.319,0a.443.443,0,1,0-.438.438.438.438,0,0,0,.438-.438Zm1.324,0a.443.443,0,1,0-.443.438.443.443,0,0,0,.443-.438Z" transform="translate(-187.681 -105.176)" fill="#81d8b7"/>
      <path id="Path_1416" data-name="Path 1416" d="M426.081,127.005h-1.543a.383.383,0,0,1,0-.761h1.543a.383.383,0,1,1,0,.761Zm.383,1.379a.378.378,0,0,0-.383-.378h-1.543a.383.383,0,0,0,0,.761h1.543A.383.383,0,0,0,426.464,128.384Zm0,1.768a.383.383,0,0,0-.383-.383h-1.543a.383.383,0,0,0,0,.761h1.543a.378.378,0,0,0,.383-.378Zm0,1.762a.383.383,0,0,0-.383-.383h-1.543a.383.383,0,0,0,0,.761h1.543a.378.378,0,0,0,.383-.378Zm0,1.762a.383.383,0,0,0-.383-.383h-1.543a.383.383,0,0,0,0,.761h1.543a.378.378,0,0,0,.383-.378Zm0,1.762a.383.383,0,0,0-.383-.383h-1.543a.383.383,0,0,0,0,.761h1.543a.378.378,0,0,0,.383-.378Zm0,1.762a.383.383,0,0,0-.383-.383h-1.543a.383.383,0,0,0,0,.761h1.543a.378.378,0,0,0,.383-.378Zm0,1.762a.383.383,0,0,0-.383-.383h-1.543a.383.383,0,0,0-.378.383.378.378,0,0,0,.378.378h1.543a.378.378,0,0,0,.383-.378Zm5.768-12.329a.378.378,0,0,0-.383-.378H427.8a.383.383,0,1,0,0,.761h4.044A.383.383,0,0,0,432.232,126.633Zm0,1.762a.378.378,0,0,0-.383-.378H427.8a.383.383,0,1,0,0,.761h4.044a.383.383,0,0,0,.383-.394Zm0,1.768a.383.383,0,0,0-.383-.383H427.8a.383.383,0,1,0,0,.761h4.044a.378.378,0,0,0,.383-.389Zm0,1.762a.383.383,0,0,0-.383-.383H427.8a.383.383,0,1,0,0,.761h4.044a.378.378,0,0,0,.383-.389Zm0,1.762a.383.383,0,0,0-.383-.383H427.8a.383.383,0,1,0,0,.761h4.044a.378.378,0,0,0,.383-.389Zm4.848,1.762a.383.383,0,0,0-.383-.383h-4.049a.383.383,0,0,0,0,.761H436.7a.378.378,0,0,0,.383-.389Zm0,1.762a.383.383,0,0,0-.383-.383h-4.049a.383.383,0,0,0,0,.761H436.7a.378.378,0,0,0,.383-.389Zm0,1.762a.383.383,0,0,0-.383-.383h-4.049a.383.383,0,0,0-.378.383.378.378,0,0,0,.378.378H436.7a.378.378,0,0,0,.383-.389Zm-3.064-12.34a.419.419,0,1,0-.443.443A.443.443,0,0,0,434.016,126.633Zm1.319,0a.443.443,0,1,0-.438.443.438.438,0,0,0,.438-.443Zm1.324,0a.443.443,0,1,0-.443.443.438.438,0,0,0,.443-.443Zm1.319,0a.443.443,0,1,0-.438.443.438.438,0,0,0,.438-.443Zm1.324,0a.443.443,0,1,0-.443.443.438.438,0,0,0,.443-.443Zm1.319,0a.443.443,0,1,0-.438.443.438.438,0,0,0,.438-.443Zm-6.6,3.53a.443.443,0,1,0-.443.443A.443.443,0,0,0,434.016,130.163Zm1.319,0a.443.443,0,1,0-.438.438.438.438,0,0,0,.438-.449Zm1.324,0a.443.443,0,1,1,0-.011Zm1.319,0a.443.443,0,1,0-.438.438.438.438,0,0,0,.438-.449Zm1.324,0a.437.437,0,1,1,0-.011Zm1.319,0a.443.443,0,1,0-.438.438.438.438,0,0,0,.438-.449Zm-2.09,5.067a.44.44,0,1,1,0-.011Zm1.319,0a.443.443,0,1,0-.438.438.438.438,0,0,0,.438-.449Zm1.324,0a.443.443,0,1,0-.438.438.438.438,0,0,0,.438-.449Zm1.324,0a.437.437,0,1,1,0-.011Zm1.319,0a.443.443,0,1,0-.438.438.438.438,0,0,0,.438-.449Zm1.324,0a.434.434,0,1,1,0-.011Zm-6.61,3.634a.437.437,0,1,1,0-.011Zm1.319,0a.443.443,0,1,0-.438.438.438.438,0,0,0,.438-.449Zm1.324,0a.443.443,0,1,0-.438.438.438.438,0,0,0,.438-.449Zm1.324,0a.431.431,0,1,1,0-.011Zm1.319,0a.443.443,0,1,0-.438.438.438.438,0,0,0,.438-.449Zm1.324,0a.437.437,0,1,1,0-.011Z" transform="translate(-207.24 -81.564)" fill="#81d8b7"/>
      <path id="Path_1417" data-name="Path 1417" d="M426.081,153.386h-1.543a.378.378,0,0,1-.378-.378.383.383,0,0,1,.378-.383h1.543a.383.383,0,0,1,.383.383.378.378,0,0,1-.383.378Zm.383,1.384a.378.378,0,0,0-.383-.378h-1.543a.378.378,0,0,0-.378.378.383.383,0,0,0,.378.383h1.543A.383.383,0,0,0,426.464,154.771Zm0,1.762a.378.378,0,0,0-.383-.378h-1.543a.383.383,0,0,0,0,.761h1.543A.383.383,0,0,0,426.464,156.533Zm0,1.762a.378.378,0,0,0-.383-.378h-1.543a.383.383,0,0,0,0,.761h1.543a.383.383,0,0,0,.383-.4Zm0,1.762a.378.378,0,0,0-.383-.378h-1.543a.383.383,0,0,0,0,.761h1.543a.383.383,0,0,0,.383-.383Zm0,1.762a.378.378,0,0,0-.383-.378h-1.543a.383.383,0,0,0,0,.761h1.543a.383.383,0,0,0,.383-.383Zm0,1.762a.378.378,0,0,0-.383-.378h-1.543a.383.383,0,0,0,0,.761h1.543A.383.383,0,0,0,426.464,163.581Zm0,1.768a.383.383,0,0,0-.383-.383h-1.543a.383.383,0,0,0,0,.761h1.543a.378.378,0,0,0,.383-.378Zm5.768-12.34a.383.383,0,0,0-.383-.383H427.8a.383.383,0,0,0-.383.383.378.378,0,0,0,.383.378h4.044a.378.378,0,0,0,.383-.378Zm0,1.762a.378.378,0,0,0-.383-.378H427.8a.378.378,0,0,0-.383.378.383.383,0,0,0,.383.383h4.044a.383.383,0,0,0,.383-.383Zm0,1.762a.378.378,0,0,0-.383-.378H427.8a.383.383,0,1,0,0,.761h4.044a.383.383,0,0,0,.383-.383Zm0,1.762a.378.378,0,0,0-.383-.378H427.8a.383.383,0,1,0,0,.761h4.044a.383.383,0,0,0,.383-.4Zm0,1.762a.378.378,0,0,0-.383-.378H427.8a.383.383,0,1,0,0,.761h4.044a.383.383,0,0,0,.383-.383Zm4.848,1.762a.378.378,0,0,0-.383-.378h-4.049a.383.383,0,0,0,0,.761H436.7a.383.383,0,0,0,.383-.383Zm0,1.762a.378.378,0,0,0-.383-.378h-4.049a.383.383,0,0,0,0,.761H436.7A.383.383,0,0,0,437.08,163.581Zm0,1.768a.383.383,0,0,0-.383-.383h-4.049a.383.383,0,0,0,0,.761H436.7a.378.378,0,0,0,.383-.378Zm-3.064-12.34a.443.443,0,1,0-.443.443A.443.443,0,0,0,434.016,153.009Zm1.319,0a.443.443,0,1,0-.438.438.438.438,0,0,0,.438-.438Zm1.324,0a.443.443,0,1,0-.443.438.443.443,0,0,0,.443-.438Zm1.319,0a.443.443,0,1,0-.438.438A.438.438,0,0,0,437.977,153.009Zm1.324,0a.443.443,0,1,0-.443.438.443.443,0,0,0,.443-.438Zm1.319,0a.443.443,0,1,0-.438.438.438.438,0,0,0,.438-.438Zm-6.6,3.524a.419.419,0,1,0-.443.443.443.443,0,0,0,.443-.443Zm1.319,0a.443.443,0,1,0-.438.443.438.438,0,0,0,.438-.443Zm1.324,0a.443.443,0,1,0-.443.443.438.438,0,0,0,.443-.443Zm1.319,0a.443.443,0,1,0-.438.443.438.438,0,0,0,.438-.443Zm1.324,0a.443.443,0,1,0-.443.443.438.438,0,0,0,.443-.443Zm1.319,0a.443.443,0,1,0-.438.443.438.438,0,0,0,.438-.443Zm-2.09,5.067a.443.443,0,1,0-.443.443.438.438,0,0,0,.443-.443Zm1.319,0a.443.443,0,1,0-.438.443.438.438,0,0,0,.438-.443Zm1.324,0a.443.443,0,1,0-.438.443.438.438,0,0,0,.438-.443Zm1.324,0a.443.443,0,1,0-.443.443.438.438,0,0,0,.443-.443Zm1.319,0a.443.443,0,1,0-.438.443.438.438,0,0,0,.438-.443Zm1.324,0a.443.443,0,1,0-.443.443.438.438,0,0,0,.443-.443Zm-6.61,3.634a.443.443,0,1,0-.443.443.438.438,0,0,0,.443-.443Zm1.319,0a.443.443,0,1,0-.438.443.438.438,0,0,0,.438-.443Zm1.324,0a.443.443,0,1,0-.438.443.438.438,0,0,0,.438-.443Zm1.324,0a.443.443,0,1,0-.443.443.438.438,0,0,0,.443-.443Zm1.319,0a.443.443,0,1,0-.438.443.438.438,0,0,0,.438-.443Zm1.324,0a.443.443,0,1,0-.443.443.438.438,0,0,0,.443-.443Z" transform="translate(-207.24 -93.504)" fill="#81d8b7"/>
      <rect id="Rectangle_1252" data-name="Rectangle 1252" width="14.315" height="11.771" transform="translate(174.91 99.71)" fill="#fff" stroke="#8f8f8f" stroke-miterlimit="10" stroke-width="1"/>
      <path id="Path_1418" data-name="Path 1418" d="M347.68,235.577l5.407-3.5,3.179,4.3,2.7-1.434,2.545,3.021" transform="translate(-172.611 -129.508)" fill="none" stroke="#8f8f8f" stroke-miterlimit="10" stroke-width="1"/>
      <path id="Path_1419" data-name="Path 1419" d="M367.452,230.631a1.751,1.751,0,1,1-1.751-1.751A1.751,1.751,0,0,1,367.452,230.631Z" transform="translate(-179.978 -128.06)" fill="none" stroke="#8f8f8f" stroke-miterlimit="10" stroke-width="1"/>
      <line id="Line_143" data-name="Line 143" x2="16.816" transform="translate(53.694 179.916)" fill="none" stroke="#8f8f8f" stroke-miterlimit="10" stroke-width="1"/>
      <rect id="Rectangle_1253" data-name="Rectangle 1253" width="2.43" height="6.643" transform="translate(54.816 173.103)" fill="#81d8b7"/>
      <rect id="Rectangle_1254" data-name="Rectangle 1254" width="2.43" height="12.061" transform="translate(58.926 167.68)" fill="#81d8b7"/>
      <rect id="Rectangle_1255" data-name="Rectangle 1255" width="2.43" height="9.965" transform="translate(63.036 169.782)" fill="#81d8b7"/>
      <rect id="Rectangle_1256" data-name="Rectangle 1256" width="2.43" height="4.197" transform="translate(67.145 175.549)" fill="#81d8b7"/>
      <circle id="Ellipse_75" data-name="Ellipse 75" cx="11.311" cy="11.311" r="11.311" transform="translate(50.406 163.494)" fill="none" stroke="#8f8f8f" stroke-miterlimit="10" stroke-width="1"/>
    </g>
    <g id="freepik--Floor--inject-99" transform="translate(28.438 275.293)">
      <line id="Line_144" data-name="Line 144" x2="245.063" fill="none" stroke="#263238" stroke-linecap="round" stroke-linejoin="round" stroke-width="1"/>
    </g>
  </g>
</svg>
