<svg xmlns="http://www.w3.org/2000/svg" width="25.375" height="29" viewBox="0 0 25.375 29"><defs><style>.a{fill:rgba(107,114,111,0.5);}</style></defs><path class="a" d="M17.762,17.219c-1.626,0-2.407.906-5.075.906s-3.444-.906-5.075-.906A7.614,7.614,0,0,0,0,24.831v1.45A2.719,2.719,0,0,0,2.719,29H22.656a2.719,2.719,0,0,0,2.719-2.719v-1.45A7.614,7.614,0,0,0,17.762,17.219Zm4.894,9.062H2.719v-1.45a4.9,4.9,0,0,1,4.894-4.894c.827,0,2.169.906,5.075.906,2.928,0,4.242-.906,5.075-.906a4.9,4.9,0,0,1,4.894,4.894Zm-9.969-9.969A8.156,8.156,0,1,0,4.531,8.156,8.158,8.158,0,0,0,12.687,16.312Zm0-13.594A5.437,5.437,0,1,1,7.25,8.156,5.446,5.446,0,0,1,12.687,2.719Z"/></svg>